FontWithASyntaxHighlighter-Regular.ufo
<glyph name="asterisk" format="2">
  <advance width="1240.0"/>
  <unicode hex="002A"/>
  <outline>
    <contour>
      <point x="687.3333333333334" y="1010.6666666666667" type="line"/>
      <point x="719.0" y="1530.0" type="line"/>
      <point x="521.0" y="1530.0" type="line"/>
      <point x="553.0" y="1010.6666666666667" type="line"/>
    </contour>
    <contour>
      <point x="640.3333333333334" y="947.6666666666667" type="line"/>
      <point x="1146.3333333333335" y="1075.6666666666667" type="line"/>
      <point x="1085.0" y="1263.3333333333335" type="line"/>
      <point x="599.0" y="1074.6666666666667" type="line"/>
    </contour>
    <contour>
      <point x="565.6666666666667" y="972.3333333333334" type="line"/>
      <point x="847.6666666666667" y="529.0" type="line"/>
      <point x="1006.6666666666667" y="646.0" type="line"/>
      <point x="674.6666666666667" y="1051.3333333333335" type="line"/>
    </contour>
    <contour>
      <point x="564.6666666666667" y="1051.3333333333335" type="line"/>
      <point x="232.66666666666669" y="646.0" type="line"/>
      <point x="391.6666666666667" y="529.0" type="line"/>
      <point x="673.6666666666667" y="972.3333333333334" type="line"/>
    </contour>
    <contour>
      <point x="641.0" y="1074.6666666666667" type="line"/>
      <point x="155.0" y="1263.3333333333335" type="line"/>
      <point x="93.66666666666667" y="1075.6666666666667" type="line"/>
      <point x="599.6666666666667" y="947.6666666666667" type="line"/>
    </contour>
  </outline>
</glyph>
<glyph name="one" format="2">
  <advance width="1240.0"/>
  <unicode hex="0031"/>
  <outline>
    <contour>
      <point x="535.6666666666667" y="0.0" type="line"/>
      <point x="729.6666666666667" y="0.0" type="line"/>
      <point x="729.6666666666667" y="1460.0" type="line"/>
      <point x="562.3333333333334" y="1460.0" type="line"/>
      <point x="188.0" y="1335.6666666666667" type="line"/>
      <point x="188.0" y="1162.6666666666667" type="line"/>
      <point x="604.3333333333334" y="1298.3333333333335" type="line"/>
      <point x="535.6666666666667" y="1355.3333333333335" type="line"/>
    </contour>
    <contour>
      <point x="148.66666666666669" y="0.0" type="line"/>
      <point x="1113.6666666666667" y="0.0" type="line"/>
      <point x="1113.6666666666667" y="163.66666666666669" type="line"/>
      <point x="148.66666666666669" y="163.66666666666669" type="line"/>
    </contour>
  </outline>
</glyph>
<glyph name="nine" format="2">
  <advance width="1240.0"/>
  <unicode hex="0039"/>
  <outline>
    <contour>
      <point x="780.3333333333334" y="1461.0" type="line"/>
      <point x="425.0" y="1461.0" type="line"/>
      <point x="112.33333333333334" y="1153.3333333333335" type="line"/>
      <point x="112.33333333333334" y="826.0" type="line"/>
      <point x="391.33333333333337" y="573.6666666666667" type="line"/>
      <point x="987.0" y="742.3333333333335" type="line"/>
      <point x="987.0" y="860.6666666666667" type="line"/>
      <point x="460.33333333333337" y="750.6666666666667" type="line"/>
      <point x="300.0" y="888.3333333333335" type="line"/>
      <point x="300.0" y="1072.6666666666667" type="line"/>
      <point x="507.66666666666674" y="1287.3333333333335" type="line"/>
      <point x="694.3333333333334" y="1287.3333333333335" type="line"/>
      <point x="907.6666666666667" y="1072.6666666666667" type="line"/>
      <point x="907.6666666666667" y="502.00000000000006" type="line"/>
      <point x="649.6666666666667" y="174.66666666666669" type="line"/>
      <point x="208.66666666666669" y="174.66666666666669" type="line"/>
      <point x="232.0" y="1.0" type="line"/>
      <point x="747.0" y="1.0" type="line"/>
      <point x="1093.3333333333335" y="442.33333333333337" type="line"/>
      <point x="1093.3333333333335" y="1153.3333333333335" type="line"/>
    </contour>
  </outline>
</glyph>
<glyph name="at" format="2">
  <advance width="1240.0"/>
  <unicode hex="0040"/>
  <outline>
    <contour>
      <point x="964.3333333333334" y="180.0" type="line"/>
      <point x="972.0" y="180.0" type="line"/>
      <point x="967.6666666666667" y="58.0"/>
      <point x="998.3333333333334" y="-24.0"/>
      <point x="1104.3333333333335" y="-24.0" type="curve" smooth="yes"/>
      <point x="1135.0" y="-24.0"/>
      <point x="1165.3333333333335" y="-17.333333333333336"/>
      <point x="1192.6666666666667" y="-2.0" type="curve"/>
      <point x="1192.6666666666667" y="136.33333333333334" type="line"/>
      <point x="1134.6666666666667" y="119.66666666666666"/>
      <point x="1118.6666666666667" y="134.66666666666669"/>
      <point x="1118.6666666666667" y="231.66666666666669" type="curve" smooth="yes"/>
      <point x="1118.6666666666667" y="859.6666666666667" type="line" smooth="yes"/>
      <point x="1118.6666666666667" y="1275.6666666666667"/>
      <point x="966.6666666666667" y="1450.6666666666667"/>
      <point x="649.0" y="1450.6666666666667" type="curve" smooth="yes"/>
      <point x="281.6666666666667" y="1450.6666666666667"/>
      <point x="90.66666666666667" y="1220.6666666666667"/>
      <point x="90.66666666666667" y="736.0" type="curve" smooth="yes"/>
      <point x="90.66666666666667" y="273.0" type="line" smooth="yes"/>
      <point x="90.66666666666667" y="-258.6666666666667"/>
      <point x="336.33333333333337" y="-410.6666666666667"/>
      <point x="699.3333333333334" y="-410.6666666666667" type="curve" smooth="yes"/>
      <point x="850.3333333333334" y="-410.6666666666667"/>
      <point x="977.6666666666667" y="-385.0"/>
      <point x="1107.0" y="-333.33333333333337" type="curve"/>
      <point x="1106.3333333333335" y="-188.33333333333337" type="line"/>
      <point x="994.6666666666667" y="-231.33333333333334"/>
      <point x="862.0000000000001" y="-268.33333333333337"/>
      <point x="705.6666666666667" y="-268.33333333333337" type="curve" smooth="yes"/>
      <point x="437.0" y="-268.33333333333337"/>
      <point x="240.0" y="-158.33333333333334"/>
      <point x="240.0" y="273.6666666666667" type="curve" smooth="yes"/>
      <point x="240.0" y="746.6666666666667" type="line" smooth="yes"/>
      <point x="240.0" y="1137.0"/>
      <point x="388.33333333333337" y="1307.0"/>
      <point x="649.0" y="1307.0" type="curve" smooth="yes"/>
      <point x="862.6666666666667" y="1307.0"/>
      <point x="964.3333333333334" y="1192.0"/>
      <point x="964.3333333333334" y="910.6666666666667" type="curve" smooth="yes"/>
    </contour>
    <contour>
      <point x="456.0" y="428.0" type="line" smooth="yes"/>
      <point x="456.0" y="98.33333333333334"/>
      <point x="558.6666666666667" y="-24.666666666666664"/>
      <point x="728.3333333333334" y="-24.666666666666664" type="curve" smooth="yes"/>
      <point x="839.0000000000001" y="-24.666666666666664"/>
      <point x="895.0000000000001" y="27.000000000000004"/>
      <point x="950.0000000000001" y="96.66666666666666" type="curve"/>
      <point x="985.0" y="96.66666666666666" type="line"/>
      <point x="985.0" y="264.0" type="line"/>
      <point x="924.0000000000001" y="150.33333333333334"/>
      <point x="863.6666666666667" y="117.66666666666667"/>
      <point x="788.6666666666667" y="117.66666666666667" type="curve" smooth="yes"/>
      <point x="669.0" y="117.66666666666667"/>
      <point x="616.0" y="200.0"/>
      <point x="616.0" y="465.33333333333337" type="curve" smooth="yes"/>
      <point x="616.0" y="580.0" type="line" smooth="yes"/>
      <point x="616.0" y="838.3333333333334"/>
      <point x="674.6666666666667" y="909.3333333333334"/>
      <point x="789.0000000000001" y="909.3333333333334" type="curve" smooth="yes"/>
      <point x="866.6666666666667" y="909.3333333333334"/>
      <point x="927.6666666666667" y="876.0000000000001"/>
      <point x="985.0" y="768.0" type="curve"/>
      <point x="985.0" y="933.3333333333335" type="line"/>
      <point x="949.6666666666667" y="933.3333333333335" type="line"/>
      <point x="894.3333333333335" y="1001.6666666666667"/>
      <point x="835.6666666666667" y="1050.6666666666667"/>
      <point x="728.3333333333334" y="1050.6666666666667" type="curve" smooth="yes"/>
      <point x="568.3333333333334" y="1050.6666666666667"/>
      <point x="456.0" y="942.6666666666667"/>
      <point x="456.0" y="614.6666666666667" type="curve" smooth="yes"/>
    </contour>
  </outline>
</glyph>
<glyph name="D" format="2">
  <advance width="1240.0"/>
  <unicode hex="0044"/>
  <outline>
    <contour>
      <point x="262.6666666666667" y="0.0" type="line"/>
      <point x="761.0" y="0.0" type="line"/>
      <point x="1129.3333333333335" y="539.6666666666667" type="line"/>
      <point x="1129.3333333333335" y="934.3333333333335" type="line"/>
      <point x="761.0" y="1460.0" type="line"/>
      <point x="262.6666666666667" y="1460.0" type="line"/>
      <point x="252.66666666666669" y="1286.3333333333335" type="line"/>
      <point x="660.3333333333334" y="1286.3333333333335" type="line"/>
      <point x="937.0000000000001" y="876.3333333333335" type="line"/>
      <point x="937.0000000000001" y="597.6666666666667" type="line"/>
      <point x="660.3333333333334" y="173.66666666666669" type="line"/>
      <point x="252.66666666666669" y="173.66666666666669" type="line"/>
    </contour>
    <contour>
      <point x="182.00000000000003" y="0.0" type="line"/>
      <point x="375.6666666666667" y="0.0" type="line"/>
      <point x="375.6666666666667" y="1460.0" type="line"/>
      <point x="182.00000000000003" y="1460.0" type="line"/>
    </contour>
  </outline>
</glyph>
<glyph name="H" format="2">
  <advance width="1240.0"/>
  <unicode hex="0048"/>
  <outline>
    <contour>
      <point x="861.6666666666667" y="0.0" type="line"/>
      <point x="1058.0" y="0.0" type="line"/>
      <point x="1058.0" y="1460.0" type="line"/>
      <point x="861.6666666666667" y="1460.0" type="line"/>
    </contour>
    <contour>
      <point x="182.00000000000003" y="0.0" type="line"/>
      <point x="378.33333333333337" y="0.0" type="line"/>
      <point x="378.33333333333337" y="1460.0" type="line"/>
      <point x="182.00000000000003" y="1460.0" type="line"/>
    </contour>
    <contour>
      <point x="273.6666666666667" y="673.3333333333334" type="line"/>
      <point x="967.6666666666667" y="673.3333333333334" type="line"/>
      <point x="967.6666666666667" y="831.0000000000001" type="line"/>
      <point x="273.6666666666667" y="831.0000000000001" type="line"/>
    </contour>
  </outline>
</glyph>
<glyph name="M" format="2">
  <advance width="1240.0"/>
  <unicode hex="004D"/>
  <outline>
    <contour>
      <point x="142.33333333333334" y="0.0" type="line"/>
      <point x="306.0" y="0.0" type="line"/>
      <point x="306.0" y="1063.3333333333335" type="line"/>
      <point x="318.0" y="1063.3333333333335" type="line"/>
      <point x="569.6666666666667" y="389.0" type="line"/>
      <point x="663.0" y="389.0" type="line"/>
      <point x="915.3333333333334" y="1063.3333333333335" type="line"/>
      <point x="930.0000000000001" y="1063.3333333333335" type="line"/>
      <point x="930.0000000000001" y="0.0" type="line"/>
      <point x="1097.6666666666667" y="0.0" type="line"/>
      <point x="1097.6666666666667" y="1459.3333333333335" type="line"/>
      <point x="919.6666666666667" y="1459.3333333333335" type="line"/>
      <point x="632.6666666666667" y="692.0" type="line"/>
      <point x="616.0" y="692.0" type="line"/>
      <point x="338.6666666666667" y="1459.3333333333335" type="line"/>
      <point x="142.33333333333334" y="1459.3333333333335" type="line"/>
    </contour>
  </outline>
</glyph>
<glyph name="bracketleft" format="2">
  <advance width="1240.0"/>
  <unicode hex="005B"/>
  <outline>
    <contour>
      <point x="350.0" y="-400.0" type="line"/>
      <point x="1006.3333333333335" y="-400.0" type="line"/>
      <point x="1006.3333333333335" y="-253.33333333333337" type="line"/>
      <point x="492.33333333333337" y="-253.33333333333337" type="line"/>
      <point x="537.3333333333334" y="-291.33333333333337" type="line"/>
      <point x="537.3333333333334" y="1493.3333333333335" type="line"/>
      <point x="492.33333333333337" y="1455.3333333333335" type="line"/>
      <point x="1006.3333333333335" y="1455.3333333333335" type="line"/>
      <point x="1006.3333333333335" y="1602.0000000000002" type="line"/>
      <point x="350.0" y="1602.0000000000002" type="line"/>
    </contour>
  </outline>
</glyph>
<glyph name="backslash" format="2">
  <advance width="1240.0"/>
  <unicode hex="005C"/>
  <outline>
    <contour>
      <point x="884.6666666666667" y="-200.0" type="line"/>
      <point x="193.33333333333334" y="1460.0" type="line"/>
      <point x="397.0" y="1460.0" type="line"/>
      <point x="1088.3333333333335" y="-200.0" type="line"/>
    </contour>
  </outline>
</glyph>
<glyph name="grave" format="2">
  <advance width="1240.0"/>
  <unicode hex="0060"/>
  <outline>
    <contour>
      <point x="545.3333333333334" y="1274.3333333333335" type="line"/>
      <point x="704.3333333333334" y="1274.3333333333335" type="line"/>
      <point x="495.33333333333337" y="1612.3333333333335" type="line"/>
      <point x="293.6666666666667" y="1612.3333333333335" type="line"/>
    </contour>
  </outline>
</glyph>
<glyph name="q" format="2">
  <advance width="1240.0"/>
  <unicode hex="0071"/>
  <outline>
    <contour>
      <point x="876.0000000000001" y="-400.0" type="line"/>
      <point x="1068.6666666666667" y="-380.0" type="line"/>
      <point x="1068.6666666666667" y="1027.3333333333335" type="line"/>
      <point x="887.6666666666667" y="1027.3333333333335" type="line"/>
      <point x="887.6666666666667" y="189.33333333333334" type="line"/>
      <point x="876.0000000000001" y="149.33333333333334" type="line"/>
    </contour>
    <contour>
      <point x="964.6666666666667" y="1027.3333333333335" type="line"/>
      <point x="466.33333333333337" y="1027.3333333333335" type="line"/>
      <point x="150.0" y="716.3333333333334" type="line"/>
      <point x="150.0" y="245.66666666666669" type="line"/>
      <point x="449.0" y="-23.333333333333336" type="line"/>
      <point x="964.6666666666667" y="142.0" type="line"/>
      <point x="964.6666666666667" y="267.0" type="line"/>
      <point x="509.00000000000006" y="158.33333333333334" type="line"/>
      <point x="340.33333333333337" y="299.33333333333337" type="line"/>
      <point x="340.33333333333337" y="659.0" type="line"/>
      <point x="552.3333333333334" y="877.0000000000001" type="line"/>
      <point x="964.6666666666667" y="877.0000000000001" type="line"/>
    </contour>
  </outline>
</glyph>
<glyph name="x" format="2">
  <advance width="1240.0"/>
  <unicode hex="0078"/>
  <outline>
    <contour>
      <point x="854.3333333333335" y="0.0" type="line"/>
      <point x="1046.6666666666667" y="0.0" type="line"/>
      <point x="1046.6666666666667" y="215.0" type="line"/>
      <point x="385.6666666666667" y="851.6666666666667" type="line"/>
      <point x="385.6666666666667" y="1027.3333333333335" type="line"/>
      <point x="193.33333333333334" y="1027.3333333333335" type="line"/>
      <point x="193.33333333333334" y="812.3333333333334" type="line"/>
      <point x="854.3333333333335" y="175.66666666666669" type="line"/>
    </contour>
    <contour>
      <point x="193.33333333333334" y="0.0" type="line"/>
      <point x="372.33333333333337" y="0.0" type="line"/>
      <point x="372.33333333333337" y="178.33333333333334" type="line"/>
      <point x="628.3333333333334" y="468.6666666666667" type="line"/>
      <point x="523.0" y="580.6666666666667" type="line"/>
      <point x="193.33333333333334" y="215.0" type="line"/>
    </contour>
    <contour>
      <point x="717.0" y="446.66666666666674" type="line"/>
      <point x="1046.6666666666667" y="812.3333333333334" type="line"/>
      <point x="1046.6666666666667" y="1027.3333333333335" type="line"/>
      <point x="867.6666666666667" y="1027.3333333333335" type="line"/>
      <point x="867.6666666666667" y="849.0000000000001" type="line"/>
      <point x="612.0" y="558.6666666666667" type="line"/>
    </contour>
  </outline>
</glyph>
<glyph name="bar" format="2">
  <advance width="1240.0"/>
  <unicode hex="007C"/>
  <outline>
    <contour>
      <point x="717.0" y="-400.0" type="line"/>
      <point x="717.0" y="1602.0000000000002" type="line"/>
      <point x="523.0" y="1602.0000000000002" type="line"/>
      <point x="523.0" y="-400.0" type="line"/>
    </contour>
  </outline>
</glyph>
<glyph name="macron" format="2">
  <advance width="1240.0"/>
  <unicode hex="00AF"/>
  <outline>
    <contour>
      <point x="299.0" y="1325.6666666666667" type="line"/>
      <point x="941.0000000000001" y="1325.6666666666667" type="line"/>
      <point x="941.0000000000001" y="1456.6666666666667" type="line"/>
      <point x="299.0" y="1456.6666666666667" type="line"/>
    </contour>
  </outline>
</glyph>
<glyph name="ordmasculine" format="2">
  <advance width="1240.0"/>
  <unicode hex="00BA"/>
  <outline>
    <contour>
      <point x="816.6666666666667" y="1228.6666666666667" type="curve" smooth="yes"/>
      <point x="816.6666666666667" y="1447.3333333333335"/>
      <point x="680.0" y="1550.3333333333335"/>
      <point x="515.0" y="1550.3333333333335" type="curve" smooth="yes"/>
      <point x="350.6666666666667" y="1550.3333333333335"/>
      <point x="213.66666666666669" y="1447.3333333333335"/>
      <point x="213.66666666666669" y="1228.6666666666667" type="curve" smooth="yes"/>
      <point x="213.66666666666669" y="1008.6666666666667"/>
      <point x="350.6666666666667" y="911.3333333333334"/>
      <point x="515.0" y="911.3333333333334" type="curve" smooth="yes"/>
      <point x="679.6666666666667" y="911.3333333333334"/>
      <point x="816.6666666666667" y="1008.6666666666667"/>
    </contour>
    <contour>
      <point x="673.3333333333334" y="1229.3333333333335" type="curve" smooth="yes"/>
      <point x="673.3333333333334" y="1080.3333333333335"/>
      <point x="605.6666666666667" y="1022.0000000000001"/>
      <point x="515.0" y="1022.0000000000001" type="curve" smooth="yes"/>
      <point x="424.6666666666667" y="1022.0000000000001"/>
      <point x="357.0" y="1080.3333333333335"/>
      <point x="357.0" y="1229.3333333333335" type="curve" smooth="yes"/>
      <point x="357.0" y="1379.3333333333335"/>
      <point x="424.6666666666667" y="1439.6666666666667"/>
      <point x="515.0" y="1439.6666666666667" type="curve" smooth="yes"/>
      <point x="605.6666666666667" y="1439.6666666666667"/>
      <point x="673.3333333333334" y="1379.3333333333335"/>
    </contour>
  </outline>
</glyph>
<glyph name="Atilde" format="2">
  <advance width="1240.0"/>
  <unicode hex="00C3"/>
  <outline>
    <contour>
      <point x="182.00000000000003" y="0.0" type="line"/>
      <point x="375.0" y="0.0" type="line"/>
      <point x="375.0" y="825.6666666666667" type="line"/>
      <point x="647.0" y="1340.3333333333335" type="line"/>
      <point x="593.0" y="1340.3333333333335" type="line"/>
      <point x="865.0" y="828.3333333333334" type="line"/>
      <point x="865.0" y="0.0" type="line"/>
      <point x="1058.0" y="0.0" type="line"/>
      <point x="1058.0" y="885.0000000000001" type="line"/>
      <point x="736.3333333333334" y="1460.0" type="line"/>
      <point x="503.6666666666667" y="1460.0" type="line"/>
      <point x="182.00000000000003" y="885.0000000000001" type="line"/>
    </contour>
    <contour>
      <point x="303.6666666666667" y="400.33333333333337" type="line"/>
      <point x="942.6666666666667" y="400.33333333333337" type="line"/>
      <point x="942.6666666666667" y="547.0" type="line"/>
      <point x="303.6666666666667" y="547.0" type="line"/>
    </contour>
    <contour>
      <point x="577.0" y="1891.0000000000002" type="line"/>
      <point x="367.66666666666674" y="1891.0000000000002" type="line"/>
      <point x="236.66666666666669" y="1758.0" type="line"/>
      <point x="236.66666666666669" y="1632.3333333333335" type="line"/>
      <point x="364.33333333333337" y="1632.3333333333335" type="line"/>
      <point x="364.33333333333337" y="1713.3333333333335" type="line"/>
      <point x="429.6666666666667" y="1781.3333333333335" type="line"/>
      <point x="513.0" y="1781.3333333333335" type="line"/>
      <point x="663.0" y="1632.3333333333335" type="line"/>
      <point x="872.3333333333334" y="1632.3333333333335" type="line"/>
      <point x="1003.3333333333334" y="1765.3333333333335" type="line"/>
      <point x="1003.3333333333334" y="1891.0000000000002" type="line"/>
      <point x="875.6666666666667" y="1891.0000000000002" type="line"/>
      <point x="875.6666666666667" y="1806.6666666666667" type="line"/>
      <point x="810.3333333333334" y="1742.0000000000002" type="line"/>
      <point x="727.0" y="1742.0000000000002" type="line"/>
    </contour>
  </outline>
</glyph>
<glyph name="AE" format="2">
  <advance width="1240.0"/>
  <unicode hex="00C6"/>
  <outline>
    <contour>
      <point x="633.3333333333334" y="0.0" type="line"/>
      <point x="817.0" y="0.0" type="line"/>
      <point x="817.0" y="1460.0" type="line"/>
      <point x="633.3333333333334" y="1460.0" type="line"/>
    </contour>
    <contour>
      <point x="102.00000000000001" y="0.0" type="line"/>
      <point x="285.6666666666667" y="0.0" type="line"/>
      <point x="285.6666666666667" y="825.6666666666667" type="line"/>
      <point x="527.3333333333334" y="1296.3333333333335" type="line"/>
      <point x="712.6666666666667" y="1296.3333333333335" type="line"/>
      <point x="712.6666666666667" y="1460.0" type="line"/>
      <point x="416.6666666666667" y="1460.0" type="line"/>
      <point x="102.00000000000001" y="885.0000000000001" type="line"/>
    </contour>
    <contour>
      <point x="217.33333333333334" y="400.33333333333337" type="line"/>
      <point x="717.3333333333334" y="400.33333333333337" type="line"/>
      <point x="717.3333333333334" y="547.0" type="line"/>
      <point x="217.33333333333334" y="547.0" type="line"/>
    </contour>
    <contour>
      <point x="743.3333333333334" y="0.0" type="line"/>
      <point x="1140.6666666666667" y="0.0" type="line"/>
      <point x="1164.0" y="163.66666666666669" type="line"/>
      <point x="743.3333333333334" y="163.66666666666669" type="line"/>
    </contour>
    <contour>
      <point x="743.3333333333334" y="652.3333333333334" type="line"/>
      <point x="1063.6666666666667" y="652.3333333333334" type="line"/>
      <point x="1063.6666666666667" y="808.0" type="line"/>
      <point x="743.3333333333334" y="808.0" type="line"/>
    </contour>
    <contour>
      <point x="743.3333333333334" y="1296.3333333333335" type="line"/>
      <point x="1137.3333333333335" y="1296.3333333333335" type="line"/>
      <point x="1114.0" y="1460.0" type="line"/>
      <point x="743.3333333333334" y="1460.0" type="line"/>
    </contour>
  </outline>
</glyph>
<glyph name="Ccedilla" format="2">
  <advance width="1240.0"/>
  <unicode hex="00C7"/>
  <outline>
    <contour>
      <point x="479.00000000000006" y="0.0" type="line"/>
      <point x="1074.0" y="0.0" type="line"/>
      <point x="1100.6666666666667" y="173.66666666666669" type="line"/>
      <point x="582.3333333333334" y="173.66666666666669" type="line"/>
      <point x="303.0" y="594.0" type="line"/>
      <point x="303.0" y="872.6666666666667" type="line"/>
      <point x="582.3333333333334" y="1286.3333333333335" type="line"/>
      <point x="1100.6666666666667" y="1286.3333333333335" type="line"/>
      <point x="1074.0" y="1460.0" type="line"/>
      <point x="479.00000000000006" y="1460.0" type="line"/>
      <point x="110.66666666666667" y="932.6666666666667" type="line"/>
      <point x="110.66666666666667" y="534.0" type="line"/>
    </contour>
    <contour>
      <point x="618.6666666666667" y="-589.0" type="line"/>
      <point x="806.0" y="-589.0" type="line"/>
      <point x="957.3333333333335" y="-461.33333333333337" type="line"/>
      <point x="957.3333333333335" y="-279.33333333333337" type="line"/>
      <point x="807.6666666666667" y="-159.33333333333334" type="line"/>
      <point x="755.6666666666667" y="-159.33333333333334" type="line"/>
      <point x="781.3333333333333" y="-197.33333333333334" type="line"/>
      <point x="781.3333333333333" y="48.0" type="line"/>
      <point x="658.6666666666667" y="48.0" type="line"/>
      <point x="658.6666666666667" y="-274.33333333333337" type="line"/>
      <point x="758.0000000000001" y="-274.33333333333337" type="line"/>
      <point x="841.0" y="-339.33333333333337" type="line"/>
      <point x="841.0" y="-401.33333333333337" type="line"/>
      <point x="758.0000000000001" y="-466.33333333333337" type="line"/>
      <point x="618.6666666666667" y="-466.33333333333337" type="line"/>
    </contour>
  </outline>
</glyph>
<glyph name="Otilde" format="2">
  <advance width="1240.0"/>
  <unicode hex="00D5"/>
  <outline>
    <contour>
      <point x="485.66666666666674" y="0.0" type="line"/>
      <point x="753.6666666666667" y="0.0" type="line"/>
      <point x="1129.3333333333335" y="536.0" type="line"/>
      <point x="1129.3333333333335" y="930.6666666666667" type="line"/>
      <point x="767.0" y="1460.0" type="line"/>
      <point x="485.66666666666674" y="1460.0" type="line"/>
      <point x="110.66666666666667" y="930.6666666666667" type="line"/>
      <point x="110.66666666666667" y="536.0" type="line"/>
    </contour>
    <contour>
      <point x="573.0" y="177.0" type="line"/>
      <point x="303.0" y="594.0" type="line"/>
      <point x="303.0" y="872.6666666666667" type="line"/>
      <point x="578.3333333333334" y="1283.0" type="line"/>
      <point x="671.6666666666667" y="1283.0" type="line"/>
      <point x="937.0000000000001" y="872.6666666666667" type="line"/>
      <point x="937.0000000000001" y="594.0" type="line"/>
      <point x="666.3333333333334" y="177.0" type="line"/>
    </contour>
    <contour>
      <point x="577.0" y="1891.0000000000002" type="line"/>
      <point x="367.66666666666674" y="1891.0000000000002" type="line"/>
      <point x="236.66666666666669" y="1758.0" type="line"/>
      <point x="236.66666666666669" y="1632.3333333333335" type="line"/>
      <point x="364.33333333333337" y="1632.3333333333335" type="line"/>
      <point x="364.33333333333337" y="1713.3333333333335" type="line"/>
      <point x="429.6666666666667" y="1781.3333333333335" type="line"/>
      <point x="513.0" y="1781.3333333333335" type="line"/>
      <point x="663.0" y="1632.3333333333335" type="line"/>
      <point x="872.3333333333334" y="1632.3333333333335" type="line"/>
      <point x="1003.3333333333334" y="1765.3333333333335" type="line"/>
      <point x="1003.3333333333334" y="1891.0000000000002" type="line"/>
      <point x="875.6666666666667" y="1891.0000000000002" type="line"/>
      <point x="875.6666666666667" y="1806.6666666666667" type="line"/>
      <point x="810.3333333333334" y="1742.0000000000002" type="line"/>
      <point x="727.0" y="1742.0000000000002" type="line"/>
    </contour>
  </outline>
</glyph>
<glyph name="acircumflex" format="2">
  <advance width="1240.0"/>
  <unicode hex="00E2"/>
  <outline>
    <contour>
      <point x="943.6666666666667" y="0.0" type="line"/>
      <point x="1076.0" y="0.0" type="line"/>
      <point x="1076.0" y="812.3333333333334" type="line"/>
      <point x="871.6666666666667" y="1027.3333333333335" type="line"/>
      <point x="272.6666666666667" y="1027.3333333333335" type="line"/>
      <point x="249.33333333333337" y="877.6666666666667" type="line"/>
      <point x="785.3333333333334" y="877.6666666666667" type="line"/>
      <point x="890.3333333333334" y="769.3333333333334" type="line"/>
      <point x="890.3333333333334" y="172.33333333333334" type="line"/>
    </contour>
    <contour>
      <point x="391.6666666666667" y="-22.666666666666668" type="line"/>
      <point x="955.0" y="141.33333333333334" type="line"/>
      <point x="955.0" y="256.33333333333337" type="line"/>
      <point x="458.33333333333337" y="125.66666666666667" type="line"/>
      <point x="289.6666666666667" y="270.0" type="line"/>
      <point x="289.6666666666667" y="379.6666666666667" type="line"/>
      <point x="435.0" y="475.00000000000006" type="line"/>
      <point x="955.0" y="475.00000000000006" type="line"/>
      <point x="955.0" y="605.0" type="line"/>
      <point x="365.6666666666667" y="605.0" type="line"/>
      <point x="118.0" y="437.66666666666674" type="line"/>
      <point x="118.0" y="203.0" type="line"/>
    </contour>
    <contour>
      <point x="265.0" y="1274.3333333333335" type="line"/>
      <point x="437.0" y="1274.3333333333335" type="line"/>
      <point x="650.0" y="1571.6666666666667" type="line"/>
      <point x="590.0" y="1571.6666666666667" type="line"/>
      <point x="803.0" y="1274.3333333333335" type="line"/>
      <point x="975.0000000000001" y="1274.3333333333335" type="line"/>
      <point x="716.3333333333334" y="1612.3333333333335" type="line"/>
      <point x="523.6666666666667" y="1612.3333333333335" type="line"/>
    </contour>
  </outline>
</glyph>
<glyph name="eacute" format="2">
  <advance width="1240.0"/>
  <unicode hex="00E9"/>
  <outline>
    <contour>
      <point x="481.6666666666667" y="0.0" type="line"/>
      <point x="1010.3333333333334" y="0.0" type="line"/>
      <point x="1033.6666666666667" y="149.0" type="line"/>
      <point x="565.6666666666667" y="149.0" type="line"/>
      <point x="335.6666666666667" y="384.33333333333337" type="line"/>
      <point x="335.6666666666667" y="636.3333333333334" type="line"/>
      <point x="529.0" y="885.0" type="line"/>
      <point x="838.3333333333334" y="885.0" type="line"/>
      <point x="920.3333333333335" y="812.3333333333335" type="line"/>
      <point x="920.3333333333335" y="685.0" type="line"/>
      <point x="840.3333333333334" y="611.6666666666667" type="line"/>
      <point x="273.6666666666667" y="611.6666666666667" type="line"/>
      <point x="273.6666666666667" y="483.6666666666667" type="line"/>
      <point x="952.0000000000001" y="483.6666666666667" type="line"/>
      <point x="1079.3333333333335" y="603.6666666666667" type="line"/>
      <point x="1079.3333333333335" y="853.6666666666667" type="line"/>
      <point x="908.3333333333334" y="1027.3333333333335" type="line"/>
      <point x="448.33333333333337" y="1027.3333333333335" type="line"/>
      <point x="156.66666666666669" y="684.3333333333334" type="line"/>
      <point x="156.66666666666669" y="343.0" type="line"/>
    </contour>
    <contour>
      <point x="734.6666666666667" y="1274.3333333333335" type="line"/>
      <point x="575.6666666666667" y="1274.3333333333335" type="line"/>
      <point x="784.6666666666667" y="1612.3333333333335" type="line"/>
      <point x="986.3333333333334" y="1612.3333333333335" type="line"/>
    </contour>
  </outline>
</glyph>
<glyph name="idieresis" format="2">
  <advance width="1240.0"/>
  <unicode hex="00EF"/>
  <outline>
    <contour>
      <point x="609.0" y="0.0" type="line"/>
      <point x="800.0" y="0.0" type="line"/>
      <point x="800.0" y="912.3333333333334" type="line"/>
      <point x="697.6666666666667" y="1027.3333333333335" type="line"/>
      <point x="195.66666666666669" y="1027.3333333333335" type="line"/>
      <point x="172.33333333333337" y="861.6666666666667" type="line"/>
      <point x="659.3333333333334" y="861.6666666666667" type="line"/>
      <point x="609.0" y="904.0" type="line"/>
    </contour>
    <contour>
      <point x="293.22" y="1259.728" type="line"/>
      <point x="446.89133333333336" y="1416.1776666666667" type="line"/>
      <point x="293.22" y="1572.295" type="line"/>
      <point x="139.25433333333336" y="1416.1776666666667" type="line"/>
    </contour>
    <contour>
      <point x="808.8866666666668" y="1259.728" type="line"/>
      <point x="962.5580000000001" y="1416.1776666666667" type="line"/>
      <point x="808.8866666666668" y="1572.295" type="line"/>
      <point x="654.921" y="1416.1776666666667" type="line"/>
    </contour>
  </outline>
</glyph>
<glyph name="ntilde" format="2">
  <advance width="1240.0"/>
  <unicode hex="00F1"/>
  <outline>
    <contour>
      <point x="863.0" y="0.0" type="line"/>
      <point x="1055.3333333333335" y="0.0" type="line"/>
      <point x="1055.3333333333335" y="785.0" type="line"/>
      <point x="795.0" y="1050.6666666666667" type="line"/>
      <point x="258.6666666666667" y="885.3333333333335" type="line"/>
      <point x="258.6666666666667" y="770.3333333333334" type="line"/>
      <point x="728.3333333333334" y="879.0" type="line"/>
      <point x="863.0" y="738.0" type="line"/>
    </contour>
    <contour>
      <point x="184.66666666666669" y="0.0" type="line"/>
      <point x="375.6666666666667" y="0.0" type="line"/>
      <point x="375.6666666666667" y="894.3333333333334" type="line"/>
      <point x="324.33333333333337" y="1027.3333333333335" type="line"/>
      <point x="184.66666666666669" y="1027.3333333333335" type="line"/>
    </contour>
    <contour>
      <point x="582.0" y="1589.0" type="line"/>
      <point x="367.33333333333337" y="1589.0" type="line"/>
      <point x="236.33333333333334" y="1422.6666666666667" type="line"/>
      <point x="236.33333333333334" y="1263.6666666666667" type="line"/>
      <point x="364.0" y="1263.6666666666667" type="line"/>
      <point x="364.0" y="1378.0" type="line"/>
      <point x="436.0" y="1476.0" type="line"/>
      <point x="507.33333333333337" y="1476.0" type="line"/>
      <point x="657.3333333333334" y="1263.6666666666667" type="line"/>
      <point x="872.0" y="1263.6666666666667" type="line"/>
      <point x="1003.0" y="1430.0" type="line"/>
      <point x="1003.0" y="1589.0" type="line"/>
      <point x="875.3333333333334" y="1589.0" type="line"/>
      <point x="875.3333333333334" y="1471.3333333333335" type="line"/>
      <point x="803.3333333333334" y="1376.6666666666667" type="line"/>
      <point x="732.0" y="1376.6666666666667" type="line"/>
    </contour>
  </outline>
</glyph>
<glyph name="divide" format="2">
  <advance width="1240.0"/>
  <unicode hex="00F7"/>
  <outline>
    <contour>
      <point x="620.6666666666667" y="161.0" type="curve" smooth="yes"/>
      <point x="690.6666666666667" y="161.0"/>
      <point x="747.0" y="206.33333333333337"/>
      <point x="747.0" y="281.33333333333337" type="curve" smooth="yes"/>
      <point x="747.0" y="357.0"/>
      <point x="690.6666666666667" y="401.33333333333337"/>
      <point x="620.6666666666667" y="401.33333333333337" type="curve" smooth="yes"/>
      <point x="550.6666666666667" y="401.33333333333337"/>
      <point x="494.0" y="357.0"/>
      <point x="494.0" y="281.33333333333337" type="curve" smooth="yes"/>
      <point x="494.0" y="206.33333333333337"/>
      <point x="550.6666666666667" y="161.0"/>
    </contour>
    <contour>
      <point x="620.6666666666667" y="908.3333333333334" type="curve" smooth="yes"/>
      <point x="690.6666666666667" y="908.3333333333334"/>
      <point x="747.0" y="954.0"/>
      <point x="747.0" y="1028.6666666666667" type="curve" smooth="yes"/>
      <point x="747.0" y="1104.6666666666667"/>
      <point x="690.6666666666667" y="1148.6666666666667"/>
      <point x="620.6666666666667" y="1148.6666666666667" type="curve" smooth="yes"/>
      <point x="550.6666666666667" y="1148.6666666666667"/>
      <point x="494.0" y="1104.6666666666667"/>
      <point x="494.0" y="1028.6666666666667" type="curve" smooth="yes"/>
      <point x="494.0" y="954.0"/>
      <point x="550.6666666666667" y="908.3333333333334"/>
    </contour>
    <contour>
      <point x="160.0" y="573.0" type="line"/>
      <point x="1080.0" y="573.0" type="line"/>
      <point x="1080.0" y="736.6666666666667" type="line"/>
      <point x="160.0" y="736.6666666666667" type="line"/>
    </contour>
  </outline>
</glyph>
<glyph name="thorn" format="2">
  <advance width="1240.0"/>
  <unicode hex="00FE"/>
  <outline>
    <contour>
      <point x="188.66666666666669" y="-386.6666666666667" type="line"/>
      <point x="378.0" y="-386.6666666666667" type="line"/>
      <point x="378.0" y="1530.0" type="line"/>
      <point x="188.66666666666669" y="1530.0" type="line"/>
    </contour>
    <contour>
      <point x="272.6666666666667" y="0.0" type="line"/>
      <point x="771.0" y="0.0" type="line"/>
      <point x="1087.3333333333335" y="311.0" type="line"/>
      <point x="1087.3333333333335" y="781.6666666666667" type="line"/>
      <point x="788.3333333333334" y="1050.6666666666667" type="line"/>
      <point x="272.6666666666667" y="885.3333333333335" type="line"/>
      <point x="272.6666666666667" y="760.3333333333334" type="line"/>
      <point x="728.3333333333334" y="869.0" type="line"/>
      <point x="897.0000000000001" y="728.0" type="line"/>
      <point x="897.0000000000001" y="368.33333333333337" type="line"/>
      <point x="685.0" y="150.33333333333331" type="line"/>
      <point x="272.6666666666667" y="150.33333333333331" type="line"/>
    </contour>
  </outline>
</glyph>
<glyph name="abreve" format="2">
  <advance width="1240.0"/>
  <unicode hex="0103"/>
  <outline>
    <contour>
      <point x="943.6666666666667" y="0.0" type="line"/>
      <point x="1076.0" y="0.0" type="line"/>
      <point x="1076.0" y="812.3333333333334" type="line"/>
      <point x="871.6666666666667" y="1027.3333333333335" type="line"/>
      <point x="272.6666666666667" y="1027.3333333333335" type="line"/>
      <point x="249.33333333333337" y="877.6666666666667" type="line"/>
      <point x="785.3333333333334" y="877.6666666666667" type="line"/>
      <point x="890.3333333333334" y="769.3333333333334" type="line"/>
      <point x="890.3333333333334" y="172.33333333333334" type="line"/>
    </contour>
    <contour>
      <point x="391.6666666666667" y="-22.666666666666668" type="line"/>
      <point x="955.0" y="141.33333333333334" type="line"/>
      <point x="955.0" y="256.33333333333337" type="line"/>
      <point x="458.33333333333337" y="125.66666666666667" type="line"/>
      <point x="289.6666666666667" y="270.0" type="line"/>
      <point x="289.6666666666667" y="379.6666666666667" type="line"/>
      <point x="435.0" y="475.00000000000006" type="line"/>
      <point x="955.0" y="475.00000000000006" type="line"/>
      <point x="955.0" y="605.0" type="line"/>
      <point x="365.6666666666667" y="605.0" type="line"/>
      <point x="118.0" y="437.66666666666674" type="line"/>
      <point x="118.0" y="203.0" type="line"/>
    </contour>
    <contour>
      <point x="466.33333333333337" y="1267.0" type="line"/>
      <point x="773.6666666666667" y="1267.0" type="line"/>
      <point x="918.0" y="1426.0" type="line"/>
      <point x="918.0" y="1612.3333333333335" type="line"/>
      <point x="792.0" y="1612.3333333333335" type="line"/>
      <point x="792.0" y="1473.0" type="line"/>
      <point x="707.0" y="1383.3333333333335" type="line"/>
      <point x="533.0" y="1383.3333333333335" type="line"/>
      <point x="448.0" y="1473.0" type="line"/>
      <point x="448.0" y="1612.3333333333335" type="line"/>
      <point x="322.0" y="1612.3333333333335" type="line"/>
      <point x="322.0" y="1425.0" type="line"/>
    </contour>
  </outline>
</glyph>
<glyph name="Ccircumflex" format="2">
  <advance width="1240.0"/>
  <unicode hex="0108"/>
  <outline>
    <contour>
      <point x="479.00000000000006" y="0.0" type="line"/>
      <point x="1074.0" y="0.0" type="line"/>
      <point x="1100.6666666666667" y="173.66666666666669" type="line"/>
      <point x="582.3333333333334" y="173.66666666666669" type="line"/>
      <point x="303.0" y="594.0" type="line"/>
      <point x="303.0" y="872.6666666666667" type="line"/>
      <point x="582.3333333333334" y="1286.3333333333335" type="line"/>
      <point x="1100.6666666666667" y="1286.3333333333335" type="line"/>
      <point x="1074.0" y="1460.0" type="line"/>
      <point x="479.00000000000006" y="1460.0" type="line"/>
      <point x="110.66666666666667" y="932.6666666666667" type="line"/>
      <point x="110.66666666666667" y="534.0" type="line"/>
    </contour>
    <contour>
      <point x="345.0" y="1640.0000000000002" type="line"/>
      <point x="527.0" y="1640.0000000000002" type="line"/>
      <point x="726.6666666666667" y="1844.0000000000002" type="line"/>
      <point x="673.3333333333334" y="1844.0000000000002" type="line"/>
      <point x="873.0000000000001" y="1640.0000000000002" type="line"/>
      <point x="1055.0" y="1640.0000000000002" type="line"/>
      <point x="803.0" y="1881.3333333333335" type="line"/>
      <point x="597.0" y="1881.3333333333335" type="line"/>
    </contour>
  </outline>
</glyph>
<glyph name="edotaccent" format="2">
  <advance width="1240.0"/>
  <unicode hex="0117"/>
  <outline>
    <contour>
      <point x="481.6666666666667" y="0.0" type="line"/>
      <point x="1010.3333333333334" y="0.0" type="line"/>
      <point x="1033.6666666666667" y="149.0" type="line"/>
      <point x="565.6666666666667" y="149.0" type="line"/>
      <point x="335.6666666666667" y="384.33333333333337" type="line"/>
      <point x="335.6666666666667" y="636.3333333333334" type="line"/>
      <point x="529.0" y="885.0" type="line"/>
      <point x="838.3333333333334" y="885.0" type="line"/>
      <point x="920.3333333333335" y="812.3333333333335" type="line"/>
      <point x="920.3333333333335" y="685.0" type="line"/>
      <point x="840.3333333333334" y="611.6666666666667" type="line"/>
      <point x="273.6666666666667" y="611.6666666666667" type="line"/>
      <point x="273.6666666666667" y="483.6666666666667" type="line"/>
      <point x="952.0000000000001" y="483.6666666666667" type="line"/>
      <point x="1079.3333333333335" y="603.6666666666667" type="line"/>
      <point x="1079.3333333333335" y="853.6666666666667" type="line"/>
      <point x="908.3333333333334" y="1027.3333333333335" type="line"/>
      <point x="448.33333333333337" y="1027.3333333333335" type="line"/>
      <point x="156.66666666666669" y="684.3333333333334" type="line"/>
      <point x="156.66666666666669" y="343.0" type="line"/>
    </contour>
    <contour>
      <point x="660.0" y="1261.0" type="line"/>
      <point x="824.0" y="1417.6666666666667" type="line"/>
      <point x="660.0" y="1574.0" type="line"/>
      <point x="495.6666666666667" y="1417.6666666666667" type="line"/>
    </contour>
  </outline>
</glyph>
<glyph name="gdotaccent" format="2">
  <advance width="1240.0"/>
  <unicode hex="0121"/>
  <outline>
    <contour>
      <point x="299.33333333333337" y="-400.0" type="line"/>
      <point x="805.0" y="-400.0" type="line"/>
      <point x="1056.0" y="-101.66666666666667" type="line"/>
      <point x="1056.0" y="1027.3333333333335" type="line"/>
      <point x="873.6666666666667" y="1027.3333333333335" type="line"/>
      <point x="873.6666666666667" y="317.6666666666667" type="line"/>
      <point x="868.6666666666667" y="288.6666666666667" type="line"/>
      <point x="868.6666666666667" y="-50.333333333333336" type="line"/>
      <point x="709.0" y="-241.0" type="line"/>
      <point x="276.0" y="-241.0" type="line"/>
    </contour>
    <contour>
      <point x="448.33333333333337" y="103.66666666666667" type="line"/>
      <point x="970.6666666666667" y="252.33333333333334" type="line"/>
      <point x="970.6666666666667" y="377.33333333333337" type="line"/>
      <point x="505.0" y="265.33333333333337" type="line"/>
      <point x="341.6666666666667" y="419.6666666666667" type="line"/>
      <point x="341.6666666666667" y="649.3333333333334" type="line"/>
      <point x="558.3333333333334" y="867.3333333333335" type="line"/>
      <point x="970.6666666666667" y="867.3333333333335" type="line"/>
      <point x="970.6666666666667" y="1027.6666666666667" type="line"/>
      <point x="472.33333333333337" y="1027.6666666666667" type="line"/>
      <point x="156.0" y="716.6666666666667" type="line"/>
      <point x="156.0" y="362.6666666666667" type="line"/>
    </contour>
    <contour>
      <point x="640.0" y="1261.0" type="line"/>
      <point x="804.0000000000001" y="1417.6666666666667" type="line"/>
      <point x="640.0" y="1574.0" type="line"/>
      <point x="475.6666666666667" y="1417.6666666666667" type="line"/>
    </contour>
  </outline>
</glyph>
<glyph name="Hcircumflex" format="2">
  <advance width="1240.0"/>
  <unicode hex="0124"/>
  <outline>
    <contour>
      <point x="861.6666666666667" y="0.0" type="line"/>
      <point x="1058.0" y="0.0" type="line"/>
      <point x="1058.0" y="1460.0" type="line"/>
      <point x="861.6666666666667" y="1460.0" type="line"/>
    </contour>
    <contour>
      <point x="182.00000000000003" y="0.0" type="line"/>
      <point x="378.33333333333337" y="0.0" type="line"/>
      <point x="378.33333333333337" y="1460.0" type="line"/>
      <point x="182.00000000000003" y="1460.0" type="line"/>
    </contour>
    <contour>
      <point x="273.6666666666667" y="673.3333333333334" type="line"/>
      <point x="967.6666666666667" y="673.3333333333334" type="line"/>
      <point x="967.6666666666667" y="831.0000000000001" type="line"/>
      <point x="273.6666666666667" y="831.0000000000001" type="line"/>
    </contour>
    <contour>
      <point x="265.0" y="1640.0000000000002" type="line"/>
      <point x="447.00000000000006" y="1640.0000000000002" type="line"/>
      <point x="646.6666666666667" y="1844.0000000000002" type="line"/>
      <point x="593.3333333333334" y="1844.0000000000002" type="line"/>
      <point x="793.0" y="1640.0000000000002" type="line"/>
      <point x="975.0000000000001" y="1640.0000000000002" type="line"/>
      <point x="723.0" y="1881.3333333333335" type="line"/>
      <point x="517.0" y="1881.3333333333335" type="line"/>
    </contour>
  </outline>
</glyph>
<glyph name="Ibreve" format="2">
  <advance width="1240.0"/>
  <unicode hex="012C"/>
  <outline>
    <contour>
      <point x="516.3333333333334" y="0.0" type="line"/>
      <point x="710.3333333333334" y="0.0" type="line"/>
      <point x="710.3333333333334" y="1460.0" type="line"/>
      <point x="516.3333333333334" y="1460.0" type="line"/>
    </contour>
    <contour>
      <point x="169.66666666666669" y="0.0" type="line"/>
      <point x="1070.3333333333335" y="0.0" type="line"/>
      <point x="1090.3333333333335" y="163.66666666666669" type="line"/>
      <point x="149.66666666666669" y="163.66666666666669" type="line"/>
    </contour>
    <contour>
      <point x="149.66666666666669" y="1296.3333333333335" type="line"/>
      <point x="1090.3333333333335" y="1296.3333333333335" type="line"/>
      <point x="1070.3333333333335" y="1460.0" type="line"/>
      <point x="169.66666666666669" y="1460.0" type="line"/>
    </contour>
    <contour>
      <point x="466.33333333333337" y="1628.6666666666667" type="line"/>
      <point x="773.6666666666667" y="1628.6666666666667" type="line"/>
      <point x="918.0" y="1757.6666666666667" type="line"/>
      <point x="918.0" y="1881.3333333333335" type="line"/>
      <point x="792.0" y="1881.3333333333335" type="line"/>
      <point x="792.0" y="1804.666666666667" type="line"/>
      <point x="720.3333333333334" y="1741.666666666667" type="line"/>
      <point x="519.6666666666667" y="1741.666666666667" type="line"/>
      <point x="448.0" y="1804.666666666667" type="line"/>
      <point x="448.0" y="1881.3333333333335" type="line"/>
      <point x="322.0" y="1881.3333333333335" type="line"/>
      <point x="322.0" y="1756.6666666666667" type="line"/>
    </contour>
  </outline>
</glyph>
<glyph name="iogonek" format="2">
  <advance width="1240.0"/>
  <unicode hex="012F"/>
  <outline>
    <contour>
      <point x="609.0" y="0.0" type="line"/>
      <point x="800.0" y="0.0" type="line"/>
      <point x="800.0" y="912.3333333333334" type="line"/>
      <point x="697.6666666666667" y="1027.3333333333335" type="line"/>
      <point x="195.66666666666669" y="1027.3333333333335" type="line"/>
      <point x="172.33333333333337" y="861.6666666666667" type="line"/>
      <point x="659.3333333333334" y="861.6666666666667" type="line"/>
      <point x="609.0" y="904.0" type="line"/>
    </contour>
    <contour>
      <point x="551.0" y="1261.0" type="line"/>
      <point x="715.0" y="1417.6666666666667" type="line"/>
      <point x="551.0" y="1574.0" type="line"/>
      <point x="386.66666666666674" y="1417.6666666666667" type="line"/>
    </contour>
    <contour>
      <point x="504.66666666666674" y="-125.66666666666667" type="line"/>
      <point x="504.66666666666674" y="-313.33333333333337" type="line"/>
      <point x="664.3333333333334" y="-414.33333333333337" type="line"/>
      <point x="793.6666666666667" y="-414.33333333333337" type="line"/>
      <point x="793.6666666666667" y="-286.6666666666667" type="line"/>
      <point x="709.0" y="-286.6666666666667" type="line"/>
      <point x="647.0" y="-244.66666666666669" type="line"/>
      <point x="647.0" y="-158.33333333333334" type="line"/>
      <point x="800.0" y="0.0" type="line"/>
      <point x="706.3333333333334" y="39.333333333333336" type="line"/>
    </contour>
  </outline>
</glyph>
<glyph name="kcommaaccent" format="2">
  <advance width="1240.0"/>
  <unicode hex="0137"/>
  <outline>
    <contour>
      <point x="891.0000000000001" y="0.0" type="line"/>
      <point x="1092.0" y="0.0" type="line"/>
      <point x="1092.0" y="209.0" type="line"/>
      <point x="711.6666666666667" y="589.3333333333334" type="line"/>
      <point x="711.6666666666667" y="544.6666666666667" type="line"/>
      <point x="1136.6666666666667" y="1027.3333333333335" type="line"/>
      <point x="927.3333333333335" y="1027.3333333333335" type="line"/>
      <point x="537.0" y="581.0" type="line"/>
      <point x="644.6666666666667" y="629.3333333333334" type="line"/>
      <point x="334.6666666666667" y="629.3333333333334" type="line"/>
      <point x="334.6666666666667" y="475.6666666666667" type="line"/>
      <point x="632.0" y="475.6666666666667" type="line"/>
      <point x="546.3333333333334" y="506.66666666666674" type="line"/>
      <point x="891.0000000000001" y="172.33333333333334" type="line"/>
    </contour>
    <contour>
      <point x="186.66666666666669" y="0.0" type="line"/>
      <point x="378.6666666666667" y="0.0" type="line"/>
      <point x="378.6666666666667" y="1530.0" type="line"/>
      <point x="186.66666666666669" y="1496.6666666666667" type="line"/>
    </contour>
    <contour>
      <point x="500.6666666666667" y="-516.0" type="line"/>
      <point x="683.0" y="-516.0" type="line"/>
      <point x="683.0" y="-453.33333333333337" type="line"/>
      <point x="481.33333333333337" y="-711.6666666666667" type="line"/>
      <point x="573.0" y="-760.0" type="line"/>
      <point x="758.3333333333334" y="-519.3333333333334" type="line"/>
      <point x="758.3333333333334" y="-258.33333333333337" type="line"/>
      <point x="500.6666666666667" y="-258.33333333333337" type="line"/>
    </contour>
  </outline>
</glyph>
<glyph name="lslash" format="2">
  <advance width="1240.0"/>
  <unicode hex="0142"/>
  <outline>
    <contour>
      <point x="239.66666666666669" y="582.0" type="line"/>
      <point x="1000.3333333333334" y="952.6666666666667" type="line"/>
      <point x="1000.3333333333334" y="1122.3333333333335" type="line"/>
      <point x="239.66666666666669" y="751.6666666666667" type="line"/>
    </contour>
    <contour>
      <point x="692.3333333333334" y="-0.3333333333333333" type="line"/>
      <point x="1084.0" y="-0.3333333333333333" type="line"/>
      <point x="1107.3333333333335" y="165.33333333333334" type="line"/>
      <point x="786.3333333333334" y="165.33333333333334" type="line"/>
      <point x="627.0" y="356.0" type="line"/>
      <point x="627.0" y="1415.0" type="line"/>
      <point x="524.6666666666667" y="1530.0" type="line"/>
      <point x="109.33333333333334" y="1530.0" type="line"/>
      <point x="86.00000000000001" y="1364.3333333333335" type="line"/>
      <point x="486.33333333333337" y="1364.3333333333335" type="line"/>
      <point x="441.33333333333337" y="1406.6666666666667" type="line"/>
      <point x="441.33333333333337" y="298.0" type="line"/>
    </contour>
  </outline>
</glyph>
<glyph name="ncaron" format="2">
  <advance width="1240.0"/>
  <unicode hex="0148"/>
  <outline>
    <contour>
      <point x="863.0" y="0.0" type="line"/>
      <point x="1055.3333333333335" y="0.0" type="line"/>
      <point x="1055.3333333333335" y="785.0" type="line"/>
      <point x="795.0" y="1050.6666666666667" type="line"/>
      <point x="258.6666666666667" y="885.3333333333335" type="line"/>
      <point x="258.6666666666667" y="770.3333333333334" type="line"/>
      <point x="728.3333333333334" y="879.0" type="line"/>
      <point x="863.0" y="738.0" type="line"/>
    </contour>
    <contour>
      <point x="184.66666666666669" y="0.0" type="line"/>
      <point x="375.6666666666667" y="0.0" type="line"/>
      <point x="375.6666666666667" y="894.3333333333334" type="line"/>
      <point x="324.33333333333337" y="1027.3333333333335" type="line"/>
      <point x="184.66666666666669" y="1027.3333333333335" type="line"/>
    </contour>
    <contour>
      <point x="265.0" y="1612.3333333333335" type="line"/>
      <point x="437.0" y="1612.3333333333335" type="line"/>
      <point x="650.0" y="1315.0" type="line"/>
      <point x="590.0" y="1315.0" type="line"/>
      <point x="803.0" y="1612.3333333333335" type="line"/>
      <point x="975.0000000000001" y="1612.3333333333335" type="line"/>
      <point x="716.3333333333334" y="1274.3333333333335" type="line"/>
      <point x="523.6666666666667" y="1274.3333333333335" type="line"/>
    </contour>
  </outline>
</glyph>
<glyph name="Eng" format="2">
  <advance width="1240.0"/>
  <unicode hex="014A"/>
  <outline>
    <contour>
      <point x="915.0" y="-123.33333333333334" type="line"/>
      <point x="1069.3333333333335" y="0.0" type="line"/>
      <point x="1069.3333333333335" y="1460.0" type="line"/>
      <point x="902.0000000000001" y="1460.0" type="line"/>
      <point x="902.0000000000001" y="335.0" type="line"/>
      <point x="890.0000000000001" y="335.0" type="line"/>
      <point x="380.33333333333337" y="1460.0" type="line"/>
      <point x="170.66666666666669" y="1460.0" type="line"/>
      <point x="170.66666666666669" y="0.0" type="line"/>
      <point x="338.0" y="0.0" type="line"/>
      <point x="338.0" y="1143.3333333333335" type="line"/>
      <point x="350.0" y="1143.3333333333335" type="line"/>
    </contour>
    <contour>
      <point x="901.3333333333335" y="-400.0" type="line"/>
      <point x="1069.3333333333335" y="-185.0" type="line"/>
      <point x="1069.3333333333335" y="40.0" type="line"/>
      <point x="881.3333333333334" y="40.0" type="line"/>
      <point x="881.3333333333334" y="-127.00000000000001" type="line"/>
      <point x="802.0" y="-234.33333333333334" type="line"/>
      <point x="666.6666666666667" y="-234.33333333333334" type="line"/>
      <point x="690.0" y="-400.0" type="line"/>
    </contour>
  </outline>
</glyph>
<glyph name="oe" format="2">
  <advance width="1240.0"/>
  <unicode hex="0153"/>
  <outline>
    <contour>
      <point x="748.3333333333334" y="1027.3333333333335" type="line"/>
      <point x="552.0" y="776.0" type="line"/>
      <point x="552.0" y="196.66666666666669" type="line"/>
      <point x="799.0" y="0.0" type="line"/>
      <point x="1110.6666666666667" y="0.0" type="line"/>
      <point x="1134.0" y="139.0" type="line"/>
      <point x="859.6666666666667" y="139.0" type="line"/>
      <point x="695.6666666666667" y="269.0" type="line"/>
      <point x="695.6666666666667" y="725.0" type="line"/>
      <point x="821.6666666666667" y="885.0" type="line"/>
      <point x="961.0000000000001" y="885.0" type="line"/>
      <point x="1053.0" y="812.3333333333334" type="line"/>
      <point x="1053.0" y="681.6666666666667" type="line"/>
      <point x="959.6666666666667" y="610.3333333333334" type="line"/>
      <point x="649.6666666666667" y="610.3333333333334" type="line"/>
      <point x="649.6666666666667" y="482.33333333333337" type="line"/>
      <point x="1039.0" y="482.33333333333337" type="line"/>
      <point x="1186.3333333333335" y="603.6666666666667" type="line"/>
      <point x="1186.3333333333335" y="877.0000000000001" type="line"/>
      <point x="1010.3333333333334" y="1027.3333333333335" type="line"/>
    </contour>
    <contour>
      <point x="257.0" y="0.0" type="line"/>
      <point x="481.00000000000006" y="0.0" type="line"/>
      <point x="688.0" y="333.0" type="line"/>
      <point x="688.0" y="694.3333333333334" type="line"/>
      <point x="481.00000000000006" y="1027.3333333333335" type="line"/>
      <point x="257.0" y="1027.3333333333335" type="line"/>
      <point x="54.33333333333334" y="684.3333333333334" type="line"/>
      <point x="54.33333333333334" y="343.0" type="line"/>
    </contour>
    <contour>
      <point x="314.33333333333337" y="159.0" type="line"/>
      <point x="187.0" y="379.0" type="line"/>
      <point x="187.0" y="648.3333333333334" type="line"/>
      <point x="314.33333333333337" y="868.3333333333334" type="line"/>
      <point x="430.33333333333337" y="868.3333333333334" type="line"/>
      <point x="552.0" y="648.3333333333334" type="line"/>
      <point x="552.0" y="379.0" type="line"/>
      <point x="430.33333333333337" y="159.0" type="line"/>
    </contour>
  </outline>
</glyph>
<glyph name="racute" format="2">
  <advance width="1240.0"/>
  <unicode hex="0155"/>
  <outline>
    <contour>
      <point x="870.3333333333334" y="598.0" type="line"/>
      <point x="1062.6666666666667" y="626.6666666666667" type="line"/>
      <point x="1060.0" y="798.3333333333334" type="line"/>
      <point x="805.6666666666667" y="1050.6666666666667" type="line"/>
      <point x="263.33333333333337" y="868.6666666666667" type="line"/>
      <point x="263.33333333333337" y="767.0" type="line"/>
      <point x="742.3333333333334" y="882.3333333333334" type="line"/>
      <point x="870.3333333333334" y="741.0" type="line"/>
    </contour>
    <contour>
      <point x="184.66666666666669" y="0.0" type="line"/>
      <point x="375.6666666666667" y="0.0" type="line"/>
      <point x="375.6666666666667" y="874.3333333333334" type="line"/>
      <point x="324.33333333333337" y="1027.3333333333335" type="line"/>
      <point x="184.66666666666669" y="1027.3333333333335" type="line"/>
    </contour>
    <contour>
      <point x="694.6666666666667" y="1274.3333333333335" type="line"/>
      <point x="535.6666666666667" y="1274.3333333333335" type="line"/>
      <point x="744.6666666666667" y="1612.3333333333335" type="line"/>
      <point x="946.3333333333335" y="1612.3333333333335" type="line"/>
    </contour>
  </outline>
</glyph>
<glyph name="uhungarumlaut" format="2">
  <advance width="1240.0"/>
  <unicode hex="0171"/>
  <outline>
    <contour>
      <point x="377.0" y="1027.3333333333335" type="line"/>
      <point x="184.66666666666669" y="1027.3333333333335" type="line"/>
      <point x="184.66666666666669" y="242.33333333333337" type="line"/>
      <point x="445.0" y="-23.333333333333336" type="line"/>
      <point x="981.3333333333334" y="142.0" type="line"/>
      <point x="981.3333333333334" y="257.0" type="line"/>
      <point x="511.6666666666667" y="148.33333333333334" type="line"/>
      <point x="377.0" y="289.33333333333337" type="line"/>
    </contour>
    <contour>
      <point x="1055.3333333333335" y="1027.3333333333335" type="line"/>
      <point x="864.3333333333334" y="1027.3333333333335" type="line"/>
      <point x="864.3333333333334" y="133.0" type="line"/>
      <point x="915.6666666666667" y="0.0" type="line"/>
      <point x="1055.3333333333335" y="0.0" type="line"/>
    </contour>
    <contour>
      <point x="737.6666666666667" y="1274.3333333333335" type="line"/>
      <point x="872.6666666666667" y="1274.3333333333335" type="line"/>
      <point x="1045.3333333333335" y="1612.3333333333335" type="line"/>
      <point x="877.0" y="1612.3333333333335" type="line"/>
    </contour>
    <contour>
      <point x="355.6666666666667" y="1274.3333333333335" type="line"/>
      <point x="491.6666666666667" y="1274.3333333333335" type="line"/>
      <point x="663.3333333333334" y="1612.3333333333335" type="line"/>
      <point x="496.00000000000006" y="1612.3333333333335" type="line"/>
    </contour>
  </outline>
</glyph>
<glyph name="Schwa" format="2">
  <advance width="1240.0"/>
  <unicode hex="018F"/>
  <outline>
    <contour>
      <point x="303.33333333333337" y="0.0" type="line"/>
      <point x="743.6666666666667" y="0.0" type="line"/>
      <point x="1118.6666666666667" y="536.0" type="line"/>
      <point x="1118.6666666666667" y="930.6666666666667" type="line"/>
      <point x="750.3333333333334" y="1460.0" type="line"/>
      <point x="192.0" y="1460.0" type="line"/>
      <point x="168.66666666666669" y="1286.3333333333335" type="line"/>
      <point x="649.6666666666667" y="1286.3333333333335" type="line"/>
      <point x="926.3333333333334" y="872.6666666666667" type="line"/>
      <point x="926.3333333333334" y="594.0" type="line"/>
      <point x="643.0" y="173.66666666666669" type="line"/>
      <point x="386.0" y="173.66666666666669" type="line"/>
      <point x="274.0" y="292.0" type="line"/>
      <point x="274.0" y="577.6666666666667" type="line"/>
      <point x="394.6666666666667" y="696.6666666666667" type="line"/>
      <point x="1013.3333333333334" y="696.6666666666667" type="line"/>
      <point x="1013.3333333333334" y="845.0000000000001" type="line"/>
      <point x="311.33333333333337" y="845.0000000000001" type="line"/>
      <point x="110.66666666666667" y="634.3333333333334" type="line"/>
      <point x="110.66666666666667" y="211.66666666666669" type="line"/>
    </contour>
  </outline>
</glyph>
<glyph name="Nhookleft" format="2">
  <advance width="1240.0"/>
  <unicode hex="019D"/>
  <outline>
    <contour>
      <point x="364.33333333333337" y="50.0" type="line"/>
      <point x="182.00000000000003" y="50.0" type="line"/>
      <point x="182.00000000000003" y="-127.00000000000001" type="line"/>
      <point x="103.33333333333334" y="-234.33333333333334" type="line"/>
      <point x="-32.0" y="-234.33333333333334" type="line"/>
      <point x="-8.666666666666666" y="-400.0" type="line"/>
      <point x="202.66666666666669" y="-400.0" type="line"/>
      <point x="364.33333333333337" y="-185.0" type="line"/>
    </contour>
    <contour>
      <point x="182.00000000000003" y="0.0" type="line"/>
      <point x="364.33333333333337" y="0.0" type="line"/>
      <point x="364.33333333333337" y="1084.6666666666667" type="line"/>
      <point x="376.33333333333337" y="1084.6666666666667" type="line"/>
      <point x="894.3333333333335" y="0.6666666666666667" type="line"/>
      <point x="1058.0" y="0.6666666666666667" type="line"/>
      <point x="1058.0" y="1460.6666666666667" type="line"/>
      <point x="875.6666666666667" y="1460.6666666666667" type="line"/>
      <point x="875.6666666666667" y="399.6666666666667" type="line"/>
      <point x="863.6666666666667" y="399.6666666666667" type="line"/>
      <point x="356.33333333333337" y="1460.0" type="line"/>
      <point x="182.00000000000003" y="1460.0" type="line"/>
    </contour>
  </outline>
</glyph>
<glyph name="Tcommaaccent" format="2">
  <advance width="1240.0"/>
  <unicode hex="021A"/>
  <outline>
    <contour>
      <point x="517.3333333333334" y="0.0" type="line"/>
      <point x="711.3333333333334" y="0.0" type="line"/>
      <point x="711.3333333333334" y="1460.0" type="line"/>
      <point x="517.3333333333334" y="1460.0" type="line"/>
    </contour>
    <contour>
      <point x="95.00000000000001" y="1296.3333333333335" type="line"/>
      <point x="1144.3333333333335" y="1296.3333333333335" type="line"/>
      <point x="1127.6666666666667" y="1460.0" type="line"/>
      <point x="111.66666666666669" y="1460.0" type="line"/>
    </contour>
    <contour>
      <point x="496.6666666666667" y="-516.0" type="line"/>
      <point x="679.0" y="-516.0" type="line"/>
      <point x="679.0" y="-453.33333333333337" type="line"/>
      <point x="477.33333333333337" y="-711.6666666666667" type="line"/>
      <point x="569.0" y="-760.0" type="line"/>
      <point x="754.3333333333334" y="-519.3333333333334" type="line"/>
      <point x="754.3333333333334" y="-258.33333333333337" type="line"/>
      <point x="496.6666666666667" y="-258.33333333333337" type="line"/>
    </contour>
  </outline>
</glyph>
<glyph name="tcommaaccent" format="2">
  <advance width="1240.0"/>
  <unicode hex="021B"/>
  <outline>
    <contour>
      <point x="608.0" y="-0.3333333333333333" type="line"/>
      <point x="1066.6666666666667" y="-0.3333333333333333" type="line"/>
      <point x="1066.6666666666667" y="158.66666666666669" type="line"/>
      <point x="702.0" y="158.66666666666669" type="line"/>
      <point x="542.6666666666667" y="356.0" type="line"/>
      <point x="542.6666666666667" y="1307.6666666666667" type="line"/>
      <point x="357.00000000000006" y="1274.3333333333335" type="line"/>
      <point x="357.00000000000006" y="298.0" type="line"/>
    </contour>
    <contour>
      <point x="108.0" y="777.0" type="line"/>
      <point x="1066.6666666666667" y="777.0" type="line"/>
      <point x="1066.6666666666667" y="929.6666666666667" type="line"/>
      <point x="108.0" y="929.6666666666667" type="line"/>
    </contour>
    <contour>
      <point x="602.6666666666667" y="-516.0" type="line"/>
      <point x="785.0" y="-516.0" type="line"/>
      <point x="785.0" y="-453.33333333333337" type="line"/>
      <point x="583.3333333333334" y="-711.6666666666667" type="line"/>
      <point x="675.0" y="-760.0" type="line"/>
      <point x="860.3333333333335" y="-519.3333333333334" type="line"/>
      <point x="860.3333333333335" y="-258.33333333333337" type="line"/>
      <point x="602.6666666666667" y="-258.33333333333337" type="line"/>
    </contour>
  </outline>
</glyph>
<glyph name="circumflex" format="2">
  <advance width="1240.0"/>
  <unicode hex="02C6"/>
  <outline>
    <contour>
      <point x="265.0" y="1274.3333333333335" type="line"/>
      <point x="437.0" y="1274.3333333333335" type="line"/>
      <point x="650.0" y="1571.6666666666667" type="line"/>
      <point x="590.0" y="1571.6666666666667" type="line"/>
      <point x="803.0" y="1274.3333333333335" type="line"/>
      <point x="975.0000000000001" y="1274.3333333333335" type="line"/>
      <point x="716.3333333333334" y="1612.3333333333335" type="line"/>
      <point x="523.6666666666667" y="1612.3333333333335" type="line"/>
    </contour>
  </outline>
</glyph>
<glyph name="ring" format="2">
  <advance width="1240.0"/>
  <unicode hex="02DA"/>
  <outline>
    <contour>
      <point x="533.0" y="1213.3333333333335" type="line"/>
      <point x="707.0" y="1213.3333333333335" type="line"/>
      <point x="853.6666666666667" y="1373.6666666666667" type="line"/>
      <point x="853.6666666666667" y="1519.6666666666667" type="line"/>
      <point x="707.0" y="1679.0000000000002" type="line"/>
      <point x="533.0" y="1679.0000000000002" type="line"/>
      <point x="386.33333333333337" y="1518.6666666666667" type="line"/>
      <point x="386.33333333333337" y="1372.6666666666667" type="line"/>
    </contour>
    <contour>
      <point x="490.6666666666667" y="1415.3333333333335" type="line"/>
      <point x="490.6666666666667" y="1477.3333333333335" type="line"/>
      <point x="582.6666666666667" y="1580.0" type="line"/>
      <point x="657.3333333333334" y="1580.0" type="line"/>
      <point x="749.3333333333334" y="1477.3333333333335" type="line"/>
      <point x="749.3333333333334" y="1415.3333333333335" type="line"/>
      <point x="657.3333333333334" y="1312.3333333333335" type="line"/>
      <point x="582.6666666666667" y="1312.3333333333335" type="line"/>
    </contour>
  </outline>
</glyph>
<glyph name="acutecomb" format="2">
  <unicode hex="0301"/>
  <outline>
    <contour>
      <point x="694.6666666666667" y="1274.3333333333335" type="line"/>
      <point x="535.6666666666667" y="1274.3333333333335" type="line"/>
      <point x="744.6666666666667" y="1612.3333333333335" type="line"/>
      <point x="946.3333333333335" y="1612.3333333333335" type="line"/>
    </contour>
  </outline>
</glyph>
<glyph name="macroncomb" format="2">
  <unicode hex="0304"/>
  <outline>
    <contour>
      <point x="299.0" y="1325.6666666666667" type="line"/>
      <point x="941.0000000000001" y="1325.6666666666667" type="line"/>
      <point x="941.0000000000001" y="1456.6666666666667" type="line"/>
      <point x="299.0" y="1456.6666666666667" type="line"/>
    </contour>
  </outline>
</glyph>
<glyph name="dotaccentcomb" format="2">
  <unicode hex="0307"/>
  <outline>
    <contour>
      <point x="620.0" y="1261.0" type="line"/>
      <point x="784.0" y="1417.6666666666667" type="line"/>
      <point x="620.0" y="1574.0" type="line"/>
      <point x="455.66666666666674" y="1417.6666666666667" type="line"/>
    </contour>
  </outline>
</glyph>
<glyph name="Adotbelow" format="2">
  <advance width="1240.0"/>
  <unicode hex="1EA0"/>
  <outline>
    <contour>
      <point x="182.00000000000003" y="0.0" type="line"/>
      <point x="375.0" y="0.0" type="line"/>
      <point x="375.0" y="825.6666666666667" type="line"/>
      <point x="647.0" y="1340.3333333333335" type="line"/>
      <point x="593.0" y="1340.3333333333335" type="line"/>
      <point x="865.0" y="828.3333333333334" type="line"/>
      <point x="865.0" y="0.0" type="line"/>
      <point x="1058.0" y="0.0" type="line"/>
      <point x="1058.0" y="885.0000000000001" type="line"/>
      <point x="736.3333333333334" y="1460.0" type="line"/>
      <point x="503.6666666666667" y="1460.0" type="line"/>
      <point x="182.00000000000003" y="885.0000000000001" type="line"/>
    </contour>
    <contour>
      <point x="303.6666666666667" y="400.33333333333337" type="line"/>
      <point x="942.6666666666667" y="400.33333333333337" type="line"/>
      <point x="942.6666666666667" y="547.0" type="line"/>
      <point x="303.6666666666667" y="547.0" type="line"/>
    </contour>
    <contour>
      <point x="620.0" y="-540.0" type="line"/>
      <point x="784.0" y="-383.33333333333337" type="line"/>
      <point x="620.0" y="-227.0" type="line"/>
      <point x="455.66666666666674" y="-383.33333333333337" type="line"/>
    </contour>
  </outline>
</glyph>
<glyph name="Edotbelow" format="2">
  <advance width="1240.0"/>
  <unicode hex="1EB8"/>
  <outline>
    <contour>
      <point x="385.6666666666667" y="0.0" type="line"/>
      <point x="385.6666666666667" y="1460.0" type="line"/>
      <point x="192.0" y="1460.0" type="line"/>
      <point x="192.0" y="0.0" type="line"/>
    </contour>
    <contour>
      <point x="1082.6666666666667" y="163.66666666666669" type="line"/>
      <point x="302.33333333333337" y="163.66666666666669" type="line"/>
      <point x="302.33333333333337" y="0.0" type="line"/>
      <point x="1059.3333333333335" y="0.0" type="line"/>
    </contour>
    <contour>
      <point x="922.3333333333335" y="808.0" type="line"/>
      <point x="312.33333333333337" y="808.0" type="line"/>
      <point x="312.33333333333337" y="652.3333333333334" type="line"/>
      <point x="922.3333333333335" y="652.3333333333334" type="line"/>
    </contour>
    <contour>
      <point x="1046.0" y="1296.3333333333335" type="line"/>
      <point x="1022.6666666666667" y="1460.0" type="line"/>
      <point x="302.33333333333337" y="1460.0" type="line"/>
      <point x="302.33333333333337" y="1296.3333333333335" type="line"/>
    </contour>
    <contour>
      <point x="620.0" y="-540.0" type="line"/>
      <point x="784.0" y="-383.33333333333337" type="line"/>
      <point x="620.0" y="-227.0" type="line"/>
      <point x="455.66666666666674" y="-383.33333333333337" type="line"/>
    </contour>
  </outline>
</glyph>
<glyph name="Odotbelow" format="2">
  <advance width="1240.0"/>
  <unicode hex="1ECC"/>
  <outline>
    <contour>
      <point x="485.66666666666674" y="0.0" type="line"/>
      <point x="753.6666666666667" y="0.0" type="line"/>
      <point x="1129.3333333333335" y="536.0" type="line"/>
      <point x="1129.3333333333335" y="930.6666666666667" type="line"/>
      <point x="767.0" y="1460.0" type="line"/>
      <point x="485.66666666666674" y="1460.0" type="line"/>
      <point x="110.66666666666667" y="930.6666666666667" type="line"/>
      <point x="110.66666666666667" y="536.0" type="line"/>
    </contour>
    <contour>
      <point x="573.0" y="177.0" type="line"/>
      <point x="303.0" y="594.0" type="line"/>
      <point x="303.0" y="872.6666666666667" type="line"/>
      <point x="578.3333333333334" y="1283.0" type="line"/>
      <point x="671.6666666666667" y="1283.0" type="line"/>
      <point x="937.0000000000001" y="872.6666666666667" type="line"/>
      <point x="937.0000000000001" y="594.0" type="line"/>
      <point x="666.3333333333334" y="177.0" type="line"/>
    </contour>
    <contour>
      <point x="620.0" y="-540.0" type="line"/>
      <point x="784.0" y="-383.33333333333337" type="line"/>
      <point x="620.0" y="-227.0" type="line"/>
      <point x="455.66666666666674" y="-383.33333333333337" type="line"/>
    </contour>
  </outline>
</glyph>
<glyph name="endash" format="2">
  <advance width="1240.0"/>
  <unicode hex="2013"/>
  <outline>
    <contour>
      <point x="160.0" y="573.0" type="line"/>
      <point x="1080.0" y="573.0" type="line"/>
      <point x="1080.0" y="736.6666666666667" type="line"/>
      <point x="160.0" y="736.6666666666667" type="line"/>
    </contour>
  </outline>
</glyph>
<glyph name="quoteleft" format="2">
  <advance width="1240.0"/>
  <unicode hex="2018"/>
  <outline>
    <contour>
      <point x="617.3333333333334" y="1086.6666666666667" type="curve" smooth="yes"/>
      <point x="586.0" y="1086.6666666666667"/>
      <point x="554.3333333333334" y="1080.6666666666667"/>
      <point x="521.6666666666667" y="1065.0" type="curve"/>
      <point x="559.0" y="1025.0" type="line"/>
      <point x="574.3333333333334" y="1166.6666666666667"/>
      <point x="674.3333333333334" y="1290.3333333333335"/>
      <point x="825.3333333333334" y="1415.6666666666667" type="curve"/>
      <point x="729.6666666666667" y="1494.0" type="line"/>
      <point x="566.0" y="1369.0"/>
      <point x="416.0" y="1182.3333333333335"/>
      <point x="416.0" y="968.6666666666667" type="curve" smooth="yes"/>
      <point x="416.0" y="801.0"/>
      <point x="508.33333333333337" y="726.0"/>
      <point x="620.6666666666667" y="726.0" type="curve" smooth="yes"/>
      <point x="725.3333333333334" y="726.0"/>
      <point x="806.6666666666667" y="791.3333333333334"/>
      <point x="806.6666666666667" y="905.0000000000001" type="curve" smooth="yes"/>
      <point x="806.6666666666667" y="1016.6666666666667"/>
      <point x="728.3333333333334" y="1086.6666666666667"/>
    </contour>
  </outline>
</glyph>
<glyph name="quotesinglbase" format="2">
  <advance width="1240.0"/>
  <unicode hex="201A"/>
  <outline>
    <contour>
      <point x="622.6666666666667" y="-35.333333333333336" type="curve" smooth="yes"/>
      <point x="654.0" y="-35.333333333333336"/>
      <point x="685.6666666666667" y="-29.333333333333336"/>
      <point x="718.3333333333334" y="-13.666666666666668" type="curve"/>
      <point x="681.0" y="26.333333333333336" type="line"/>
      <point x="665.6666666666667" y="-115.33333333333334"/>
      <point x="565.6666666666667" y="-239.0"/>
      <point x="414.6666666666667" y="-364.33333333333337" type="curve"/>
      <point x="510.33333333333337" y="-442.6666666666667" type="line"/>
      <point x="674.0" y="-317.6666666666667"/>
      <point x="824.0000000000001" y="-131.0"/>
      <point x="824.0000000000001" y="82.66666666666666" type="curve" smooth="yes"/>
      <point x="824.0000000000001" y="250.33333333333337"/>
      <point x="731.6666666666667" y="325.33333333333337"/>
      <point x="619.3333333333334" y="325.33333333333337" type="curve" smooth="yes"/>
      <point x="514.6666666666667" y="325.33333333333337"/>
      <point x="433.33333333333337" y="260.0"/>
      <point x="433.33333333333337" y="146.33333333333334" type="curve" smooth="yes"/>
      <point x="433.33333333333337" y="34.66666666666667"/>
      <point x="511.6666666666667" y="-35.333333333333336"/>
    </contour>
  </outline>
</glyph>
<glyph name="twoinferior" format="2">
  <advance width="1240.0"/>
  <unicode hex="2082"/>
  <outline>
    <contour>
      <point x="593.0" y="283.6666666666667" type="curve" smooth="yes"/>
      <point x="458.0" y="283.6666666666667"/>
      <point x="373.66666666666674" y="221.33333333333334"/>
      <point x="375.6666666666667" y="115.66666666666667" type="curve"/>
      <point x="486.6666666666667" y="105.33333333333334" type="line"/>
      <point x="494.0" y="170.66666666666669"/>
      <point x="532.6666666666667" y="192.00000000000003"/>
      <point x="600.6666666666667" y="192.00000000000003" type="curve" smooth="yes"/>
      <point x="660.3333333333334" y="192.00000000000003"/>
      <point x="696.6666666666667" y="173.33333333333334"/>
      <point x="696.6666666666667" y="122.33333333333334" type="curve" smooth="yes"/>
      <point x="696.6666666666667" y="60.66666666666667"/>
      <point x="635.0" y="37.33333333333333"/>
      <point x="570.0" y="7.333333333333332" type="curve" smooth="yes"/>
      <point x="458.6666666666667" y="-43.0"/>
      <point x="376.6666666666667" y="-92.33333333333334"/>
      <point x="376.6666666666667" y="-183.33333333333334" type="curve" smooth="yes"/>
      <point x="376.6666666666667" y="-280.0" type="line"/>
      <point x="833.6666666666667" y="-280.0" type="line"/>
      <point x="833.6666666666667" y="-183.33333333333334" type="line"/>
      <point x="470.0" y="-183.33333333333334" type="line"/>
      <point x="490.00000000000006" y="-202.33333333333334" type="line"/>
      <point x="488.00000000000006" y="-145.0"/>
      <point x="523.0" y="-124.0"/>
      <point x="622.6666666666667" y="-77.33333333333334" type="curve" smooth="yes"/>
      <point x="704.3333333333334" y="-39.66666666666667"/>
      <point x="816.3333333333334" y="4.333333333333334"/>
      <point x="816.3333333333334" y="127.33333333333334" type="curve" smooth="yes"/>
      <point x="816.3333333333334" y="237.33333333333334"/>
      <point x="725.3333333333334" y="283.6666666666667"/>
    </contour>
  </outline>
</glyph>
<glyph name="fourinferior" format="2">
  <advance width="1240.0"/>
  <unicode hex="2084"/>
  <outline>
    <contour>
      <point x="782.6666666666667" y="-280.0" type="line"/>
      <point x="782.6666666666667" y="275.0" type="line"/>
      <point x="657.0" y="275.0" type="line"/>
      <point x="368.33333333333337" y="-53.00000000000001" type="line"/>
      <point x="368.33333333333337" y="-149.0" type="line"/>
      <point x="857.6666666666667" y="-149.0" type="line"/>
      <point x="857.6666666666667" y="-53.00000000000001" type="line"/>
      <point x="736.0" y="-53.00000000000001" type="line"/>
      <point x="703.6666666666667" y="-63.0" type="line"/>
      <point x="441.66666666666674" y="-63.0" type="line"/>
      <point x="466.0" y="-80.33333333333334" type="line"/>
      <point x="693.6666666666667" y="167.33333333333334" type="line"/>
      <point x="666.0" y="173.33333333333334" type="line"/>
      <point x="666.0" y="-280.0" type="line"/>
    </contour>
  </outline>
</glyph>
<glyph name="liraTurkish" format="2">
  <advance width="1240.0"/>
  <unicode hex="20BA"/>
  <outline>
    <contour>
      <point x="423.33333333333337" y="1460.0" type="line"/>
      <point x="227.0" y="1460.0" type="line"/>
      <point x="227.0" y="0.0" type="line"/>
      <point x="423.33333333333337" y="0.0" type="line"/>
    </contour>
    <contour>
      <point x="1130.6666666666667" y="685.6666666666667" type="curve"/>
      <point x="934.0000000000001" y="685.6666666666667" type="line"/>
      <point x="917.3333333333334" y="318.33333333333337"/>
      <point x="751.3333333333334" y="153.0"/>
      <point x="399.0" y="153.0" type="curve" smooth="yes"/>
      <point x="360.6666666666667" y="153.0" type="line"/>
      <point x="360.6666666666667" y="0.0" type="line"/>
      <point x="430.6666666666667" y="0.0" type="line" smooth="yes"/>
      <point x="858.0000000000001" y="0.0"/>
      <point x="1114.0" y="200.33333333333331"/>
    </contour>
    <contour>
      <point x="784.6666666666666" y="1136.0" type="line"/>
      <point x="784.6666666666666" y="1260.0" type="line"/>
      <point x="50.0" y="986.6666666666667" type="line"/>
      <point x="50.0" y="862.6666666666667" type="line"/>
    </contour>
    <contour>
      <point x="784.6666666666666" y="858.3333333333335" type="line"/>
      <point x="784.6666666666666" y="982.3333333333334" type="line"/>
      <point x="50.0" y="709.0" type="line"/>
      <point x="50.0" y="585.0" type="line"/>
    </contour>
  </outline>
</glyph>
<glyph name="trademark" format="2">
  <advance width="1240.0"/>
  <unicode hex="2122"/>
  <outline>
    <contour>
      <point x="347.0" y="859.6666666666667" type="line"/>
      <point x="347.0" y="1530.0" type="line"/>
      <point x="227.0" y="1530.0" type="line"/>
      <point x="227.0" y="859.6666666666667" type="line"/>
    </contour>
    <contour>
      <point x="78.0" y="1420.3333333333335" type="line"/>
      <point x="495.33333333333337" y="1420.3333333333335" type="line"/>
      <point x="495.33333333333337" y="1530.0" type="line"/>
      <point x="78.0" y="1530.0" type="line"/>
    </contour>
    <contour>
      <point x="587.6666666666667" y="1530.0" type="line"/>
      <point x="587.6666666666667" y="859.6666666666667" type="line"/>
      <point x="704.3333333333334" y="859.6666666666667" type="line"/>
      <point x="704.3333333333334" y="1293.3333333333335" type="line"/>
      <point x="709.6666666666667" y="1293.3333333333335" type="line"/>
      <point x="837.3333333333334" y="1031.3333333333335" type="line"/>
      <point x="871.6666666666667" y="1031.3333333333335" type="line"/>
      <point x="999.6666666666667" y="1293.3333333333335" type="line"/>
      <point x="1005.6666666666667" y="1293.3333333333335" type="line"/>
      <point x="1005.6666666666667" y="859.6666666666667" type="line"/>
      <point x="1122.3333333333335" y="859.6666666666667" type="line"/>
      <point x="1122.3333333333335" y="1530.0" type="line"/>
      <point x="1001.6666666666667" y="1530.0" type="line"/>
      <point x="861.0" y="1235.3333333333335" type="line"/>
      <point x="855.0" y="1235.3333333333335" type="line"/>
      <point x="714.6666666666667" y="1530.0" type="line"/>
    </contour>
  </outline>
</glyph>
<glyph name="fiveeighths" format="2">
  <advance width="1240.0"/>
  <unicode hex="215D"/>
  <outline>
    <contour>
      <point x="145.33333333333334" y="1460.0" type="line"/>
      <point x="103.0" y="1160.3333333333335" type="line"/>
      <point x="209.0" y="1146.3333333333335" type="line"/>
      <point x="238.33333333333337" y="1173.0"/>
      <point x="282.33333333333337" y="1188.0"/>
      <point x="328.0" y="1188.0" type="curve" smooth="yes"/>
      <point x="408.6666666666667" y="1188.0"/>
      <point x="446.00000000000006" y="1150.3333333333335"/>
      <point x="446.00000000000006" y="1090.0" type="curve" smooth="yes"/>
      <point x="446.00000000000006" y="1017.6666666666667"/>
      <point x="402.33333333333337" y="990.6666666666667"/>
      <point x="326.33333333333337" y="990.6666666666667" type="curve" smooth="yes"/>
      <point x="259.6666666666667" y="990.6666666666667"/>
      <point x="216.0" y="1009.0000000000001"/>
      <point x="204.66666666666669" y="1072.3333333333335" type="curve"/>
      <point x="90.66666666666669" y="1061.3333333333335" type="line"/>
      <point x="92.0" y="943.6666666666667"/>
      <point x="185.0" y="896.3333333333334"/>
      <point x="326.6666666666667" y="896.3333333333334" type="curve" smooth="yes"/>
      <point x="475.33333333333337" y="896.3333333333334"/>
      <point x="565.3333333333334" y="955.3333333333334"/>
      <point x="565.3333333333334" y="1088.0" type="curve" smooth="yes"/>
      <point x="565.3333333333334" y="1203.0"/>
      <point x="486.0" y="1262.6666666666667"/>
      <point x="355.6666666666667" y="1262.6666666666667" type="curve" smooth="yes"/>
      <point x="292.33333333333337" y="1262.6666666666667"/>
      <point x="246.33333333333334" y="1249.3333333333335"/>
      <point x="205.33333333333337" y="1228.3333333333335" type="curve"/>
      <point x="215.0" y="1209.0" type="line"/>
      <point x="247.33333333333334" y="1396.0" type="line"/>
      <point x="218.33333333333337" y="1363.0" type="line"/>
      <point x="531.6666666666667" y="1363.0" type="line"/>
      <point x="531.6666666666667" y="1460.0" type="line"/>
    </contour>
    <contour>
      <point x="1005.0" y="1145.3333333333335" type="line"/>
      <point x="219.00000000000003" y="393.0" type="line"/>
      <point x="307.33333333333337" y="303.33333333333337" type="line"/>
      <point x="1093.3333333333335" y="1055.6666666666667" type="line"/>
    </contour>
    <contour>
      <point x="935.0" y="564.0" type="curve" smooth="yes"/>
      <point x="801.6666666666667" y="563.6666666666667"/>
      <point x="710.3333333333334" y="514.6666666666667"/>
      <point x="710.3333333333334" y="411.6666666666667" type="curve" smooth="yes"/>
      <point x="710.3333333333334" y="334.6666666666667"/>
      <point x="781.6666666666667" y="279.33333333333337"/>
      <point x="885.3333333333335" y="248.00000000000003" type="curve" smooth="yes"/>
      <point x="983.6666666666667" y="218.0"/>
      <point x="1054.3333333333335" y="195.33333333333334"/>
      <point x="1054.3333333333335" y="150.0" type="curve" smooth="yes"/>
      <point x="1054.3333333333335" y="109.0"/>
      <point x="1011.0" y="82.66666666666667"/>
      <point x="938.0" y="82.66666666666667" type="curve" smooth="yes"/>
      <point x="870.3333333333334" y="82.66666666666667"/>
      <point x="806.0" y="97.33333333333334"/>
      <point x="806.0" y="157.66666666666669" type="curve" smooth="yes"/>
      <point x="806.0" y="225.0"/>
      <point x="889.3333333333335" y="245.33333333333334"/>
      <point x="942.3333333333334" y="267.0" type="curve"/>
      <point x="893.6666666666667" y="303.0" type="line"/>
      <point x="781.3333333333334" y="279.33333333333337"/>
      <point x="690.3333333333334" y="236.33333333333334"/>
      <point x="690.3333333333334" y="146.33333333333334" type="curve" smooth="yes"/>
      <point x="690.3333333333334" y="39.66666666666667"/>
      <point x="770.6666666666667" y="-8.666666666666668"/>
      <point x="933.6666666666667" y="-8.666666666666668" type="curve" smooth="yes"/>
      <point x="1090.0" y="-8.666666666666668"/>
      <point x="1178.3333333333335" y="43.0"/>
      <point x="1178.3333333333335" y="154.33333333333334" type="curve" smooth="yes"/>
      <point x="1178.3333333333335" y="244.33333333333334"/>
      <point x="1082.0" y="290.0"/>
      <point x="969.6666666666667" y="320.6666666666667" type="curve" smooth="yes"/>
      <point x="875.6666666666667" y="346.33333333333337"/>
      <point x="825.6666666666667" y="375.33333333333337"/>
      <point x="825.6666666666667" y="413.33333333333337" type="curve" smooth="yes"/>
      <point x="825.6666666666667" y="458.33333333333337"/>
      <point x="866.6666666666667" y="475.0"/>
      <point x="932.3333333333335" y="475.0" type="curve" smooth="yes"/>
      <point x="1003.3333333333334" y="475.0"/>
      <point x="1051.0" y="455.0"/>
      <point x="1051.0" y="407.66666666666674" type="curve" smooth="yes"/>
      <point x="1051.0" y="344.0"/>
      <point x="968.6666666666667" y="329.0"/>
      <point x="916.0000000000001" y="310.0" type="curve"/>
      <point x="975.6666666666667" y="265.6666666666667" type="line"/>
      <point x="1057.0" y="283.0"/>
      <point x="1159.0" y="320.0"/>
      <point x="1159.0" y="416.0" type="curve" smooth="yes"/>
      <point x="1159.0" y="514.6666666666667"/>
      <point x="1064.3333333333335" y="564.3333333333334"/>
    </contour>
  </outline>
</glyph>
<glyph name="rightOverLeftArrow" format="2">
  <advance width="1240.0"/>
  <unicode hex="21C4"/>
  <outline>
    <contour>
      <point x="60.00000000000001" y="410.0" type="line"/>
      <point x="433.66666666666674" y="34.00000000000001" type="line"/>
      <point x="536.6666666666667" y="137.0" type="line"/>
      <point x="228.66666666666666" y="442.6666666666667" type="line"/>
      <point x="228.66666666666666" y="376.6666666666667" type="line"/>
      <point x="536.6666666666667" y="682.3333333333334" type="line"/>
      <point x="433.66666666666674" y="785.3333333333335" type="line"/>
    </contour>
    <contour>
      <point x="200.33333333333334" y="332.33333333333337" type="line"/>
      <point x="1142.0" y="332.33333333333337" type="line"/>
      <point x="1142.0" y="487.66666666666674" type="line"/>
      <point x="200.33333333333334" y="487.66666666666674" type="line"/>
    </contour>
    <contour>
      <point x="315.66666666666663" y="583.0" type="line"/>
      <point x="231.33333333333334" y="410.0" type="line"/>
      <point x="316.33333333333337" y="237.0" type="line"/>
      <point x="395.33333333333337" y="410.0" type="line"/>
    </contour>
    <contour>
      <point x="1180.0" y="1050.0" type="line"/>
      <point x="806.3333333333334" y="1426.0" type="line"/>
      <point x="703.3333333333334" y="1323.0" type="line"/>
      <point x="1011.3333333333334" y="1017.3333333333335" type="line"/>
      <point x="1011.3333333333334" y="1083.3333333333335" type="line"/>
      <point x="703.3333333333334" y="777.6666666666667" type="line"/>
      <point x="806.3333333333334" y="674.6666666666667" type="line"/>
    </contour>
    <contour>
      <point x="1039.6666666666667" y="1127.6666666666667" type="line"/>
      <point x="98.0" y="1127.6666666666667" type="line"/>
      <point x="98.0" y="972.3333333333334" type="line"/>
      <point x="1039.6666666666667" y="972.3333333333334" type="line"/>
    </contour>
    <contour>
      <point x="924.3333333333334" y="877.0" type="line"/>
      <point x="1008.6666666666667" y="1050.0" type="line"/>
      <point x="923.6666666666667" y="1223.0" type="line"/>
      <point x="844.6666666666667" y="1050.0" type="line"/>
    </contour>
  </outline>
</glyph>
<glyph name="universal" format="2">
  <advance width="1240.0"/>
  <unicode hex="2200"/>
  <outline>
    <contour>
      <point x="54.00000000000001" y="1027.3333333333335" type="line"/>
      <point x="525.3333333333334" y="0.0" type="line"/>
      <point x="716.6666666666667" y="0.0" type="line"/>
      <point x="1186.0" y="1027.3333333333335" type="line"/>
      <point x="991.6666666666667" y="1027.3333333333335" type="line"/>
      <point x="631.0" y="205.33333333333334" type="line"/>
      <point x="618.6666666666667" y="205.33333333333334" type="line"/>
      <point x="256.0" y="1027.3333333333335" type="line"/>
    </contour>
    <contour>
      <point x="956.6666666666667" y="797.3333333333334" type="line"/>
      <point x="277.6666666666667" y="797.3333333333334" type="line"/>
      <point x="277.6666666666667" y="649.3333333333334" type="line"/>
      <point x="956.6666666666667" y="649.3333333333334" type="line"/>
    </contour>
  </outline>
</glyph>
<glyph name="element" format="2">
  <advance width="1240.0"/>
  <unicode hex="2208"/>
  <outline>
    <contour>
      <point x="371.0" y="730.0" type="curve" smooth="yes"/>
      <point x="371.0" y="1159.0"/>
      <point x="520.6666666666667" y="1296.3333333333335"/>
      <point x="856.3333333333334" y="1296.3333333333335" type="curve" smooth="yes"/>
      <point x="1021.6666666666667" y="1296.3333333333335" type="line"/>
      <point x="1021.6666666666667" y="1460.0" type="line"/>
      <point x="816.6666666666667" y="1460.0" type="line" smooth="yes"/>
      <point x="398.6666666666667" y="1460.0"/>
      <point x="176.66666666666669" y="1257.3333333333335"/>
      <point x="176.66666666666669" y="730.0" type="curve" smooth="yes"/>
      <point x="176.66666666666669" y="202.66666666666669"/>
      <point x="398.6666666666667" y="0.0"/>
      <point x="816.6666666666667" y="0.0" type="curve" smooth="yes"/>
      <point x="1021.6666666666667" y="0.0" type="line"/>
      <point x="1021.6666666666667" y="163.66666666666669" type="line"/>
      <point x="856.3333333333334" y="163.66666666666669" type="line" smooth="yes"/>
      <point x="520.6666666666667" y="163.66666666666669"/>
      <point x="371.0" y="301.0"/>
    </contour>
    <contour>
      <point x="275.0" y="654.0" type="line"/>
      <point x="1021.6666666666667" y="654.0" type="line"/>
      <point x="1021.6666666666667" y="813.0000000000001" type="line"/>
      <point x="275.0" y="813.0000000000001" type="line"/>
    </contour>
  </outline>
</glyph>
<glyph name="radical" format="2">
  <advance width="1240.0"/>
  <unicode hex="221A"/>
  <outline>
    <contour>
      <point x="782.0000000000001" y="1460.0" type="line"/>
      <point x="388.6666666666667" y="-169.0" type="line"/>
      <point x="375.33333333333337" y="-169.0" type="line"/>
      <point x="171.66666666666669" y="476.66666666666674" type="line"/>
      <point x="12.666666666666668" y="430.33333333333337" type="line"/>
      <point x="274.0" y="-400.0" type="line"/>
      <point x="501.00000000000006" y="-400.0" type="line"/>
      <point x="922.6666666666667" y="1351.0" type="line"/>
      <point x="840.0" y="1296.3333333333335" type="line"/>
      <point x="1166.6666666666667" y="1296.3333333333335" type="line"/>
      <point x="1166.6666666666667" y="1460.0" type="line"/>
    </contour>
  </outline>
</glyph>
<glyph name="logicalor" format="2">
  <advance width="1240.0"/>
  <unicode hex="2228"/>
  <outline>
    <contour>
      <point x="99.66666666666667" y="1238.6666666666667" type="line"/>
      <point x="591.6666666666667" y="211.33333333333337" type="line"/>
      <point x="664.0" y="211.33333333333337" type="line"/>
      <point x="1139.6666666666667" y="1238.6666666666667" type="line"/>
      <point x="954.0" y="1238.6666666666667" type="line"/>
      <point x="640.0" y="534.6666666666667" type="line"/>
      <point x="626.0" y="534.6666666666667" type="line"/>
      <point x="302.33333333333337" y="1238.6666666666667" type="line"/>
    </contour>
  </outline>
</glyph>
<glyph name="integral" format="2">
  <advance width="1240.0"/>
  <unicode hex="222B"/>
  <outline>
    <contour>
      <point x="940.6666666666667" y="1483.6666666666667" type="curve" smooth="yes"/>
      <point x="996.6666666666667" y="1483.6666666666667"/>
      <point x="1043.3333333333335" y="1475.6666666666667"/>
      <point x="1090.0" y="1453.3333333333335" type="curve"/>
      <point x="1070.3333333333335" y="1308.3333333333335" type="line"/>
      <point x="1040.0" y="1319.6666666666667"/>
      <point x="1014.3333333333334" y="1325.0"/>
      <point x="978.0" y="1325.0" type="curve" smooth="yes"/>
      <point x="868.0" y="1325.0"/>
      <point x="812.6666666666667" y="1278.3333333333335"/>
      <point x="784.3333333333334" y="1065.6666666666667" type="curve" smooth="yes"/>
      <point x="632.0" y="-61.00000000000001" type="line" smooth="yes"/>
      <point x="594.0" y="-351.33333333333337"/>
      <point x="468.6666666666667" y="-424.0"/>
      <point x="299.33333333333337" y="-424.0" type="curve" smooth="yes"/>
      <point x="243.33333333333334" y="-424.0"/>
      <point x="196.66666666666669" y="-416.0"/>
      <point x="150.0" y="-393.6666666666667" type="curve"/>
      <point x="169.66666666666669" y="-248.66666666666669" type="line"/>
      <point x="200.0" y="-260.0"/>
      <point x="225.66666666666669" y="-265.33333333333337"/>
      <point x="262.0" y="-265.33333333333337" type="curve" smooth="yes"/>
      <point x="372.00000000000006" y="-265.33333333333337"/>
      <point x="429.0" y="-219.00000000000003"/>
      <point x="457.00000000000006" y="-5.6666666666666785" type="curve" smooth="yes"/>
      <point x="608.3333333333334" y="1120.6666666666667" type="line" smooth="yes"/>
      <point x="646.0" y="1411.0"/>
      <point x="771.3333333333334" y="1483.6666666666667"/>
    </contour>
  </outline>
</glyph>
<glyph name="therefore" format="2">
  <advance width="1240.0"/>
  <unicode hex="2234"/>
  <outline>
    <contour>
      <point x="305.671" y="209.66666666666669" type="curve" smooth="yes"/>
      <point x="406.6066666666667" y="209.66666666666669"/>
      <point x="487.78066666666666" y="277.6666666666667"/>
      <point x="487.78066666666666" y="390.0" type="curve" smooth="yes"/>
      <point x="487.78066666666666" y="504.0"/>
      <point x="406.6066666666667" y="569.6666666666667"/>
      <point x="305.671" y="569.6666666666667" type="curve" smooth="yes"/>
      <point x="204.7566666666667" y="569.6666666666667"/>
      <point x="123.26" y="504.0"/>
      <point x="123.26" y="390.0" type="curve" smooth="yes"/>
      <point x="123.26" y="277.6666666666667"/>
      <point x="204.7566666666667" y="209.66666666666669"/>
    </contour>
    <contour>
      <point x="620.3376666666667" y="896.0000000000001" type="curve" smooth="yes"/>
      <point x="721.2733333333334" y="896.0000000000001"/>
      <point x="802.4473333333333" y="964.0"/>
      <point x="802.4473333333333" y="1076.3333333333335" type="curve" smooth="yes"/>
      <point x="802.4473333333333" y="1190.3333333333335"/>
      <point x="721.2733333333334" y="1256.0"/>
      <point x="620.3376666666667" y="1256.0" type="curve" smooth="yes"/>
      <point x="519.4233333333334" y="1256.0"/>
      <point x="437.92666666666673" y="1190.3333333333335"/>
      <point x="437.92666666666673" y="1076.3333333333335" type="curve" smooth="yes"/>
      <point x="437.92666666666673" y="964.0"/>
      <point x="519.4233333333334" y="896.0000000000001"/>
    </contour>
    <contour>
      <point x="934.671" y="209.66666666666669" type="curve" smooth="yes"/>
      <point x="1035.6066666666666" y="209.66666666666669"/>
      <point x="1116.7806666666668" y="277.6666666666667"/>
      <point x="1116.7806666666668" y="390.0" type="curve" smooth="yes"/>
      <point x="1116.7806666666668" y="504.0"/>
      <point x="1035.6066666666666" y="569.6666666666667"/>
      <point x="934.671" y="569.6666666666667" type="curve" smooth="yes"/>
      <point x="833.7566666666667" y="569.6666666666667"/>
      <point x="752.2600000000001" y="504.0"/>
      <point x="752.2600000000001" y="390.0" type="curve" smooth="yes"/>
      <point x="752.2600000000001" y="277.6666666666667"/>
      <point x="833.7566666666667" y="209.66666666666669"/>
    </contour>
  </outline>
</glyph>
<glyph name="proportion" format="2">
  <advance width="1240.0"/>
  <unicode hex="2237"/>
  <outline>
    <contour>
      <point x="312.78833333333336" y="209.66666666666669" type="curve" smooth="yes"/>
      <point x="412.2103333333333" y="209.66666666666669"/>
      <point x="492.129" y="277.6666666666667"/>
      <point x="492.129" y="390.0" type="curve" smooth="yes"/>
      <point x="492.129" y="504.0"/>
      <point x="412.2103333333333" y="569.6666666666667"/>
      <point x="312.78833333333336" y="569.6666666666667" type="curve" smooth="yes"/>
      <point x="213.411" y="569.6666666666667"/>
      <point x="133.18166666666667" y="504.0"/>
      <point x="133.18166666666667" y="390.0" type="curve" smooth="yes"/>
      <point x="133.18166666666667" y="277.6666666666667"/>
      <point x="213.411" y="209.66666666666669"/>
    </contour>
    <contour>
      <point x="312.78833333333336" y="896.0000000000001" type="curve" smooth="yes"/>
      <point x="412.2103333333333" y="896.0000000000001"/>
      <point x="492.129" y="964.0"/>
      <point x="492.129" y="1076.3333333333335" type="curve" smooth="yes"/>
      <point x="492.129" y="1190.3333333333335"/>
      <point x="412.2103333333333" y="1256.0"/>
      <point x="312.78833333333336" y="1256.0" type="curve" smooth="yes"/>
      <point x="213.411" y="1256.0"/>
      <point x="133.18166666666667" y="1190.3333333333335"/>
      <point x="133.18166666666667" y="1076.3333333333335" type="curve" smooth="yes"/>
      <point x="133.18166666666667" y="964.0"/>
      <point x="213.411" y="896.0000000000001"/>
    </contour>
    <contour>
      <point x="927.455" y="209.66666666666669" type="curve" smooth="yes"/>
      <point x="1026.8770000000002" y="209.66666666666669"/>
      <point x="1106.7956666666666" y="277.6666666666667"/>
      <point x="1106.7956666666666" y="390.0" type="curve" smooth="yes"/>
      <point x="1106.7956666666666" y="504.0"/>
      <point x="1026.8770000000002" y="569.6666666666667"/>
      <point x="927.455" y="569.6666666666667" type="curve" smooth="yes"/>
      <point x="828.0776666666668" y="569.6666666666667"/>
      <point x="747.8483333333334" y="504.0"/>
      <point x="747.8483333333334" y="390.0" type="curve" smooth="yes"/>
      <point x="747.8483333333334" y="277.6666666666667"/>
      <point x="828.0776666666668" y="209.66666666666669"/>
    </contour>
    <contour>
      <point x="927.455" y="896.0000000000001" type="curve" smooth="yes"/>
      <point x="1026.8770000000002" y="896.0000000000001"/>
      <point x="1106.7956666666666" y="964.0"/>
      <point x="1106.7956666666666" y="1076.3333333333335" type="curve" smooth="yes"/>
      <point x="1106.7956666666666" y="1190.3333333333335"/>
      <point x="1026.8770000000002" y="1256.0"/>
      <point x="927.455" y="1256.0" type="curve" smooth="yes"/>
      <point x="828.0776666666668" y="1256.0"/>
      <point x="747.8483333333334" y="1190.3333333333335"/>
      <point x="747.8483333333334" y="1076.3333333333335" type="curve" smooth="yes"/>
      <point x="747.8483333333334" y="964.0"/>
      <point x="828.0776666666668" y="896.0000000000001"/>
    </contour>
  </outline>
</glyph>
<glyph name="greaterequal" format="2">
  <advance width="1240.0"/>
  <unicode hex="2265"/>
  <outline>
    <contour>
      <point x="160.0" y="173.66666666666669" type="line"/>
      <point x="1080.0" y="173.66666666666669" type="line"/>
      <point x="1080.0" y="337.33333333333337" type="line"/>
      <point x="160.0" y="337.33333333333337" type="line"/>
    </contour>
    <contour>
      <point x="208.33333333333334" y="553.6666666666667" type="line"/>
      <point x="1080.0" y="929.6666666666667" type="line"/>
      <point x="1079.6666666666667" y="1096.6666666666667" type="line"/>
      <point x="208.0" y="1472.6666666666667" type="line"/>
      <point x="146.0" y="1321.3333333333335" type="line"/>
      <point x="831.6666666666667" y="1021.3333333333334" type="line"/>
      <point x="831.6666666666667" y="1003.3333333333335" type="line"/>
      <point x="146.33333333333334" y="705.0" type="line"/>
    </contour>
  </outline>
</glyph>
<glyph name="upBlackSmallTriangle" format="2">
  <advance width="1240.0"/>
  <unicode hex="25B4"/>
  <outline>
    <contour>
      <point x="283.6666666666667" y="450.66666666666674" type="line"/>
      <point x="955.3333333333334" y="450.66666666666674" type="line"/>
      <point x="619.0" y="1038.0" type="line"/>
    </contour>
  </outline>
</glyph>
<glyph name="rightBlackTriangle" format="2">
  <advance width="1240.0"/>
  <unicode hex="25B6"/>
  <outline>
    <contour>
      <point x="183.0" y="1271.0" type="line"/>
      <point x="183.0" y="185.0" type="line"/>
      <point x="1135.0" y="729.0" type="line"/>
    </contour>
  </outline>
</glyph>
<glyph name="downBlackTriangle" format="2">
  <advance width="1240.0"/>
  <unicode hex="25BC"/>
  <outline>
    <contour>
      <point x="1163.0" y="1192.0" type="line"/>
      <point x="77.0" y="1192.0" type="line"/>
      <point x="621.0" y="240.00000000000003" type="line"/>
    </contour>
  </outline>
</glyph>
<glyph name="brick" format="2">
  <advance width="1240.0"/>
  <unicode hex="1F9F1"/>
  <outline>
    <contour>
      <point x="0.0" y="-400.0" type="line"/>
      <point x="1240.0" y="-400.0" type="line"/>
      <point x="1240.0" y="1530.0" type="line"/>
      <point x="0.0" y="1530.0" type="line"/>
    </contour>
  </outline>
</glyph>
<glyph name="Acircumflex.alt1.color0" format="2">
  <advance width="1240.0"/>
  <outline>
    <contour>
      <point x="182.00000000000003" y="0.0" type="line"/>
      <point x="375.0" y="0.0" type="line"/>
      <point x="375.0" y="825.6666666666667" type="line"/>
      <point x="647.0" y="1340.3333333333335" type="line"/>
      <point x="593.0" y="1340.3333333333335" type="line"/>
      <point x="865.0" y="828.3333333333334" type="line"/>
      <point x="865.0" y="0.0" type="line"/>
      <point x="1058.0" y="0.0" type="line"/>
      <point x="1058.0" y="885.0000000000001" type="line"/>
      <point x="736.3333333333334" y="1460.0" type="line"/>
      <point x="503.6666666666667" y="1460.0" type="line"/>
      <point x="182.00000000000003" y="885.0000000000001" type="line"/>
    </contour>
    <contour>
      <point x="303.6666666666667" y="400.33333333333337" type="line"/>
      <point x="942.6666666666667" y="400.33333333333337" type="line"/>
      <point x="942.6666666666667" y="547.0" type="line"/>
      <point x="303.6666666666667" y="547.0" type="line"/>
    </contour>
    <contour>
      <point x="265.0" y="1640.0000000000002" type="line"/>
      <point x="447.00000000000006" y="1640.0000000000002" type="line"/>
      <point x="646.6666666666667" y="1844.0000000000002" type="line"/>
      <point x="593.3333333333334" y="1844.0000000000002" type="line"/>
      <point x="793.0" y="1640.0000000000002" type="line"/>
      <point x="975.0000000000001" y="1640.0000000000002" type="line"/>
      <point x="723.0" y="1881.3333333333335" type="line"/>
      <point x="517.0" y="1881.3333333333335" type="line"/>
    </contour>
  </outline>
</glyph>
<glyph name="Aogonek.alt1.color0" format="2">
  <advance width="1240.0"/>
  <outline>
    <contour>
      <point x="182.00000000000003" y="0.0" type="line"/>
      <point x="375.0" y="0.0" type="line"/>
      <point x="375.0" y="825.6666666666667" type="line"/>
      <point x="647.0" y="1340.3333333333335" type="line"/>
      <point x="593.0" y="1340.3333333333335" type="line"/>
      <point x="865.0" y="828.3333333333334" type="line"/>
      <point x="865.0" y="0.0" type="line"/>
      <point x="1058.0" y="0.0" type="line"/>
      <point x="1058.0" y="885.0000000000001" type="line"/>
      <point x="736.3333333333334" y="1460.0" type="line"/>
      <point x="503.6666666666667" y="1460.0" type="line"/>
      <point x="182.00000000000003" y="885.0000000000001" type="line"/>
    </contour>
    <contour>
      <point x="303.6666666666667" y="400.33333333333337" type="line"/>
      <point x="942.6666666666667" y="400.33333333333337" type="line"/>
      <point x="942.6666666666667" y="547.0" type="line"/>
      <point x="303.6666666666667" y="547.0" type="line"/>
    </contour>
    <contour>
      <point x="762.6666666666667" y="-125.66666666666667" type="line"/>
      <point x="762.6666666666667" y="-313.33333333333337" type="line"/>
      <point x="922.3333333333335" y="-414.33333333333337" type="line"/>
      <point x="1051.6666666666667" y="-414.33333333333337" type="line"/>
      <point x="1051.6666666666667" y="-286.6666666666667" type="line"/>
      <point x="967.0" y="-286.6666666666667" type="line"/>
      <point x="905.0000000000001" y="-244.66666666666669" type="line"/>
      <point x="905.0000000000001" y="-158.33333333333334" type="line"/>
      <point x="1058.0" y="0.0" type="line"/>
      <point x="964.3333333333335" y="39.333333333333336" type="line"/>
    </contour>
  </outline>
</glyph>
<glyph name="Aring.alt1.color0" format="2">
  <advance width="1240.0"/>
  <outline>
    <contour>
      <point x="182.00000000000003" y="0.0" type="line"/>
      <point x="375.0" y="0.0" type="line"/>
      <point x="375.0" y="825.6666666666667" type="line"/>
      <point x="647.0" y="1340.3333333333335" type="line"/>
      <point x="593.0" y="1340.3333333333335" type="line"/>
      <point x="865.0" y="828.3333333333334" type="line"/>
      <point x="865.0" y="0.0" type="line"/>
      <point x="1058.0" y="0.0" type="line"/>
      <point x="1058.0" y="885.0000000000001" type="line"/>
      <point x="736.3333333333334" y="1460.0" type="line"/>
      <point x="503.6666666666667" y="1460.0" type="line"/>
      <point x="182.00000000000003" y="885.0000000000001" type="line"/>
    </contour>
    <contour>
      <point x="303.6666666666667" y="400.33333333333337" type="line"/>
      <point x="942.6666666666667" y="400.33333333333337" type="line"/>
      <point x="942.6666666666667" y="547.0" type="line"/>
      <point x="303.6666666666667" y="547.0" type="line"/>
    </contour>
    <contour>
      <point x="533.0" y="1441.3333333333335" type="line"/>
      <point x="707.0" y="1441.3333333333335" type="line"/>
      <point x="853.6666666666667" y="1601.6666666666667" type="line"/>
      <point x="853.6666666666667" y="1747.666666666667" type="line"/>
      <point x="707.0" y="1907.0000000000002" type="line"/>
      <point x="533.0" y="1907.0000000000002" type="line"/>
      <point x="386.33333333333337" y="1746.6666666666667" type="line"/>
      <point x="386.33333333333337" y="1600.666666666667" type="line"/>
    </contour>
    <contour>
      <point x="490.6666666666667" y="1643.3333333333335" type="line"/>
      <point x="490.6666666666667" y="1705.3333333333335" type="line"/>
      <point x="582.6666666666667" y="1808.0" type="line"/>
      <point x="657.3333333333334" y="1808.0" type="line"/>
      <point x="749.3333333333334" y="1705.3333333333335" type="line"/>
      <point x="749.3333333333334" y="1643.3333333333335" type="line"/>
      <point x="657.3333333333334" y="1540.3333333333335" type="line"/>
      <point x="582.6666666666667" y="1540.3333333333335" type="line"/>
    </contour>
  </outline>
</glyph>
<glyph name="B.alt1.color0" format="2">
  <advance width="1240.0"/>
  <outline>
    <contour>
      <point x="258.6666666666667" y="0.0" type="line"/>
      <point x="803.0" y="0.0" type="line"/>
      <point x="1116.0" y="272.0" type="line"/>
      <point x="1116.0" y="545.3333333333334" type="line"/>
      <point x="802.0" y="812.0" type="line"/>
      <point x="802.0" y="706.6666666666667" type="line"/>
      <point x="1059.3333333333335" y="955.0" type="line"/>
      <point x="1059.3333333333335" y="1192.3333333333335" type="line"/>
      <point x="803.0" y="1460.0" type="line"/>
      <point x="258.6666666666667" y="1460.0" type="line"/>
      <point x="258.6666666666667" y="1313.0" type="line"/>
      <point x="717.0" y="1313.0" type="line"/>
      <point x="883.6666666666667" y="1128.3333333333335" type="line"/>
      <point x="883.6666666666667" y="1016.3333333333335" type="line"/>
      <point x="717.0" y="825.6666666666667" type="line"/>
      <point x="258.6666666666667" y="825.6666666666667" type="line"/>
      <point x="258.6666666666667" y="678.6666666666667" type="line"/>
      <point x="717.0" y="678.6666666666667" type="line"/>
      <point x="923.6666666666667" y="484.0" type="line"/>
      <point x="923.6666666666667" y="336.0" type="line"/>
      <point x="717.0" y="147.0" type="line"/>
      <point x="258.6666666666667" y="147.0" type="line"/>
    </contour>
    <contour>
      <point x="187.0" y="0.0" type="line"/>
      <point x="383.33333333333337" y="0.0" type="line"/>
      <point x="383.33333333333337" y="1460.0" type="line"/>
      <point x="187.0" y="1460.0" type="line"/>
    </contour>
  </outline>
</glyph>
<glyph name="C.alt4" format="2">
  <advance width="1240.0"/>
  <outline>
    <contour>
      <point x="479.00000000000006" y="0.0" type="line"/>
      <point x="1074.0" y="0.0" type="line"/>
      <point x="1100.6666666666667" y="173.66666666666669" type="line"/>
      <point x="582.3333333333334" y="173.66666666666669" type="line"/>
      <point x="303.0" y="594.0" type="line"/>
      <point x="303.0" y="872.6666666666667" type="line"/>
      <point x="582.3333333333334" y="1286.3333333333335" type="line"/>
      <point x="1100.6666666666667" y="1286.3333333333335" type="line"/>
      <point x="1074.0" y="1460.0" type="line"/>
      <point x="479.00000000000006" y="1460.0" type="line"/>
      <point x="110.66666666666667" y="932.6666666666667" type="line"/>
      <point x="110.66666666666667" y="534.0" type="line"/>
    </contour>
  </outline>
</glyph>
<glyph name="Cdotaccent.alt1" format="2">
  <advance width="1240.0"/>
  <outline>
    <contour>
      <point x="479.00000000000006" y="0.0" type="line"/>
      <point x="1074.0" y="0.0" type="line"/>
      <point x="1100.6666666666667" y="173.66666666666669" type="line"/>
      <point x="582.3333333333334" y="173.66666666666669" type="line"/>
      <point x="303.0" y="594.0" type="line"/>
      <point x="303.0" y="872.6666666666667" type="line"/>
      <point x="582.3333333333334" y="1286.3333333333335" type="line"/>
      <point x="1100.6666666666667" y="1286.3333333333335" type="line"/>
      <point x="1074.0" y="1460.0" type="line"/>
      <point x="479.00000000000006" y="1460.0" type="line"/>
      <point x="110.66666666666667" y="932.6666666666667" type="line"/>
      <point x="110.66666666666667" y="534.0" type="line"/>
    </contour>
    <contour>
      <point x="698.6666666666667" y="1623.6000000000001" type="line"/>
      <point x="848.1333333333334" y="1766.2666666666667" type="line"/>
      <point x="698.6666666666667" y="1908.6666666666667" type="line"/>
      <point x="548.9333333333334" y="1766.2666666666667" type="line"/>
    </contour>
  </outline>
</glyph>
<glyph name="Dcroat.alt1.color0" format="2">
  <advance width="1240.0"/>
  <outline>
    <contour>
      <point x="31.000000000000004" y="668.0" type="line"/>
      <point x="661.3333333333334" y="668.0" type="line"/>
      <point x="661.3333333333334" y="832.3333333333334" type="line"/>
      <point x="31.000000000000004" y="832.3333333333334" type="line"/>
    </contour>
    <contour>
      <point x="262.6666666666667" y="0.0" type="line"/>
      <point x="761.0" y="0.0" type="line"/>
      <point x="1129.3333333333335" y="539.6666666666667" type="line"/>
      <point x="1129.3333333333335" y="934.3333333333335" type="line"/>
      <point x="761.0" y="1460.0" type="line"/>
      <point x="262.6666666666667" y="1460.0" type="line"/>
      <point x="252.66666666666669" y="1286.3333333333335" type="line"/>
      <point x="660.3333333333334" y="1286.3333333333335" type="line"/>
      <point x="937.0000000000001" y="876.3333333333335" type="line"/>
      <point x="937.0000000000001" y="597.6666666666667" type="line"/>
      <point x="660.3333333333334" y="173.66666666666669" type="line"/>
      <point x="252.66666666666669" y="173.66666666666669" type="line"/>
    </contour>
    <contour>
      <point x="182.00000000000003" y="0.0" type="line"/>
      <point x="375.6666666666667" y="0.0" type="line"/>
      <point x="375.6666666666667" y="1460.0" type="line"/>
      <point x="182.00000000000003" y="1460.0" type="line"/>
    </contour>
  </outline>
</glyph>
<glyph name="Ebreve.alt5" format="2">
  <advance width="1240.0"/>
  <outline>
    <contour>
      <point x="385.6666666666667" y="0.0" type="line"/>
      <point x="385.6666666666667" y="1460.0" type="line"/>
      <point x="192.0" y="1460.0" type="line"/>
      <point x="192.0" y="0.0" type="line"/>
    </contour>
    <contour>
      <point x="1082.6666666666667" y="163.66666666666669" type="line"/>
      <point x="302.33333333333337" y="163.66666666666669" type="line"/>
      <point x="302.33333333333337" y="0.0" type="line"/>
      <point x="1059.3333333333335" y="0.0" type="line"/>
    </contour>
    <contour>
      <point x="922.3333333333335" y="808.0" type="line"/>
      <point x="312.33333333333337" y="808.0" type="line"/>
      <point x="312.33333333333337" y="652.3333333333334" type="line"/>
      <point x="922.3333333333335" y="652.3333333333334" type="line"/>
    </contour>
    <contour>
      <point x="1046.0" y="1296.3333333333335" type="line"/>
      <point x="1022.6666666666667" y="1460.0" type="line"/>
      <point x="302.33333333333337" y="1460.0" type="line"/>
      <point x="302.33333333333337" y="1296.3333333333335" type="line"/>
    </contour>
    <contour>
      <point x="486.33333333333337" y="1628.6666666666667" type="line"/>
      <point x="793.6666666666667" y="1628.6666666666667" type="line"/>
      <point x="938.0" y="1757.6666666666667" type="line"/>
      <point x="938.0" y="1881.3333333333335" type="line"/>
      <point x="812.0" y="1881.3333333333335" type="line"/>
      <point x="812.0" y="1804.666666666667" type="line"/>
      <point x="740.3333333333334" y="1741.666666666667" type="line"/>
      <point x="539.6666666666667" y="1741.666666666667" type="line"/>
      <point x="468.0" y="1804.666666666667" type="line"/>
      <point x="468.0" y="1881.3333333333335" type="line"/>
      <point x="342.0" y="1881.3333333333335" type="line"/>
      <point x="342.0" y="1756.6666666666667" type="line"/>
    </contour>
  </outline>
</glyph>
<glyph name="Ecircumflex.alt1.color0" format="2">
  <advance width="1240.0"/>
  <outline>
    <contour>
      <point x="385.6666666666667" y="0.0" type="line"/>
      <point x="385.6666666666667" y="1460.0" type="line"/>
      <point x="192.0" y="1460.0" type="line"/>
      <point x="192.0" y="0.0" type="line"/>
    </contour>
    <contour>
      <point x="1082.6666666666667" y="163.66666666666669" type="line"/>
      <point x="302.33333333333337" y="163.66666666666669" type="line"/>
      <point x="302.33333333333337" y="0.0" type="line"/>
      <point x="1059.3333333333335" y="0.0" type="line"/>
    </contour>
    <contour>
      <point x="922.3333333333335" y="808.0" type="line"/>
      <point x="312.33333333333337" y="808.0" type="line"/>
      <point x="312.33333333333337" y="652.3333333333334" type="line"/>
      <point x="922.3333333333335" y="652.3333333333334" type="line"/>
    </contour>
    <contour>
      <point x="1046.0" y="1296.3333333333335" type="line"/>
      <point x="1022.6666666666667" y="1460.0" type="line"/>
      <point x="302.33333333333337" y="1460.0" type="line"/>
      <point x="302.33333333333337" y="1296.3333333333335" type="line"/>
    </contour>
    <contour>
      <point x="285.0" y="1640.0000000000002" type="line"/>
      <point x="467.00000000000006" y="1640.0000000000002" type="line"/>
      <point x="666.6666666666667" y="1844.0000000000002" type="line"/>
      <point x="613.3333333333334" y="1844.0000000000002" type="line"/>
      <point x="813.0" y="1640.0000000000002" type="line"/>
      <point x="995.0000000000001" y="1640.0000000000002" type="line"/>
      <point x="743.0" y="1881.3333333333335" type="line"/>
      <point x="537.0" y="1881.3333333333335" type="line"/>
    </contour>
  </outline>
</glyph>
<glyph name="Edieresis.alt1.color0" format="2">
  <advance width="1240.0"/>
  <outline>
    <contour>
      <point x="385.6666666666667" y="0.0" type="line"/>
      <point x="385.6666666666667" y="1460.0" type="line"/>
      <point x="192.0" y="1460.0" type="line"/>
      <point x="192.0" y="0.0" type="line"/>
    </contour>
    <contour>
      <point x="1082.6666666666667" y="163.66666666666669" type="line"/>
      <point x="302.33333333333337" y="163.66666666666669" type="line"/>
      <point x="302.33333333333337" y="0.0" type="line"/>
      <point x="1059.3333333333335" y="0.0" type="line"/>
    </contour>
    <contour>
      <point x="922.3333333333335" y="808.0" type="line"/>
      <point x="312.33333333333337" y="808.0" type="line"/>
      <point x="312.33333333333337" y="652.3333333333334" type="line"/>
      <point x="922.3333333333335" y="652.3333333333334" type="line"/>
    </contour>
    <contour>
      <point x="1046.0" y="1296.3333333333335" type="line"/>
      <point x="1022.6666666666667" y="1460.0" type="line"/>
      <point x="302.33333333333337" y="1460.0" type="line"/>
      <point x="302.33333333333337" y="1296.3333333333335" type="line"/>
    </contour>
    <contour>
      <point x="382.2933333333334" y="1623.6000000000001" type="line"/>
      <point x="528.7706666666667" y="1766.2666666666667" type="line"/>
      <point x="382.2933333333334" y="1908.6666666666667" type="line"/>
      <point x="235.55466666666666" y="1766.2666666666667" type="line"/>
    </contour>
    <contour>
      <point x="897.96" y="1623.6000000000001" type="line"/>
      <point x="1044.4373333333333" y="1766.2666666666667" type="line"/>
      <point x="897.96" y="1908.6666666666667" type="line"/>
      <point x="751.2213333333334" y="1766.2666666666667" type="line"/>
    </contour>
  </outline>
</glyph>
<glyph name="Edotaccent.alt1.color0" format="2">
  <advance width="1240.0"/>
  <outline>
    <contour>
      <point x="385.6666666666667" y="0.0" type="line"/>
      <point x="385.6666666666667" y="1460.0" type="line"/>
      <point x="192.0" y="1460.0" type="line"/>
      <point x="192.0" y="0.0" type="line"/>
    </contour>
    <contour>
      <point x="1082.6666666666667" y="163.66666666666669" type="line"/>
      <point x="302.33333333333337" y="163.66666666666669" type="line"/>
      <point x="302.33333333333337" y="0.0" type="line"/>
      <point x="1059.3333333333335" y="0.0" type="line"/>
    </contour>
    <contour>
      <point x="922.3333333333335" y="808.0" type="line"/>
      <point x="312.33333333333337" y="808.0" type="line"/>
      <point x="312.33333333333337" y="652.3333333333334" type="line"/>
      <point x="922.3333333333335" y="652.3333333333334" type="line"/>
    </contour>
    <contour>
      <point x="1046.0" y="1296.3333333333335" type="line"/>
      <point x="1022.6666666666667" y="1460.0" type="line"/>
      <point x="302.33333333333337" y="1460.0" type="line"/>
      <point x="302.33333333333337" y="1296.3333333333335" type="line"/>
    </contour>
    <contour>
      <point x="638.6666666666667" y="1623.6000000000001" type="line"/>
      <point x="788.1333333333334" y="1766.2666666666667" type="line"/>
      <point x="638.6666666666667" y="1908.6666666666667" type="line"/>
      <point x="488.9333333333334" y="1766.2666666666667" type="line"/>
    </contour>
  </outline>
</glyph>
<glyph name="Eogonek.alt1.color0" format="2">
  <advance width="1240.0"/>
  <outline>
    <contour>
      <point x="385.6666666666667" y="0.0" type="line"/>
      <point x="385.6666666666667" y="1460.0" type="line"/>
      <point x="192.0" y="1460.0" type="line"/>
      <point x="192.0" y="0.0" type="line"/>
    </contour>
    <contour>
      <point x="1082.6666666666667" y="163.66666666666669" type="line"/>
      <point x="302.33333333333337" y="163.66666666666669" type="line"/>
      <point x="302.33333333333337" y="0.0" type="line"/>
      <point x="1059.3333333333335" y="0.0" type="line"/>
    </contour>
    <contour>
      <point x="922.3333333333335" y="808.0" type="line"/>
      <point x="312.33333333333337" y="808.0" type="line"/>
      <point x="312.33333333333337" y="652.3333333333334" type="line"/>
      <point x="922.3333333333335" y="652.3333333333334" type="line"/>
    </contour>
    <contour>
      <point x="1046.0" y="1296.3333333333335" type="line"/>
      <point x="1022.6666666666667" y="1460.0" type="line"/>
      <point x="302.33333333333337" y="1460.0" type="line"/>
      <point x="302.33333333333337" y="1296.3333333333335" type="line"/>
    </contour>
    <contour>
      <point x="764.0" y="-125.66666666666667" type="line"/>
      <point x="764.0" y="-313.33333333333337" type="line"/>
      <point x="923.6666666666667" y="-414.33333333333337" type="line"/>
      <point x="1053.0" y="-414.33333333333337" type="line"/>
      <point x="1053.0" y="-286.6666666666667" type="line"/>
      <point x="968.3333333333334" y="-286.6666666666667" type="line"/>
      <point x="906.3333333333334" y="-244.66666666666669" type="line"/>
      <point x="906.3333333333334" y="-158.33333333333334" type="line"/>
      <point x="1059.3333333333335" y="0.0" type="line"/>
      <point x="965.6666666666667" y="39.333333333333336" type="line"/>
    </contour>
  </outline>
</glyph>
<glyph name="Etilde.alt1" format="2">
  <advance width="1240.0"/>
  <outline>
    <contour>
      <point x="385.6666666666667" y="0.0" type="line"/>
      <point x="385.6666666666667" y="1460.0" type="line"/>
      <point x="192.0" y="1460.0" type="line"/>
      <point x="192.0" y="0.0" type="line"/>
    </contour>
    <contour>
      <point x="1082.6666666666667" y="163.66666666666669" type="line"/>
      <point x="302.33333333333337" y="163.66666666666669" type="line"/>
      <point x="302.33333333333337" y="0.0" type="line"/>
      <point x="1059.3333333333335" y="0.0" type="line"/>
    </contour>
    <contour>
      <point x="922.3333333333335" y="808.0" type="line"/>
      <point x="312.33333333333337" y="808.0" type="line"/>
      <point x="312.33333333333337" y="652.3333333333334" type="line"/>
      <point x="922.3333333333335" y="652.3333333333334" type="line"/>
    </contour>
    <contour>
      <point x="1046.0" y="1296.3333333333335" type="line"/>
      <point x="1022.6666666666667" y="1460.0" type="line"/>
      <point x="302.33333333333337" y="1460.0" type="line"/>
      <point x="302.33333333333337" y="1296.3333333333335" type="line"/>
    </contour>
    <contour>
      <point x="597.0" y="1891.0000000000002" type="line"/>
      <point x="387.66666666666674" y="1891.0000000000002" type="line"/>
      <point x="256.6666666666667" y="1758.0" type="line"/>
      <point x="256.6666666666667" y="1632.3333333333335" type="line"/>
      <point x="384.33333333333337" y="1632.3333333333335" type="line"/>
      <point x="384.33333333333337" y="1713.3333333333335" type="line"/>
      <point x="449.6666666666667" y="1781.3333333333335" type="line"/>
      <point x="533.0" y="1781.3333333333335" type="line"/>
      <point x="683.0" y="1632.3333333333335" type="line"/>
      <point x="892.3333333333334" y="1632.3333333333335" type="line"/>
      <point x="1023.3333333333334" y="1765.3333333333335" type="line"/>
      <point x="1023.3333333333334" y="1891.0000000000002" type="line"/>
      <point x="895.6666666666667" y="1891.0000000000002" type="line"/>
      <point x="895.6666666666667" y="1806.6666666666667" type="line"/>
      <point x="830.3333333333334" y="1742.0000000000002" type="line"/>
      <point x="747.0" y="1742.0000000000002" type="line"/>
    </contour>
  </outline>
</glyph>
<glyph name="F.alt5" format="2">
  <advance width="1240.0"/>
  <outline>
    <contour>
      <point x="202.0" y="0.0" type="line"/>
      <point x="395.6666666666667" y="0.0" type="line"/>
      <point x="395.6666666666667" y="1460.0" type="line"/>
      <point x="202.0" y="1460.0" type="line"/>
    </contour>
    <contour>
      <point x="319.0" y="597.6666666666667" type="line"/>
      <point x="962.3333333333334" y="597.6666666666667" type="line"/>
      <point x="962.3333333333334" y="749.3333333333334" type="line"/>
      <point x="319.0" y="749.3333333333334" type="line"/>
    </contour>
    <contour>
      <point x="309.0" y="1303.0" type="line"/>
      <point x="1086.0" y="1303.0" type="line"/>
      <point x="1062.6666666666667" y="1460.0" type="line"/>
      <point x="309.0" y="1460.0" type="line"/>
    </contour>
  </outline>
</glyph>
<glyph name="Gbreve.alt5.color0" format="2">
  <advance width="1240.0"/>
  <outline>
    <contour>
      <point x="485.66666666666674" y="0.0" type="line"/>
      <point x="972.6666666666667" y="0.0" type="line"/>
      <point x="1118.6666666666667" y="158.33333333333334" type="line"/>
      <point x="1118.6666666666667" y="785.0" type="line"/>
      <point x="666.0" y="785.0" type="line"/>
      <point x="666.0" y="633.3333333333334" type="line"/>
      <point x="1016.0000000000001" y="633.3333333333334" type="line"/>
      <point x="954.0000000000001" y="692.3333333333334" type="line"/>
      <point x="954.0000000000001" y="245.33333333333334" type="line"/>
      <point x="883.3333333333335" y="173.66666666666669" type="line"/>
      <point x="586.3333333333334" y="173.66666666666669" type="line"/>
      <point x="303.0" y="594.0" type="line"/>
      <point x="303.0" y="872.6666666666667" type="line"/>
      <point x="579.6666666666667" y="1286.3333333333335" type="line"/>
      <point x="1060.6666666666667" y="1286.3333333333335" type="line"/>
      <point x="1037.3333333333335" y="1460.0" type="line"/>
      <point x="479.00000000000006" y="1460.0" type="line"/>
      <point x="110.66666666666667" y="930.6666666666667" type="line"/>
      <point x="110.66666666666667" y="536.0" type="line"/>
    </contour>
    <contour>
      <point x="539.6666666666667" y="1628.6666666666667" type="line"/>
      <point x="847.0000000000001" y="1628.6666666666667" type="line"/>
      <point x="991.3333333333335" y="1757.6666666666667" type="line"/>
      <point x="991.3333333333335" y="1881.3333333333335" type="line"/>
      <point x="865.3333333333335" y="1881.3333333333335" type="line"/>
      <point x="865.3333333333335" y="1804.666666666667" type="line"/>
      <point x="793.6666666666667" y="1741.666666666667" type="line"/>
      <point x="593.0" y="1741.666666666667" type="line"/>
      <point x="521.3333333333334" y="1804.666666666667" type="line"/>
      <point x="521.3333333333334" y="1881.3333333333335" type="line"/>
      <point x="395.33333333333337" y="1881.3333333333335" type="line"/>
      <point x="395.33333333333337" y="1756.6666666666667" type="line"/>
    </contour>
  </outline>
</glyph>
<glyph name="Gcaron.alt1.color0" format="2">
  <advance width="1240.0"/>
  <outline>
    <contour>
      <point x="485.66666666666674" y="0.0" type="line"/>
      <point x="972.6666666666667" y="0.0" type="line"/>
      <point x="1118.6666666666667" y="158.33333333333334" type="line"/>
      <point x="1118.6666666666667" y="785.0" type="line"/>
      <point x="666.0" y="785.0" type="line"/>
      <point x="666.0" y="633.3333333333334" type="line"/>
      <point x="1016.0000000000001" y="633.3333333333334" type="line"/>
      <point x="954.0000000000001" y="692.3333333333334" type="line"/>
      <point x="954.0000000000001" y="245.33333333333334" type="line"/>
      <point x="883.3333333333335" y="173.66666666666669" type="line"/>
      <point x="586.3333333333334" y="173.66666666666669" type="line"/>
      <point x="303.0" y="594.0" type="line"/>
      <point x="303.0" y="872.6666666666667" type="line"/>
      <point x="579.6666666666667" y="1286.3333333333335" type="line"/>
      <point x="1060.6666666666667" y="1286.3333333333335" type="line"/>
      <point x="1037.3333333333335" y="1460.0" type="line"/>
      <point x="479.00000000000006" y="1460.0" type="line"/>
      <point x="110.66666666666667" y="930.6666666666667" type="line"/>
      <point x="110.66666666666667" y="536.0" type="line"/>
    </contour>
    <contour>
      <point x="338.33333333333337" y="1881.3333333333335" type="line"/>
      <point x="520.3333333333334" y="1881.3333333333335" type="line"/>
      <point x="720.0" y="1677.3333333333335" type="line"/>
      <point x="666.6666666666667" y="1677.3333333333335" type="line"/>
      <point x="866.3333333333334" y="1881.3333333333335" type="line"/>
      <point x="1048.3333333333335" y="1881.3333333333335" type="line"/>
      <point x="796.3333333333334" y="1640.0000000000002" type="line"/>
      <point x="590.3333333333334" y="1640.0000000000002" type="line"/>
    </contour>
  </outline>
</glyph>
<glyph name="Germandbls.alt5.color0" format="2">
  <advance width="1240.0"/>
  <outline>
    <contour>
      <point x="1023.3333333333335" y="1460.0" type="line"/>
      <point x="187.0" y="1460.0" type="line"/>
      <point x="187.0" y="0.0" type="line"/>
      <point x="383.33333333333337" y="0.0" type="line"/>
      <point x="383.33333333333337" y="1348.0" type="line"/>
      <point x="337.6666666666667" y="1303.0" type="line"/>
      <point x="871.3333333333335" y="1303.0" type="line"/>
      <point x="843.3333333333335" y="1357.0" type="line"/>
      <point x="640.0" y="888.3333333333334" type="line"/>
      <point x="640.0" y="762.3333333333334" type="line"/>
      <point x="930.3333333333334" y="544.0" type="line"/>
      <point x="930.3333333333334" y="339.33333333333337" type="line"/>
      <point x="745.0" y="147.0" type="line"/>
      <point x="559.3333333333334" y="147.0" type="line"/>
      <point x="559.3333333333334" y="0.0" type="line"/>
      <point x="833.0" y="0.0" type="line"/>
      <point x="1116.0" y="272.0" type="line"/>
      <point x="1116.0" y="608.6666666666667" type="line"/>
      <point x="769.6666666666667" y="883.6666666666667" type="line"/>
      <point x="783.0" y="792.0" type="line"/>
      <point x="1023.3333333333335" y="1331.6666666666667" type="line"/>
    </contour>
  </outline>
</glyph>
<glyph name="IJ.alt5" format="2">
  <advance width="1240.0"/>
  <outline>
    <contour>
      <point x="183.33333333333334" y="659.3333333333334" type="line"/>
      <point x="379.0" y="659.3333333333334" type="line"/>
      <point x="379.0" y="1460.0" type="line"/>
      <point x="183.33333333333334" y="1460.0" type="line"/>
    </contour>
    <contour>
      <point x="460.33333333333337" y="0.0" type="line"/>
      <point x="773.0" y="0.0" type="line"/>
      <point x="1058.0" y="208.33333333333337" type="line"/>
      <point x="1058.0" y="1460.0" type="line"/>
      <point x="862.3333333333334" y="1460.0" type="line"/>
      <point x="862.3333333333334" y="285.6666666666667" type="line"/>
      <point x="678.3333333333334" y="163.66666666666669" type="line"/>
      <point x="555.0" y="163.66666666666669" type="line"/>
      <point x="377.6666666666667" y="285.6666666666667" type="line"/>
      <point x="377.6666666666667" y="423.0" type="line"/>
      <point x="182.00000000000003" y="423.0" type="line"/>
      <point x="182.00000000000003" y="208.33333333333337" type="line"/>
    </contour>
    <contour>
      <point x="558.6666666666667" y="1294.6666666666667" type="line"/>
      <point x="979.6666666666667" y="1294.6666666666667" type="line"/>
      <point x="979.6666666666667" y="1460.0" type="line"/>
      <point x="582.0" y="1460.0" type="line"/>
    </contour>
  </outline>
</glyph>
<glyph name="Iacute.alt1.color0" format="2">
  <advance width="1240.0"/>
  <outline>
    <contour>
      <point x="516.3333333333334" y="0.0" type="line"/>
      <point x="710.3333333333334" y="0.0" type="line"/>
      <point x="710.3333333333334" y="1460.0" type="line"/>
      <point x="516.3333333333334" y="1460.0" type="line"/>
    </contour>
    <contour>
      <point x="169.66666666666669" y="0.0" type="line"/>
      <point x="1070.3333333333335" y="0.0" type="line"/>
      <point x="1090.3333333333335" y="163.66666666666669" type="line"/>
      <point x="149.66666666666669" y="163.66666666666669" type="line"/>
    </contour>
    <contour>
      <point x="149.66666666666669" y="1296.3333333333335" type="line"/>
      <point x="1090.3333333333335" y="1296.3333333333335" type="line"/>
      <point x="1070.3333333333335" y="1460.0" type="line"/>
      <point x="169.66666666666669" y="1460.0" type="line"/>
    </contour>
    <contour>
      <point x="694.6666666666667" y="1639.8106666666667" type="line"/>
      <point x="535.6666666666667" y="1639.8106666666667" type="line"/>
      <point x="744.6666666666667" y="1881.286" type="line"/>
      <point x="946.3333333333335" y="1881.286" type="line"/>
    </contour>
  </outline>
</glyph>
<glyph name="Icircumflex.alt1" format="2">
  <advance width="1240.0"/>
  <outline>
    <contour>
      <point x="516.3333333333334" y="0.0" type="line"/>
      <point x="710.3333333333334" y="0.0" type="line"/>
      <point x="710.3333333333334" y="1460.0" type="line"/>
      <point x="516.3333333333334" y="1460.0" type="line"/>
    </contour>
    <contour>
      <point x="169.66666666666669" y="0.0" type="line"/>
      <point x="1070.3333333333335" y="0.0" type="line"/>
      <point x="1090.3333333333335" y="163.66666666666669" type="line"/>
      <point x="149.66666666666669" y="163.66666666666669" type="line"/>
    </contour>
    <contour>
      <point x="149.66666666666669" y="1296.3333333333335" type="line"/>
      <point x="1090.3333333333335" y="1296.3333333333335" type="line"/>
      <point x="1070.3333333333335" y="1460.0" type="line"/>
      <point x="169.66666666666669" y="1460.0" type="line"/>
    </contour>
    <contour>
      <point x="265.0" y="1640.0000000000002" type="line"/>
      <point x="447.00000000000006" y="1640.0000000000002" type="line"/>
      <point x="646.6666666666667" y="1844.0000000000002" type="line"/>
      <point x="593.3333333333334" y="1844.0000000000002" type="line"/>
      <point x="793.0" y="1640.0000000000002" type="line"/>
      <point x="975.0000000000001" y="1640.0000000000002" type="line"/>
      <point x="723.0" y="1881.3333333333335" type="line"/>
      <point x="517.0" y="1881.3333333333335" type="line"/>
    </contour>
  </outline>
</glyph>
<glyph name="Idieresis.alt5" format="2">
  <advance width="1240.0"/>
  <outline>
    <contour>
      <point x="516.3333333333334" y="0.0" type="line"/>
      <point x="710.3333333333334" y="0.0" type="line"/>
      <point x="710.3333333333334" y="1460.0" type="line"/>
      <point x="516.3333333333334" y="1460.0" type="line"/>
    </contour>
    <contour>
      <point x="169.66666666666669" y="0.0" type="line"/>
      <point x="1070.3333333333335" y="0.0" type="line"/>
      <point x="1090.3333333333335" y="163.66666666666669" type="line"/>
      <point x="149.66666666666669" y="163.66666666666669" type="line"/>
    </contour>
    <contour>
      <point x="149.66666666666669" y="1296.3333333333335" type="line"/>
      <point x="1090.3333333333335" y="1296.3333333333335" type="line"/>
      <point x="1070.3333333333335" y="1460.0" type="line"/>
      <point x="169.66666666666669" y="1460.0" type="line"/>
    </contour>
    <contour>
      <point x="362.2933333333334" y="1623.6000000000001" type="line"/>
      <point x="508.77066666666667" y="1766.2666666666667" type="line"/>
      <point x="362.2933333333334" y="1908.6666666666667" type="line"/>
      <point x="215.5546666666667" y="1766.2666666666667" type="line"/>
    </contour>
    <contour>
      <point x="877.96" y="1623.6000000000001" type="line"/>
      <point x="1024.4373333333335" y="1766.2666666666667" type="line"/>
      <point x="877.96" y="1908.6666666666667" type="line"/>
      <point x="731.2213333333334" y="1766.2666666666667" type="line"/>
    </contour>
  </outline>
</glyph>
<glyph name="Idotbelow.alt5.color0" format="2">
  <advance width="1240.0"/>
  <outline>
    <contour>
      <point x="516.3333333333334" y="0.0" type="line"/>
      <point x="710.3333333333334" y="0.0" type="line"/>
      <point x="710.3333333333334" y="1460.0" type="line"/>
      <point x="516.3333333333334" y="1460.0" type="line"/>
    </contour>
    <contour>
      <point x="169.66666666666669" y="0.0" type="line"/>
      <point x="1070.3333333333335" y="0.0" type="line"/>
      <point x="1090.3333333333335" y="163.66666666666669" type="line"/>
      <point x="149.66666666666669" y="163.66666666666669" type="line"/>
    </contour>
    <contour>
      <point x="149.66666666666669" y="1296.3333333333335" type="line"/>
      <point x="1090.3333333333335" y="1296.3333333333335" type="line"/>
      <point x="1070.3333333333335" y="1460.0" type="line"/>
      <point x="169.66666666666669" y="1460.0" type="line"/>
    </contour>
    <contour>
      <point x="620.0" y="-540.0" type="line"/>
      <point x="784.0" y="-383.33333333333337" type="line"/>
      <point x="620.0" y="-227.0" type="line"/>
      <point x="455.66666666666674" y="-383.33333333333337" type="line"/>
    </contour>
  </outline>
</glyph>
<glyph name="Imacron.alt1" format="2">
  <advance width="1240.0"/>
  <outline>
    <contour>
      <point x="516.3333333333334" y="0.0" type="line"/>
      <point x="710.3333333333334" y="0.0" type="line"/>
      <point x="710.3333333333334" y="1460.0" type="line"/>
      <point x="516.3333333333334" y="1460.0" type="line"/>
    </contour>
    <contour>
      <point x="169.66666666666669" y="0.0" type="line"/>
      <point x="1070.3333333333335" y="0.0" type="line"/>
      <point x="1090.3333333333335" y="163.66666666666669" type="line"/>
      <point x="149.66666666666669" y="163.66666666666669" type="line"/>
    </contour>
    <contour>
      <point x="149.66666666666669" y="1296.3333333333335" type="line"/>
      <point x="1090.3333333333335" y="1296.3333333333335" type="line"/>
      <point x="1070.3333333333335" y="1460.0" type="line"/>
      <point x="169.66666666666669" y="1460.0" type="line"/>
    </contour>
    <contour>
      <point x="299.0" y="1717.666666666667" type="line"/>
      <point x="941.0000000000001" y="1717.666666666667" type="line"/>
      <point x="941.0000000000001" y="1848.6666666666667" type="line"/>
      <point x="299.0" y="1848.6666666666667" type="line"/>
    </contour>
  </outline>
</glyph>
<glyph name="Iogonek.alt5" format="2">
  <advance width="1240.0"/>
  <outline>
    <contour>
      <point x="516.3333333333334" y="0.0" type="line"/>
      <point x="710.3333333333334" y="0.0" type="line"/>
      <point x="710.3333333333334" y="1460.0" type="line"/>
      <point x="516.3333333333334" y="1460.0" type="line"/>
    </contour>
    <contour>
      <point x="169.66666666666669" y="0.0" type="line"/>
      <point x="1070.3333333333335" y="0.0" type="line"/>
      <point x="1090.3333333333335" y="163.66666666666669" type="line"/>
      <point x="149.66666666666669" y="163.66666666666669" type="line"/>
    </contour>
    <contour>
      <point x="149.66666666666669" y="1296.3333333333335" type="line"/>
      <point x="1090.3333333333335" y="1296.3333333333335" type="line"/>
      <point x="1070.3333333333335" y="1460.0" type="line"/>
      <point x="169.66666666666669" y="1460.0" type="line"/>
    </contour>
    <contour>
      <point x="421.6666666666667" y="-125.66666666666667" type="line"/>
      <point x="421.6666666666667" y="-313.33333333333337" type="line"/>
      <point x="581.3333333333334" y="-414.33333333333337" type="line"/>
      <point x="710.6666666666667" y="-414.33333333333337" type="line"/>
      <point x="710.6666666666667" y="-286.6666666666667" type="line"/>
      <point x="626.0" y="-286.6666666666667" type="line"/>
      <point x="564.0" y="-244.66666666666669" type="line"/>
      <point x="564.0" y="-158.33333333333334" type="line"/>
      <point x="717.0" y="0.0" type="line"/>
      <point x="623.3333333333334" y="39.333333333333336" type="line"/>
    </contour>
  </outline>
</glyph>
<glyph name="Itilde.alt5.color0" format="2">
  <advance width="1240.0"/>
  <outline>
    <contour>
      <point x="516.3333333333334" y="0.0" type="line"/>
      <point x="710.3333333333334" y="0.0" type="line"/>
      <point x="710.3333333333334" y="1460.0" type="line"/>
      <point x="516.3333333333334" y="1460.0" type="line"/>
    </contour>
    <contour>
      <point x="169.66666666666669" y="0.0" type="line"/>
      <point x="1070.3333333333335" y="0.0" type="line"/>
      <point x="1090.3333333333335" y="163.66666666666669" type="line"/>
      <point x="149.66666666666669" y="163.66666666666669" type="line"/>
    </contour>
    <contour>
      <point x="149.66666666666669" y="1296.3333333333335" type="line"/>
      <point x="1090.3333333333335" y="1296.3333333333335" type="line"/>
      <point x="1070.3333333333335" y="1460.0" type="line"/>
      <point x="169.66666666666669" y="1460.0" type="line"/>
    </contour>
    <contour>
      <point x="577.0" y="1891.0000000000002" type="line"/>
      <point x="367.66666666666674" y="1891.0000000000002" type="line"/>
      <point x="236.66666666666669" y="1758.0" type="line"/>
      <point x="236.66666666666669" y="1632.3333333333335" type="line"/>
      <point x="364.33333333333337" y="1632.3333333333335" type="line"/>
      <point x="364.33333333333337" y="1713.3333333333335" type="line"/>
      <point x="429.6666666666667" y="1781.3333333333335" type="line"/>
      <point x="513.0" y="1781.3333333333335" type="line"/>
      <point x="663.0" y="1632.3333333333335" type="line"/>
      <point x="872.3333333333334" y="1632.3333333333335" type="line"/>
      <point x="1003.3333333333334" y="1765.3333333333335" type="line"/>
      <point x="1003.3333333333334" y="1891.0000000000002" type="line"/>
      <point x="875.6666666666667" y="1891.0000000000002" type="line"/>
      <point x="875.6666666666667" y="1806.6666666666667" type="line"/>
      <point x="810.3333333333334" y="1742.0000000000002" type="line"/>
      <point x="727.0" y="1742.0000000000002" type="line"/>
    </contour>
  </outline>
</glyph>
<glyph name="J.alt5" format="2">
  <advance width="1240.0"/>
  <outline>
    <contour>
      <point x="526.6666666666667" y="0.0" type="line"/>
      <point x="719.0" y="0.0" type="line"/>
      <point x="1057.3333333333335" y="475.33333333333337" type="line"/>
      <point x="1057.3333333333335" y="1460.0" type="line"/>
      <point x="865.0" y="1460.0" type="line"/>
      <point x="865.0" y="532.0" type="line"/>
      <point x="596.0" y="134.0" type="line"/>
      <point x="649.6666666666667" y="134.0" type="line"/>
      <point x="360.6666666666667" y="534.6666666666667" type="line"/>
      <point x="360.6666666666667" y="764.6666666666667" type="line"/>
      <point x="168.33333333333337" y="764.6666666666667" type="line"/>
      <point x="168.33333333333337" y="475.33333333333337" type="line"/>
    </contour>
    <contour>
      <point x="287.6666666666667" y="1294.6666666666667" type="line"/>
      <point x="979.6666666666667" y="1294.6666666666667" type="line"/>
      <point x="979.6666666666667" y="1460.0" type="line"/>
      <point x="311.0" y="1460.0" type="line"/>
    </contour>
  </outline>
</glyph>
<glyph name="Jcircumflex.alt5" format="2">
  <advance width="1240.0"/>
  <outline>
    <contour>
      <point x="526.6666666666667" y="0.0" type="line"/>
      <point x="719.0" y="0.0" type="line"/>
      <point x="1057.3333333333335" y="475.33333333333337" type="line"/>
      <point x="1057.3333333333335" y="1460.0" type="line"/>
      <point x="865.0" y="1460.0" type="line"/>
      <point x="865.0" y="532.0" type="line"/>
      <point x="596.0" y="134.0" type="line"/>
      <point x="649.6666666666667" y="134.0" type="line"/>
      <point x="360.6666666666667" y="534.6666666666667" type="line"/>
      <point x="360.6666666666667" y="764.6666666666667" type="line"/>
      <point x="168.33333333333337" y="764.6666666666667" type="line"/>
      <point x="168.33333333333337" y="475.33333333333337" type="line"/>
    </contour>
    <contour>
      <point x="287.6666666666667" y="1294.6666666666667" type="line"/>
      <point x="979.6666666666667" y="1294.6666666666667" type="line"/>
      <point x="979.6666666666667" y="1460.0" type="line"/>
      <point x="311.0" y="1460.0" type="line"/>
    </contour>
    <contour>
      <point x="284.33333333333337" y="1640.0000000000002" type="line"/>
      <point x="466.33333333333337" y="1640.0000000000002" type="line"/>
      <point x="666.0" y="1844.0000000000002" type="line"/>
      <point x="612.6666666666667" y="1844.0000000000002" type="line"/>
      <point x="812.3333333333335" y="1640.0000000000002" type="line"/>
      <point x="994.3333333333334" y="1640.0000000000002" type="line"/>
      <point x="742.3333333333334" y="1881.3333333333335" type="line"/>
      <point x="536.3333333333334" y="1881.3333333333335" type="line"/>
    </contour>
  </outline>
</glyph>
<glyph name="Kcommaaccent.alt5" format="2">
  <advance width="1240.0"/>
  <outline>
    <contour>
      <point x="872.3333333333335" y="0.0" type="line"/>
      <point x="1078.0" y="0.0" type="line"/>
      <point x="1078.0" y="297.6666666666667" type="line"/>
      <point x="695.3333333333334" y="806.3333333333334" type="line"/>
      <point x="695.3333333333334" y="699.0" type="line"/>
      <point x="1078.0" y="1162.3333333333335" type="line"/>
      <point x="1078.0" y="1460.0" type="line"/>
      <point x="882.3333333333335" y="1460.0" type="line"/>
      <point x="882.3333333333335" y="1199.0" type="line"/>
      <point x="557.0" y="788.0" type="line"/>
      <point x="621.3333333333334" y="823.3333333333334" type="line"/>
      <point x="334.0" y="823.3333333333334" type="line"/>
      <point x="334.0" y="662.6666666666667" type="line"/>
      <point x="615.3333333333334" y="662.6666666666667" type="line"/>
      <point x="541.0" y="685.6666666666667" type="line"/>
      <point x="872.3333333333335" y="247.66666666666669" type="line"/>
    </contour>
    <contour>
      <point x="184.0" y="0.0" type="line"/>
      <point x="380.33333333333337" y="0.0" type="line"/>
      <point x="380.33333333333337" y="1460.0" type="line"/>
      <point x="184.0" y="1460.0" type="line"/>
    </contour>
    <contour>
      <point x="500.6666666666667" y="-516.0" type="line"/>
      <point x="683.0" y="-516.0" type="line"/>
      <point x="683.0" y="-453.33333333333337" type="line"/>
      <point x="481.33333333333337" y="-711.6666666666667" type="line"/>
      <point x="573.0" y="-760.0" type="line"/>
      <point x="758.3333333333334" y="-519.3333333333334" type="line"/>
      <point x="758.3333333333334" y="-258.33333333333337" type="line"/>
      <point x="500.6666666666667" y="-258.33333333333337" type="line"/>
    </contour>
  </outline>
</glyph>
<glyph name="L.alt4" format="2">
  <advance width="1240.0"/>
  <outline>
    <contour>
      <point x="195.66666666666669" y="0.0" type="line"/>
      <point x="389.33333333333337" y="0.0" type="line"/>
      <point x="389.33333333333337" y="1460.0" type="line"/>
      <point x="195.66666666666669" y="1460.0" type="line"/>
    </contour>
    <contour>
      <point x="305.6666666666667" y="0.0" type="line"/>
      <point x="1092.6666666666667" y="0.0" type="line"/>
      <point x="1116.0" y="163.66666666666669" type="line"/>
      <point x="305.6666666666667" y="163.66666666666669" type="line"/>
    </contour>
  </outline>
</glyph>
<glyph name="Lacute.alt1.color0" format="2">
  <advance width="1240.0"/>
  <outline>
    <contour>
      <point x="195.66666666666669" y="0.0" type="line"/>
      <point x="389.33333333333337" y="0.0" type="line"/>
      <point x="389.33333333333337" y="1460.0" type="line"/>
      <point x="195.66666666666669" y="1460.0" type="line"/>
    </contour>
    <contour>
      <point x="305.6666666666667" y="0.0" type="line"/>
      <point x="1092.6666666666667" y="0.0" type="line"/>
      <point x="1116.0" y="163.66666666666669" type="line"/>
      <point x="305.6666666666667" y="163.66666666666669" type="line"/>
    </contour>
    <contour>
      <point x="378.6666666666667" y="1639.8106666666667" type="line"/>
      <point x="219.66666666666669" y="1639.8106666666667" type="line"/>
      <point x="428.6666666666667" y="1881.286" type="line"/>
      <point x="630.3333333333334" y="1881.286" type="line"/>
    </contour>
  </outline>
</glyph>
<glyph name="Lcaron.alt5.color0" format="2">
  <advance width="1240.0"/>
  <outline>
    <contour>
      <point x="195.66666666666669" y="0.0" type="line"/>
      <point x="389.33333333333337" y="0.0" type="line"/>
      <point x="389.33333333333337" y="1460.0" type="line"/>
      <point x="195.66666666666669" y="1460.0" type="line"/>
    </contour>
    <contour>
      <point x="305.6666666666667" y="0.0" type="line"/>
      <point x="1092.6666666666667" y="0.0" type="line"/>
      <point x="1116.0" y="163.66666666666669" type="line"/>
      <point x="305.6666666666667" y="163.66666666666669" type="line"/>
    </contour>
    <contour>
      <point x="593.0" y="1222.0" type="line"/>
      <point x="740.0" y="1222.0" type="line"/>
      <point x="781.0" y="1578.0000000000002" type="line"/>
      <point x="610.0" y="1578.0000000000002" type="line"/>
    </contour>
  </outline>
</glyph>
<glyph name="Lcommaaccent.alt5.color0" format="2">
  <advance width="1240.0"/>
  <outline>
    <contour>
      <point x="195.66666666666669" y="0.0" type="line"/>
      <point x="389.33333333333337" y="0.0" type="line"/>
      <point x="389.33333333333337" y="1460.0" type="line"/>
      <point x="195.66666666666669" y="1460.0" type="line"/>
    </contour>
    <contour>
      <point x="305.6666666666667" y="0.0" type="line"/>
      <point x="1092.6666666666667" y="0.0" type="line"/>
      <point x="1116.0" y="163.66666666666669" type="line"/>
      <point x="305.6666666666667" y="163.66666666666669" type="line"/>
    </contour>
    <contour>
      <point x="500.6666666666667" y="-516.0" type="line"/>
      <point x="683.0" y="-516.0" type="line"/>
      <point x="683.0" y="-453.33333333333337" type="line"/>
      <point x="481.33333333333337" y="-711.6666666666667" type="line"/>
      <point x="573.0" y="-760.0" type="line"/>
      <point x="758.3333333333334" y="-519.3333333333334" type="line"/>
      <point x="758.3333333333334" y="-258.33333333333337" type="line"/>
      <point x="500.6666666666667" y="-258.33333333333337" type="line"/>
    </contour>
  </outline>
</glyph>
<glyph name="Ldot.alt1" format="2">
  <advance width="1240.0"/>
  <outline>
    <contour>
      <point x="195.66666666666669" y="0.0" type="line"/>
      <point x="389.33333333333337" y="0.0" type="line"/>
      <point x="389.33333333333337" y="1460.0" type="line"/>
      <point x="195.66666666666669" y="1460.0" type="line"/>
    </contour>
    <contour>
      <point x="305.6666666666667" y="0.0" type="line"/>
      <point x="1092.6666666666667" y="0.0" type="line"/>
      <point x="1116.0" y="163.66666666666669" type="line"/>
      <point x="305.6666666666667" y="163.66666666666669" type="line"/>
    </contour>
    <contour>
      <point x="923.6666666666667" y="665.3333333333334" type="line"/>
      <point x="1087.6666666666667" y="822.0" type="line"/>
      <point x="923.6666666666667" y="978.3333333333335" type="line"/>
      <point x="759.3333333333334" y="822.0" type="line"/>
    </contour>
  </outline>
</glyph>
<glyph name="Nacute.alt1" format="2">
  <advance width="1240.0"/>
  <outline>
    <contour>
      <point x="182.00000000000003" y="0.0" type="line"/>
      <point x="364.33333333333337" y="0.0" type="line"/>
      <point x="364.33333333333337" y="1084.6666666666667" type="line"/>
      <point x="376.33333333333337" y="1084.6666666666667" type="line"/>
      <point x="894.3333333333335" y="0.6666666666666667" type="line"/>
      <point x="1058.0" y="0.6666666666666667" type="line"/>
      <point x="1058.0" y="1460.6666666666667" type="line"/>
      <point x="875.6666666666667" y="1460.6666666666667" type="line"/>
      <point x="875.6666666666667" y="399.6666666666667" type="line"/>
      <point x="863.6666666666667" y="399.6666666666667" type="line"/>
      <point x="356.33333333333337" y="1460.0" type="line"/>
      <point x="182.00000000000003" y="1460.0" type="line"/>
    </contour>
    <contour>
      <point x="694.6666666666667" y="1639.8106666666667" type="line"/>
      <point x="535.6666666666667" y="1639.8106666666667" type="line"/>
      <point x="744.6666666666667" y="1881.286" type="line"/>
      <point x="946.3333333333335" y="1881.286" type="line"/>
    </contour>
  </outline>
</glyph>
<glyph name="Ncaron.alt5" format="2">
  <advance width="1240.0"/>
  <outline>
    <contour>
      <point x="182.00000000000003" y="0.0" type="line"/>
      <point x="364.33333333333337" y="0.0" type="line"/>
      <point x="364.33333333333337" y="1084.6666666666667" type="line"/>
      <point x="376.33333333333337" y="1084.6666666666667" type="line"/>
      <point x="894.3333333333335" y="0.6666666666666667" type="line"/>
      <point x="1058.0" y="0.6666666666666667" type="line"/>
      <point x="1058.0" y="1460.6666666666667" type="line"/>
      <point x="875.6666666666667" y="1460.6666666666667" type="line"/>
      <point x="875.6666666666667" y="399.6666666666667" type="line"/>
      <point x="863.6666666666667" y="399.6666666666667" type="line"/>
      <point x="356.33333333333337" y="1460.0" type="line"/>
      <point x="182.00000000000003" y="1460.0" type="line"/>
    </contour>
    <contour>
      <point x="265.0" y="1881.3333333333335" type="line"/>
      <point x="447.00000000000006" y="1881.3333333333335" type="line"/>
      <point x="646.6666666666667" y="1677.3333333333335" type="line"/>
      <point x="593.3333333333334" y="1677.3333333333335" type="line"/>
      <point x="793.0" y="1881.3333333333335" type="line"/>
      <point x="975.0000000000001" y="1881.3333333333335" type="line"/>
      <point x="723.0" y="1640.0000000000002" type="line"/>
      <point x="517.0" y="1640.0000000000002" type="line"/>
    </contour>
  </outline>
</glyph>
<glyph name="Ncommaaccent.alt5" format="2">
  <advance width="1240.0"/>
  <outline>
    <contour>
      <point x="182.00000000000003" y="0.0" type="line"/>
      <point x="364.33333333333337" y="0.0" type="line"/>
      <point x="364.33333333333337" y="1084.6666666666667" type="line"/>
      <point x="376.33333333333337" y="1084.6666666666667" type="line"/>
      <point x="894.3333333333335" y="0.6666666666666667" type="line"/>
      <point x="1058.0" y="0.6666666666666667" type="line"/>
      <point x="1058.0" y="1460.6666666666667" type="line"/>
      <point x="875.6666666666667" y="1460.6666666666667" type="line"/>
      <point x="875.6666666666667" y="399.6666666666667" type="line"/>
      <point x="863.6666666666667" y="399.6666666666667" type="line"/>
      <point x="356.33333333333337" y="1460.0" type="line"/>
      <point x="182.00000000000003" y="1460.0" type="line"/>
    </contour>
    <contour>
      <point x="500.6666666666667" y="-516.0" type="line"/>
      <point x="683.0" y="-516.0" type="line"/>
      <point x="683.0" y="-453.33333333333337" type="line"/>
      <point x="481.33333333333337" y="-711.6666666666667" type="line"/>
      <point x="573.0" y="-760.0" type="line"/>
      <point x="758.3333333333334" y="-519.3333333333334" type="line"/>
      <point x="758.3333333333334" y="-258.33333333333337" type="line"/>
      <point x="500.6666666666667" y="-258.33333333333337" type="line"/>
    </contour>
  </outline>
</glyph>
<glyph name="Ntilde.alt1" format="2">
  <advance width="1240.0"/>
  <outline>
    <contour>
      <point x="182.00000000000003" y="0.0" type="line"/>
      <point x="364.33333333333337" y="0.0" type="line"/>
      <point x="364.33333333333337" y="1084.6666666666667" type="line"/>
      <point x="376.33333333333337" y="1084.6666666666667" type="line"/>
      <point x="894.3333333333335" y="0.6666666666666667" type="line"/>
      <point x="1058.0" y="0.6666666666666667" type="line"/>
      <point x="1058.0" y="1460.6666666666667" type="line"/>
      <point x="875.6666666666667" y="1460.6666666666667" type="line"/>
      <point x="875.6666666666667" y="399.6666666666667" type="line"/>
      <point x="863.6666666666667" y="399.6666666666667" type="line"/>
      <point x="356.33333333333337" y="1460.0" type="line"/>
      <point x="182.00000000000003" y="1460.0" type="line"/>
    </contour>
    <contour>
      <point x="577.0" y="1891.0000000000002" type="line"/>
      <point x="367.66666666666674" y="1891.0000000000002" type="line"/>
      <point x="236.66666666666669" y="1758.0" type="line"/>
      <point x="236.66666666666669" y="1632.3333333333335" type="line"/>
      <point x="364.33333333333337" y="1632.3333333333335" type="line"/>
      <point x="364.33333333333337" y="1713.3333333333335" type="line"/>
      <point x="429.6666666666667" y="1781.3333333333335" type="line"/>
      <point x="513.0" y="1781.3333333333335" type="line"/>
      <point x="663.0" y="1632.3333333333335" type="line"/>
      <point x="872.3333333333334" y="1632.3333333333335" type="line"/>
      <point x="1003.3333333333334" y="1765.3333333333335" type="line"/>
      <point x="1003.3333333333334" y="1891.0000000000002" type="line"/>
      <point x="875.6666666666667" y="1891.0000000000002" type="line"/>
      <point x="875.6666666666667" y="1806.6666666666667" type="line"/>
      <point x="810.3333333333334" y="1742.0000000000002" type="line"/>
      <point x="727.0" y="1742.0000000000002" type="line"/>
    </contour>
  </outline>
</glyph>
<glyph name="OE.alt1" format="2">
  <advance width="1240.0"/>
  <outline>
    <contour>
      <point x="633.3333333333334" y="0.0" type="line"/>
      <point x="817.0" y="0.0" type="line"/>
      <point x="817.0" y="1460.0" type="line"/>
      <point x="633.3333333333334" y="1460.0" type="line"/>
    </contour>
    <contour>
      <point x="743.3333333333334" y="0.0" type="line"/>
      <point x="1140.6666666666667" y="0.0" type="line"/>
      <point x="1164.0" y="163.66666666666669" type="line"/>
      <point x="743.3333333333334" y="163.66666666666669" type="line"/>
    </contour>
    <contour>
      <point x="743.3333333333334" y="652.3333333333334" type="line"/>
      <point x="1063.6666666666667" y="652.3333333333334" type="line"/>
      <point x="1063.6666666666667" y="808.0" type="line"/>
      <point x="743.3333333333334" y="808.0" type="line"/>
    </contour>
    <contour>
      <point x="743.3333333333334" y="1296.3333333333335" type="line"/>
      <point x="1137.3333333333335" y="1296.3333333333335" type="line"/>
      <point x="1114.0" y="1460.0" type="line"/>
      <point x="743.3333333333334" y="1460.0" type="line"/>
    </contour>
    <contour>
      <point x="694.0" y="0.0" type="line"/>
      <point x="694.0" y="163.66666666666669" type="line"/>
      <point x="541.0" y="163.66666666666669" type="line"/>
      <point x="284.33333333333337" y="594.3333333333334" type="line"/>
      <point x="284.33333333333337" y="879.6666666666667" type="line"/>
      <point x="541.0" y="1296.3333333333335" type="line"/>
      <point x="694.0" y="1296.3333333333335" type="line"/>
      <point x="694.0" y="1460.0" type="line"/>
      <point x="440.33333333333337" y="1460.0" type="line"/>
      <point x="102.00000000000001" y="934.3333333333335" type="line"/>
      <point x="102.00000000000001" y="539.6666666666667" type="line"/>
      <point x="440.33333333333337" y="0.0" type="line"/>
    </contour>
  </outline>
</glyph>
<glyph name="Oacute.alt1.color0" format="2">
  <advance width="1240.0"/>
  <outline>
    <contour>
      <point x="485.66666666666674" y="0.0" type="line"/>
      <point x="753.6666666666667" y="0.0" type="line"/>
      <point x="1129.3333333333335" y="536.0" type="line"/>
      <point x="1129.3333333333335" y="930.6666666666667" type="line"/>
      <point x="767.0" y="1460.0" type="line"/>
      <point x="485.66666666666674" y="1460.0" type="line"/>
      <point x="110.66666666666667" y="930.6666666666667" type="line"/>
      <point x="110.66666666666667" y="536.0" type="line"/>
    </contour>
    <contour>
      <point x="573.0" y="177.0" type="line"/>
      <point x="303.0" y="594.0" type="line"/>
      <point x="303.0" y="872.6666666666667" type="line"/>
      <point x="578.3333333333334" y="1283.0" type="line"/>
      <point x="671.6666666666667" y="1283.0" type="line"/>
      <point x="937.0000000000001" y="872.6666666666667" type="line"/>
      <point x="937.0000000000001" y="594.0" type="line"/>
      <point x="666.3333333333334" y="177.0" type="line"/>
    </contour>
    <contour>
      <point x="694.6666666666667" y="1639.8106666666667" type="line"/>
      <point x="535.6666666666667" y="1639.8106666666667" type="line"/>
      <point x="744.6666666666667" y="1881.286" type="line"/>
      <point x="946.3333333333335" y="1881.286" type="line"/>
    </contour>
  </outline>
</glyph>
<glyph name="Obreve.alt1.color0" format="2">
  <advance width="1240.0"/>
  <outline>
    <contour>
      <point x="485.66666666666674" y="0.0" type="line"/>
      <point x="753.6666666666667" y="0.0" type="line"/>
      <point x="1129.3333333333335" y="536.0" type="line"/>
      <point x="1129.3333333333335" y="930.6666666666667" type="line"/>
      <point x="767.0" y="1460.0" type="line"/>
      <point x="485.66666666666674" y="1460.0" type="line"/>
      <point x="110.66666666666667" y="930.6666666666667" type="line"/>
      <point x="110.66666666666667" y="536.0" type="line"/>
    </contour>
    <contour>
      <point x="573.0" y="177.0" type="line"/>
      <point x="303.0" y="594.0" type="line"/>
      <point x="303.0" y="872.6666666666667" type="line"/>
      <point x="578.3333333333334" y="1283.0" type="line"/>
      <point x="671.6666666666667" y="1283.0" type="line"/>
      <point x="937.0000000000001" y="872.6666666666667" type="line"/>
      <point x="937.0000000000001" y="594.0" type="line"/>
      <point x="666.3333333333334" y="177.0" type="line"/>
    </contour>
    <contour>
      <point x="466.33333333333337" y="1628.6666666666667" type="line"/>
      <point x="773.6666666666667" y="1628.6666666666667" type="line"/>
      <point x="918.0" y="1757.6666666666667" type="line"/>
      <point x="918.0" y="1881.3333333333335" type="line"/>
      <point x="792.0" y="1881.3333333333335" type="line"/>
      <point x="792.0" y="1804.666666666667" type="line"/>
      <point x="720.3333333333334" y="1741.666666666667" type="line"/>
      <point x="519.6666666666667" y="1741.666666666667" type="line"/>
      <point x="448.0" y="1804.666666666667" type="line"/>
      <point x="448.0" y="1881.3333333333335" type="line"/>
      <point x="322.0" y="1881.3333333333335" type="line"/>
      <point x="322.0" y="1756.6666666666667" type="line"/>
    </contour>
  </outline>
</glyph>
<glyph name="Ocircumflex.alt1.color0" format="2">
  <advance width="1240.0"/>
  <outline>
    <contour>
      <point x="485.66666666666674" y="0.0" type="line"/>
      <point x="753.6666666666667" y="0.0" type="line"/>
      <point x="1129.3333333333335" y="536.0" type="line"/>
      <point x="1129.3333333333335" y="930.6666666666667" type="line"/>
      <point x="767.0" y="1460.0" type="line"/>
      <point x="485.66666666666674" y="1460.0" type="line"/>
      <point x="110.66666666666667" y="930.6666666666667" type="line"/>
      <point x="110.66666666666667" y="536.0" type="line"/>
    </contour>
    <contour>
      <point x="573.0" y="177.0" type="line"/>
      <point x="303.0" y="594.0" type="line"/>
      <point x="303.0" y="872.6666666666667" type="line"/>
      <point x="578.3333333333334" y="1283.0" type="line"/>
      <point x="671.6666666666667" y="1283.0" type="line"/>
      <point x="937.0000000000001" y="872.6666666666667" type="line"/>
      <point x="937.0000000000001" y="594.0" type="line"/>
      <point x="666.3333333333334" y="177.0" type="line"/>
    </contour>
    <contour>
      <point x="265.0" y="1640.0000000000002" type="line"/>
      <point x="447.00000000000006" y="1640.0000000000002" type="line"/>
      <point x="646.6666666666667" y="1844.0000000000002" type="line"/>
      <point x="593.3333333333334" y="1844.0000000000002" type="line"/>
      <point x="793.0" y="1640.0000000000002" type="line"/>
      <point x="975.0000000000001" y="1640.0000000000002" type="line"/>
      <point x="723.0" y="1881.3333333333335" type="line"/>
      <point x="517.0" y="1881.3333333333335" type="line"/>
    </contour>
  </outline>
</glyph>
<glyph name="Ohungarumlaut.alt5" format="2">
  <advance width="1240.0"/>
  <outline>
    <contour>
      <point x="485.66666666666674" y="0.0" type="line"/>
      <point x="753.6666666666667" y="0.0" type="line"/>
      <point x="1129.3333333333335" y="536.0" type="line"/>
      <point x="1129.3333333333335" y="930.6666666666667" type="line"/>
      <point x="767.0" y="1460.0" type="line"/>
      <point x="485.66666666666674" y="1460.0" type="line"/>
      <point x="110.66666666666667" y="930.6666666666667" type="line"/>
      <point x="110.66666666666667" y="536.0" type="line"/>
    </contour>
    <contour>
      <point x="573.0" y="177.0" type="line"/>
      <point x="303.0" y="594.0" type="line"/>
      <point x="303.0" y="872.6666666666667" type="line"/>
      <point x="578.3333333333334" y="1283.0" type="line"/>
      <point x="671.6666666666667" y="1283.0" type="line"/>
      <point x="937.0000000000001" y="872.6666666666667" type="line"/>
      <point x="937.0000000000001" y="594.0" type="line"/>
      <point x="666.3333333333334" y="177.0" type="line"/>
    </contour>
    <contour>
      <point x="737.6666666666667" y="1639.8106666666667" type="line"/>
      <point x="872.6666666666667" y="1639.8106666666667" type="line"/>
      <point x="1045.3333333333335" y="1881.286" type="line"/>
      <point x="877.0" y="1881.286" type="line"/>
    </contour>
    <contour>
      <point x="355.6666666666667" y="1639.8106666666667" type="line"/>
      <point x="491.6666666666667" y="1639.8106666666667" type="line"/>
      <point x="663.3333333333334" y="1881.286" type="line"/>
      <point x="496.00000000000006" y="1881.286" type="line"/>
    </contour>
  </outline>
</glyph>
<glyph name="Omega.alt1.color0" format="2">
  <advance width="1240.0"/>
  <outline>
    <contour>
      <point x="620.3333333333334" y="1312.3333333333335" type="curve" smooth="yes"/>
      <point x="824.6666666666667" y="1312.3333333333335"/>
      <point x="959.6666666666667" y="1184.0"/>
      <point x="959.6666666666667" y="865.6666666666667" type="curve" smooth="yes"/>
      <point x="959.6666666666667" y="616.3333333333334"/>
      <point x="877.0000000000001" y="464.66666666666674"/>
      <point x="751.3333333333334" y="323.0" type="curve"/>
      <point x="751.3333333333334" y="0.0" type="line"/>
      <point x="1124.0" y="0.0" type="line"/>
      <point x="1124.0" y="154.33333333333331" type="line"/>
      <point x="841.3333333333335" y="154.33333333333331" type="line"/>
      <point x="841.3333333333335" y="247.0" type="line"/>
      <point x="1017.0" y="375.6666666666667"/>
      <point x="1153.3333333333335" y="571.6666666666667"/>
      <point x="1153.3333333333335" y="889.3333333333335" type="curve" smooth="yes"/>
      <point x="1153.3333333333335" y="1288.6666666666667"/>
      <point x="941.0" y="1484.0"/>
      <point x="620.3333333333334" y="1484.0" type="curve" smooth="yes"/>
      <point x="299.6666666666667" y="1484.0"/>
      <point x="87.33333333333334" y="1288.6666666666667"/>
      <point x="87.33333333333334" y="889.3333333333335" type="curve" smooth="yes"/>
      <point x="87.33333333333334" y="571.6666666666667"/>
      <point x="223.66666666666669" y="375.6666666666667"/>
      <point x="399.0" y="246.66666666666669" type="curve"/>
      <point x="399.0" y="154.33333333333331" type="line"/>
      <point x="116.66666666666667" y="154.33333333333331" type="line"/>
      <point x="116.66666666666667" y="0.0" type="line"/>
      <point x="489.33333333333337" y="0.0" type="line"/>
      <point x="489.33333333333337" y="323.0" type="line"/>
      <point x="363.6666666666667" y="464.66666666666674"/>
      <point x="281.0" y="616.3333333333334"/>
      <point x="281.0" y="865.6666666666667" type="curve" smooth="yes"/>
      <point x="281.0" y="1184.0"/>
      <point x="416.00000000000006" y="1312.3333333333335"/>
    </contour>
  </outline>
</glyph>
<glyph name="Oogonek.alt1" format="2">
  <advance width="1240.0"/>
  <outline>
    <contour>
      <point x="485.66666666666674" y="0.0" type="line"/>
      <point x="753.6666666666667" y="0.0" type="line"/>
      <point x="1129.3333333333335" y="536.0" type="line"/>
      <point x="1129.3333333333335" y="930.6666666666667" type="line"/>
      <point x="767.0" y="1460.0" type="line"/>
      <point x="485.66666666666674" y="1460.0" type="line"/>
      <point x="110.66666666666667" y="930.6666666666667" type="line"/>
      <point x="110.66666666666667" y="536.0" type="line"/>
    </contour>
    <contour>
      <point x="573.0" y="177.0" type="line"/>
      <point x="303.0" y="594.0" type="line"/>
      <point x="303.0" y="872.6666666666667" type="line"/>
      <point x="578.3333333333334" y="1283.0" type="line"/>
      <point x="671.6666666666667" y="1283.0" type="line"/>
      <point x="937.0000000000001" y="872.6666666666667" type="line"/>
      <point x="937.0000000000001" y="594.0" type="line"/>
      <point x="666.3333333333334" y="177.0" type="line"/>
    </contour>
    <contour>
      <point x="458.33333333333337" y="-125.66666666666667" type="line"/>
      <point x="458.33333333333337" y="-313.33333333333337" type="line"/>
      <point x="618.0" y="-414.33333333333337" type="line"/>
      <point x="747.3333333333334" y="-414.33333333333337" type="line"/>
      <point x="747.3333333333334" y="-286.6666666666667" type="line"/>
      <point x="662.6666666666667" y="-286.6666666666667" type="line"/>
      <point x="600.6666666666667" y="-244.66666666666669" type="line"/>
      <point x="600.6666666666667" y="-158.33333333333334" type="line"/>
      <point x="753.6666666666667" y="0.0" type="line"/>
      <point x="660.0" y="39.333333333333336" type="line"/>
    </contour>
  </outline>
</glyph>
<glyph name="Oslashacute.alt5.color0" format="2">
  <advance width="1240.0"/>
  <outline>
    <contour>
      <point x="427.00000000000006" y="264.33333333333337" type="line"/>
      <point x="923.6666666666667" y="1115.6666666666667" type="line"/>
      <point x="816.3333333333334" y="1201.3333333333335" type="line"/>
      <point x="326.33333333333337" y="361.0" type="line"/>
    </contour>
    <contour>
      <point x="215.66666666666669" y="-90.66666666666667" type="line"/>
      <point x="450.6666666666667" y="287.6666666666667" type="line"/>
      <point x="341.6666666666667" y="414.33333333333337" type="line"/>
      <point x="83.33333333333334" y="-8.000000000000002" type="line"/>
    </contour>
    <contour>
      <point x="907.3333333333335" y="1064.0" type="line"/>
      <point x="1155.6666666666667" y="1467.3333333333335" type="line"/>
      <point x="1021.3333333333334" y="1550.6666666666667" type="line"/>
      <point x="788.6666666666667" y="1178.3333333333335" type="line"/>
    </contour>
    <contour>
      <point x="485.66666666666674" y="0.0" type="line"/>
      <point x="753.6666666666667" y="0.0" type="line"/>
      <point x="1129.3333333333335" y="536.0" type="line"/>
      <point x="1129.3333333333335" y="930.6666666666667" type="line"/>
      <point x="767.0" y="1460.0" type="line"/>
      <point x="485.66666666666674" y="1460.0" type="line"/>
      <point x="110.66666666666667" y="930.6666666666667" type="line"/>
      <point x="110.66666666666667" y="536.0" type="line"/>
    </contour>
    <contour>
      <point x="573.0" y="177.0" type="line"/>
      <point x="303.0" y="594.0" type="line"/>
      <point x="303.0" y="872.6666666666667" type="line"/>
      <point x="578.3333333333334" y="1283.0" type="line"/>
      <point x="671.6666666666667" y="1283.0" type="line"/>
      <point x="937.0000000000001" y="872.6666666666667" type="line"/>
      <point x="937.0000000000001" y="594.0" type="line"/>
      <point x="666.3333333333334" y="177.0" type="line"/>
    </contour>
    <contour>
      <point x="694.6666666666667" y="1639.8106666666667" type="line"/>
      <point x="535.6666666666667" y="1639.8106666666667" type="line"/>
      <point x="744.6666666666667" y="1881.286" type="line"/>
      <point x="946.3333333333335" y="1881.286" type="line"/>
    </contour>
  </outline>
</glyph>
<glyph name="P.alt3" format="2">
  <advance width="1240.0"/>
  <outline>
    <contour>
      <point x="258.6666666666667" y="538.6666666666667" type="line"/>
      <point x="801.0" y="538.6666666666667" type="line"/>
      <point x="1116.0" y="871.6666666666667" type="line"/>
      <point x="1116.0" y="1175.6666666666667" type="line"/>
      <point x="803.0" y="1460.0" type="line"/>
      <point x="258.6666666666667" y="1460.0" type="line"/>
      <point x="258.6666666666667" y="1293.0" type="line"/>
      <point x="717.0" y="1293.0" type="line"/>
      <point x="923.6666666666667" y="1111.6666666666667" type="line"/>
      <point x="923.6666666666667" y="933.0" type="line"/>
      <point x="710.3333333333334" y="685.6666666666667" type="line"/>
      <point x="258.6666666666667" y="685.6666666666667" type="line"/>
    </contour>
    <contour>
      <point x="187.0" y="0.0" type="line"/>
      <point x="383.33333333333337" y="0.0" type="line"/>
      <point x="383.33333333333337" y="1460.0" type="line"/>
      <point x="187.0" y="1460.0" type="line"/>
    </contour>
  </outline>
</glyph>
<glyph name="Q.alt4.color0" format="2">
  <advance width="1240.0"/>
  <outline>
    <contour>
      <point x="734.6666666666667" y="-348.6666666666667" type="line"/>
      <point x="889.3333333333334" y="-259.0" type="line"/>
      <point x="303.0" y="594.0" type="line"/>
      <point x="303.0" y="872.6666666666667" type="line"/>
      <point x="573.0" y="1283.0" type="line"/>
      <point x="666.3333333333334" y="1283.0" type="line"/>
      <point x="937.0000000000001" y="872.6666666666667" type="line"/>
      <point x="937.0000000000001" y="594.0" type="line"/>
      <point x="666.3333333333334" y="177.0" type="line"/>
      <point x="525.3333333333334" y="177.0" type="line"/>
      <point x="553.3333333333334" y="0.0" type="line"/>
      <point x="753.6666666666667" y="0.0" type="line"/>
      <point x="1129.3333333333335" y="536.0" type="line"/>
      <point x="1129.3333333333335" y="930.6666666666667" type="line"/>
      <point x="767.0" y="1460.0" type="line"/>
      <point x="485.66666666666674" y="1460.0" type="line"/>
      <point x="110.66666666666667" y="930.6666666666667" type="line"/>
      <point x="110.66666666666667" y="536.0" type="line"/>
    </contour>
  </outline>
</glyph>
<glyph name="R.alt3.color0" format="2">
  <advance width="1240.0"/>
  <outline>
    <contour>
      <point x="258.6666666666667" y="608.6666666666667" type="line"/>
      <point x="784.3333333333334" y="608.6666666666667" type="line"/>
      <point x="1109.3333333333335" y="908.3333333333334" type="line"/>
      <point x="1109.3333333333335" y="1169.0" type="line"/>
      <point x="786.3333333333334" y="1460.0" type="line"/>
      <point x="258.6666666666667" y="1460.0" type="line"/>
      <point x="258.6666666666667" y="1293.0" type="line"/>
      <point x="703.6666666666667" y="1293.0" type="line"/>
      <point x="917.0000000000001" y="1101.6666666666667" type="line"/>
      <point x="917.0000000000001" y="959.6666666666667" type="line"/>
      <point x="703.6666666666667" y="745.6666666666667" type="line"/>
      <point x="258.6666666666667" y="745.6666666666667" type="line"/>
    </contour>
    <contour>
      <point x="187.0" y="0.0" type="line"/>
      <point x="383.33333333333337" y="0.0" type="line"/>
      <point x="383.33333333333337" y="1460.0" type="line"/>
      <point x="187.0" y="1460.0" type="line"/>
    </contour>
    <contour>
      <point x="895.6666666666667" y="0.0" type="line"/>
      <point x="1091.3333333333335" y="0.0" type="line"/>
      <point x="1091.3333333333335" y="261.6666666666667" type="line"/>
      <point x="790.6666666666667" y="685.0" type="line"/>
      <point x="589.0" y="685.0" type="line"/>
      <point x="895.6666666666667" y="237.66666666666669" type="line"/>
    </contour>
  </outline>
</glyph>
<glyph name="Rcaron.alt1.color0" format="2">
  <advance width="1240.0"/>
  <outline>
    <contour>
      <point x="258.6666666666667" y="608.6666666666667" type="line"/>
      <point x="784.3333333333334" y="608.6666666666667" type="line"/>
      <point x="1109.3333333333335" y="908.3333333333334" type="line"/>
      <point x="1109.3333333333335" y="1169.0" type="line"/>
      <point x="786.3333333333334" y="1460.0" type="line"/>
      <point x="258.6666666666667" y="1460.0" type="line"/>
      <point x="258.6666666666667" y="1293.0" type="line"/>
      <point x="703.6666666666667" y="1293.0" type="line"/>
      <point x="917.0000000000001" y="1101.6666666666667" type="line"/>
      <point x="917.0000000000001" y="959.6666666666667" type="line"/>
      <point x="703.6666666666667" y="745.6666666666667" type="line"/>
      <point x="258.6666666666667" y="745.6666666666667" type="line"/>
    </contour>
    <contour>
      <point x="187.0" y="0.0" type="line"/>
      <point x="383.33333333333337" y="0.0" type="line"/>
      <point x="383.33333333333337" y="1460.0" type="line"/>
      <point x="187.0" y="1460.0" type="line"/>
    </contour>
    <contour>
      <point x="895.6666666666667" y="0.0" type="line"/>
      <point x="1091.3333333333335" y="0.0" type="line"/>
      <point x="1091.3333333333335" y="261.6666666666667" type="line"/>
      <point x="790.6666666666667" y="685.0" type="line"/>
      <point x="589.0" y="685.0" type="line"/>
      <point x="895.6666666666667" y="237.66666666666669" type="line"/>
    </contour>
    <contour>
      <point x="265.0" y="1881.3333333333335" type="line"/>
      <point x="447.00000000000006" y="1881.3333333333335" type="line"/>
      <point x="646.6666666666667" y="1677.3333333333335" type="line"/>
      <point x="593.3333333333334" y="1677.3333333333335" type="line"/>
      <point x="793.0" y="1881.3333333333335" type="line"/>
      <point x="975.0000000000001" y="1881.3333333333335" type="line"/>
      <point x="723.0" y="1640.0000000000002" type="line"/>
      <point x="517.0" y="1640.0000000000002" type="line"/>
    </contour>
  </outline>
</glyph>
<glyph name="Rcommaaccent.alt1" format="2">
  <advance width="1240.0"/>
  <outline>
    <contour>
      <point x="258.6666666666667" y="608.6666666666667" type="line"/>
      <point x="784.3333333333334" y="608.6666666666667" type="line"/>
      <point x="1109.3333333333335" y="908.3333333333334" type="line"/>
      <point x="1109.3333333333335" y="1169.0" type="line"/>
      <point x="786.3333333333334" y="1460.0" type="line"/>
      <point x="258.6666666666667" y="1460.0" type="line"/>
      <point x="258.6666666666667" y="1293.0" type="line"/>
      <point x="703.6666666666667" y="1293.0" type="line"/>
      <point x="917.0000000000001" y="1101.6666666666667" type="line"/>
      <point x="917.0000000000001" y="959.6666666666667" type="line"/>
      <point x="703.6666666666667" y="745.6666666666667" type="line"/>
      <point x="258.6666666666667" y="745.6666666666667" type="line"/>
    </contour>
    <contour>
      <point x="187.0" y="0.0" type="line"/>
      <point x="383.33333333333337" y="0.0" type="line"/>
      <point x="383.33333333333337" y="1460.0" type="line"/>
      <point x="187.0" y="1460.0" type="line"/>
    </contour>
    <contour>
      <point x="895.6666666666667" y="0.0" type="line"/>
      <point x="1091.3333333333335" y="0.0" type="line"/>
      <point x="1091.3333333333335" y="261.6666666666667" type="line"/>
      <point x="790.6666666666667" y="685.0" type="line"/>
      <point x="589.0" y="685.0" type="line"/>
      <point x="895.6666666666667" y="237.66666666666669" type="line"/>
    </contour>
    <contour>
      <point x="500.6666666666667" y="-516.0" type="line"/>
      <point x="683.0" y="-516.0" type="line"/>
      <point x="683.0" y="-453.33333333333337" type="line"/>
      <point x="481.33333333333337" y="-711.6666666666667" type="line"/>
      <point x="573.0" y="-760.0" type="line"/>
      <point x="758.3333333333334" y="-519.3333333333334" type="line"/>
      <point x="758.3333333333334" y="-258.33333333333337" type="line"/>
      <point x="500.6666666666667" y="-258.33333333333337" type="line"/>
    </contour>
  </outline>
</glyph>
<glyph name="S.alt4.color0" format="2">
  <advance width="1240.0"/>
  <outline>
    <contour>
      <point x="175.33333333333334" y="0.0" type="line"/>
      <point x="830.3333333333334" y="0.0" type="line"/>
      <point x="1078.0" y="296.33333333333337" type="line"/>
      <point x="1078.0" y="497.0" type="line"/>
      <point x="361.6666666666667" y="1035.0" type="line"/>
      <point x="361.6666666666667" y="1111.0" type="line"/>
      <point x="505.0" y="1294.3333333333335" type="line"/>
      <point x="1054.6666666666667" y="1294.3333333333335" type="line"/>
      <point x="1031.3333333333335" y="1460.0" type="line"/>
      <point x="409.66666666666674" y="1460.0" type="line"/>
      <point x="162.0" y="1163.6666666666667" type="line"/>
      <point x="162.0" y="963.0000000000001" type="line"/>
      <point x="878.3333333333335" y="425.0" type="line"/>
      <point x="878.3333333333335" y="349.0" type="line"/>
      <point x="735.0" y="165.66666666666669" type="line"/>
      <point x="152.0" y="165.66666666666669" type="line"/>
    </contour>
  </outline>
</glyph>
<glyph name="Scaron.alt1" format="2">
  <advance width="1240.0"/>
  <outline>
    <contour>
      <point x="175.33333333333334" y="0.0" type="line"/>
      <point x="830.3333333333334" y="0.0" type="line"/>
      <point x="1078.0" y="296.33333333333337" type="line"/>
      <point x="1078.0" y="497.0" type="line"/>
      <point x="361.6666666666667" y="1035.0" type="line"/>
      <point x="361.6666666666667" y="1111.0" type="line"/>
      <point x="505.0" y="1294.3333333333335" type="line"/>
      <point x="1054.6666666666667" y="1294.3333333333335" type="line"/>
      <point x="1031.3333333333335" y="1460.0" type="line"/>
      <point x="409.66666666666674" y="1460.0" type="line"/>
      <point x="162.0" y="1163.6666666666667" type="line"/>
      <point x="162.0" y="963.0000000000001" type="line"/>
      <point x="878.3333333333335" y="425.0" type="line"/>
      <point x="878.3333333333335" y="349.0" type="line"/>
      <point x="735.0" y="165.66666666666669" type="line"/>
      <point x="152.0" y="165.66666666666669" type="line"/>
    </contour>
    <contour>
      <point x="291.6666666666667" y="1881.3333333333335" type="line"/>
      <point x="473.6666666666667" y="1881.3333333333335" type="line"/>
      <point x="673.3333333333334" y="1677.3333333333335" type="line"/>
      <point x="620.0" y="1677.3333333333335" type="line"/>
      <point x="819.6666666666667" y="1881.3333333333335" type="line"/>
      <point x="1001.6666666666667" y="1881.3333333333335" type="line"/>
      <point x="749.6666666666667" y="1640.0000000000002" type="line"/>
      <point x="543.6666666666667" y="1640.0000000000002" type="line"/>
    </contour>
  </outline>
</glyph>
<glyph name="Scedilla.alt1" format="2">
  <advance width="1240.0"/>
  <outline>
    <contour>
      <point x="175.33333333333334" y="0.0" type="line"/>
      <point x="830.3333333333334" y="0.0" type="line"/>
      <point x="1078.0" y="296.33333333333337" type="line"/>
      <point x="1078.0" y="497.0" type="line"/>
      <point x="361.6666666666667" y="1035.0" type="line"/>
      <point x="361.6666666666667" y="1111.0" type="line"/>
      <point x="505.0" y="1294.3333333333335" type="line"/>
      <point x="1054.6666666666667" y="1294.3333333333335" type="line"/>
      <point x="1031.3333333333335" y="1460.0" type="line"/>
      <point x="409.66666666666674" y="1460.0" type="line"/>
      <point x="162.0" y="1163.6666666666667" type="line"/>
      <point x="162.0" y="963.0000000000001" type="line"/>
      <point x="878.3333333333335" y="425.0" type="line"/>
      <point x="878.3333333333335" y="349.0" type="line"/>
      <point x="735.0" y="165.66666666666669" type="line"/>
      <point x="152.0" y="165.66666666666669" type="line"/>
    </contour>
    <contour>
      <point x="505.33333333333337" y="-589.0" type="line"/>
      <point x="692.6666666666667" y="-589.0" type="line"/>
      <point x="844.0000000000001" y="-461.33333333333337" type="line"/>
      <point x="844.0000000000001" y="-279.33333333333337" type="line"/>
      <point x="694.3333333333334" y="-159.33333333333334" type="line"/>
      <point x="642.3333333333334" y="-159.33333333333334" type="line"/>
      <point x="668.0" y="-197.33333333333334" type="line"/>
      <point x="668.0" y="48.0" type="line"/>
      <point x="545.3333333333334" y="48.0" type="line"/>
      <point x="545.3333333333334" y="-274.33333333333337" type="line"/>
      <point x="644.6666666666667" y="-274.33333333333337" type="line"/>
      <point x="727.6666666666667" y="-339.33333333333337" type="line"/>
      <point x="727.6666666666667" y="-401.33333333333337" type="line"/>
      <point x="644.6666666666667" y="-466.33333333333337" type="line"/>
      <point x="505.33333333333337" y="-466.33333333333337" type="line"/>
    </contour>
  </outline>
</glyph>
<glyph name="Scommaaccent.alt1" format="2">
  <advance width="1240.0"/>
  <outline>
    <contour>
      <point x="175.33333333333334" y="0.0" type="line"/>
      <point x="830.3333333333334" y="0.0" type="line"/>
      <point x="1078.0" y="296.33333333333337" type="line"/>
      <point x="1078.0" y="497.0" type="line"/>
      <point x="361.6666666666667" y="1035.0" type="line"/>
      <point x="361.6666666666667" y="1111.0" type="line"/>
      <point x="505.0" y="1294.3333333333335" type="line"/>
      <point x="1054.6666666666667" y="1294.3333333333335" type="line"/>
      <point x="1031.3333333333335" y="1460.0" type="line"/>
      <point x="409.66666666666674" y="1460.0" type="line"/>
      <point x="162.0" y="1163.6666666666667" type="line"/>
      <point x="162.0" y="963.0000000000001" type="line"/>
      <point x="878.3333333333335" y="425.0" type="line"/>
      <point x="878.3333333333335" y="349.0" type="line"/>
      <point x="735.0" y="165.66666666666669" type="line"/>
      <point x="152.0" y="165.66666666666669" type="line"/>
    </contour>
    <contour>
      <point x="500.6666666666667" y="-516.0" type="line"/>
      <point x="683.0" y="-516.0" type="line"/>
      <point x="683.0" y="-453.33333333333337" type="line"/>
      <point x="481.33333333333337" y="-711.6666666666667" type="line"/>
      <point x="573.0" y="-760.0" type="line"/>
      <point x="758.3333333333334" y="-519.3333333333334" type="line"/>
      <point x="758.3333333333334" y="-258.33333333333337" type="line"/>
      <point x="500.6666666666667" y="-258.33333333333337" type="line"/>
    </contour>
  </outline>
</glyph>
<glyph name="T.alt3.color0" format="2">
  <advance width="1240.0"/>
  <outline>
    <contour>
      <point x="517.3333333333334" y="0.0" type="line"/>
      <point x="711.3333333333334" y="0.0" type="line"/>
      <point x="711.3333333333334" y="1460.0" type="line"/>
      <point x="517.3333333333334" y="1460.0" type="line"/>
    </contour>
    <contour>
      <point x="95.00000000000001" y="1296.3333333333335" type="line"/>
      <point x="1144.3333333333335" y="1296.3333333333335" type="line"/>
      <point x="1127.6666666666667" y="1460.0" type="line"/>
      <point x="111.66666666666669" y="1460.0" type="line"/>
    </contour>
  </outline>
</glyph>
<glyph name="Tcaron.alt5" format="2">
  <advance width="1240.0"/>
  <outline>
    <contour>
      <point x="517.3333333333334" y="0.0" type="line"/>
      <point x="711.3333333333334" y="0.0" type="line"/>
      <point x="711.3333333333334" y="1460.0" type="line"/>
      <point x="517.3333333333334" y="1460.0" type="line"/>
    </contour>
    <contour>
      <point x="95.00000000000001" y="1296.3333333333335" type="line"/>
      <point x="1144.3333333333335" y="1296.3333333333335" type="line"/>
      <point x="1127.6666666666667" y="1460.0" type="line"/>
      <point x="111.66666666666669" y="1460.0" type="line"/>
    </contour>
    <contour>
      <point x="265.0" y="1881.3333333333335" type="line"/>
      <point x="447.00000000000006" y="1881.3333333333335" type="line"/>
      <point x="646.6666666666667" y="1677.3333333333335" type="line"/>
      <point x="593.3333333333334" y="1677.3333333333335" type="line"/>
      <point x="793.0" y="1881.3333333333335" type="line"/>
      <point x="975.0000000000001" y="1881.3333333333335" type="line"/>
      <point x="723.0" y="1640.0000000000002" type="line"/>
      <point x="517.0" y="1640.0000000000002" type="line"/>
    </contour>
  </outline>
</glyph>
<glyph name="Tcedilla.alt5.color0" format="2">
  <advance width="1240.0"/>
  <outline>
    <contour>
      <point x="517.3333333333334" y="0.0" type="line"/>
      <point x="711.3333333333334" y="0.0" type="line"/>
      <point x="711.3333333333334" y="1460.0" type="line"/>
      <point x="517.3333333333334" y="1460.0" type="line"/>
    </contour>
    <contour>
      <point x="95.00000000000001" y="1296.3333333333335" type="line"/>
      <point x="1144.3333333333335" y="1296.3333333333335" type="line"/>
      <point x="1127.6666666666667" y="1460.0" type="line"/>
      <point x="111.66666666666669" y="1460.0" type="line"/>
    </contour>
    <contour>
      <point x="501.33333333333337" y="-589.0" type="line"/>
      <point x="688.6666666666667" y="-589.0" type="line"/>
      <point x="840.0000000000001" y="-461.33333333333337" type="line"/>
      <point x="840.0000000000001" y="-279.33333333333337" type="line"/>
      <point x="690.3333333333334" y="-159.33333333333334" type="line"/>
      <point x="638.3333333333334" y="-159.33333333333334" type="line"/>
      <point x="664.0" y="-197.33333333333334" type="line"/>
      <point x="664.0" y="48.0" type="line"/>
      <point x="541.3333333333334" y="48.0" type="line"/>
      <point x="541.3333333333334" y="-274.33333333333337" type="line"/>
      <point x="640.6666666666667" y="-274.33333333333337" type="line"/>
      <point x="723.6666666666667" y="-339.33333333333337" type="line"/>
      <point x="723.6666666666667" y="-401.33333333333337" type="line"/>
      <point x="640.6666666666667" y="-466.33333333333337" type="line"/>
      <point x="501.33333333333337" y="-466.33333333333337" type="line"/>
    </contour>
  </outline>
</glyph>
<glyph name="Thorn.alt5.color0" format="2">
  <advance width="1240.0"/>
  <outline>
    <contour>
      <point x="177.33333333333334" y="0.0" type="line"/>
      <point x="371.0" y="0.0" type="line"/>
      <point x="371.0" y="1460.0" type="line"/>
      <point x="177.33333333333334" y="1460.0" type="line"/>
    </contour>
    <contour>
      <point x="268.0" y="299.33333333333337" type="line"/>
      <point x="801.0" y="299.33333333333337" type="line"/>
      <point x="1116.0" y="625.6666666666667" type="line"/>
      <point x="1116.0" y="929.6666666666667" type="line"/>
      <point x="803.0" y="1220.6666666666667" type="line"/>
      <point x="268.0" y="1220.6666666666667" type="line"/>
      <point x="268.0" y="1068.6666666666667" type="line"/>
      <point x="717.0" y="1068.6666666666667" type="line"/>
      <point x="923.6666666666667" y="880.6666666666667" type="line"/>
      <point x="923.6666666666667" y="687.0" type="line"/>
      <point x="710.3333333333334" y="446.33333333333337" type="line"/>
      <point x="268.0" y="446.33333333333337" type="line"/>
    </contour>
  </outline>
</glyph>
<glyph name="Ubreve.alt1" format="2">
  <advance width="1240.0"/>
  <outline>
    <contour>
      <point x="353.6666666666667" y="0.0" type="line"/>
      <point x="886.3333333333335" y="0.0" type="line"/>
      <point x="1058.0" y="215.00000000000003" type="line"/>
      <point x="1058.0" y="1460.0" type="line"/>
      <point x="862.3333333333334" y="1460.0" type="line"/>
      <point x="862.3333333333334" y="285.6666666666667" type="line"/>
      <point x="771.6666666666667" y="163.66666666666669" type="line"/>
      <point x="468.33333333333337" y="163.66666666666669" type="line"/>
      <point x="377.6666666666667" y="285.6666666666667" type="line"/>
      <point x="377.6666666666667" y="1460.0" type="line"/>
      <point x="182.00000000000003" y="1460.0" type="line"/>
      <point x="182.00000000000003" y="215.00000000000003" type="line"/>
    </contour>
    <contour>
      <point x="466.33333333333337" y="1628.6666666666667" type="line"/>
      <point x="773.6666666666667" y="1628.6666666666667" type="line"/>
      <point x="918.0" y="1757.6666666666667" type="line"/>
      <point x="918.0" y="1881.3333333333335" type="line"/>
      <point x="792.0" y="1881.3333333333335" type="line"/>
      <point x="792.0" y="1804.666666666667" type="line"/>
      <point x="720.3333333333334" y="1741.666666666667" type="line"/>
      <point x="519.6666666666667" y="1741.666666666667" type="line"/>
      <point x="448.0" y="1804.666666666667" type="line"/>
      <point x="448.0" y="1881.3333333333335" type="line"/>
      <point x="322.0" y="1881.3333333333335" type="line"/>
      <point x="322.0" y="1756.6666666666667" type="line"/>
    </contour>
  </outline>
</glyph>
<glyph name="Ucircumflex.alt5.color0" format="2">
  <advance width="1240.0"/>
  <outline>
    <contour>
      <point x="353.6666666666667" y="0.0" type="line"/>
      <point x="886.3333333333335" y="0.0" type="line"/>
      <point x="1058.0" y="215.00000000000003" type="line"/>
      <point x="1058.0" y="1460.0" type="line"/>
      <point x="862.3333333333334" y="1460.0" type="line"/>
      <point x="862.3333333333334" y="285.6666666666667" type="line"/>
      <point x="771.6666666666667" y="163.66666666666669" type="line"/>
      <point x="468.33333333333337" y="163.66666666666669" type="line"/>
      <point x="377.6666666666667" y="285.6666666666667" type="line"/>
      <point x="377.6666666666667" y="1460.0" type="line"/>
      <point x="182.00000000000003" y="1460.0" type="line"/>
      <point x="182.00000000000003" y="215.00000000000003" type="line"/>
    </contour>
    <contour>
      <point x="265.0" y="1640.0000000000002" type="line"/>
      <point x="447.00000000000006" y="1640.0000000000002" type="line"/>
      <point x="646.6666666666667" y="1844.0000000000002" type="line"/>
      <point x="593.3333333333334" y="1844.0000000000002" type="line"/>
      <point x="793.0" y="1640.0000000000002" type="line"/>
      <point x="975.0000000000001" y="1640.0000000000002" type="line"/>
      <point x="723.0" y="1881.3333333333335" type="line"/>
      <point x="517.0" y="1881.3333333333335" type="line"/>
    </contour>
  </outline>
</glyph>
<glyph name="Udieresis.alt1" format="2">
  <advance width="1240.0"/>
  <outline>
    <contour>
      <point x="353.6666666666667" y="0.0" type="line"/>
      <point x="886.3333333333335" y="0.0" type="line"/>
      <point x="1058.0" y="215.00000000000003" type="line"/>
      <point x="1058.0" y="1460.0" type="line"/>
      <point x="862.3333333333334" y="1460.0" type="line"/>
      <point x="862.3333333333334" y="285.6666666666667" type="line"/>
      <point x="771.6666666666667" y="163.66666666666669" type="line"/>
      <point x="468.33333333333337" y="163.66666666666669" type="line"/>
      <point x="377.6666666666667" y="285.6666666666667" type="line"/>
      <point x="377.6666666666667" y="1460.0" type="line"/>
      <point x="182.00000000000003" y="1460.0" type="line"/>
      <point x="182.00000000000003" y="215.00000000000003" type="line"/>
    </contour>
    <contour>
      <point x="362.2933333333334" y="1623.6000000000001" type="line"/>
      <point x="508.77066666666667" y="1766.2666666666667" type="line"/>
      <point x="362.2933333333334" y="1908.6666666666667" type="line"/>
      <point x="215.5546666666667" y="1766.2666666666667" type="line"/>
    </contour>
    <contour>
      <point x="877.96" y="1623.6000000000001" type="line"/>
      <point x="1024.4373333333335" y="1766.2666666666667" type="line"/>
      <point x="877.96" y="1908.6666666666667" type="line"/>
      <point x="731.2213333333334" y="1766.2666666666667" type="line"/>
    </contour>
  </outline>
</glyph>
